<?xml version="1.0" standalone="no"?>
<!DOCTYPE svg PUBLIC "-//W3C//DTD SVG 20010904//EN"
 "http://www.w3.org/TR/2001/REC-SVG-20010904/DTD/svg10.dtd">
<svg version="1.0" xmlns="http://www.w3.org/2000/svg"
 width="800.000000pt" height="800.000000pt" viewBox="0 0 800.000000 800.000000"
 preserveAspectRatio="xMidYMid meet">
<metadata>
Created by potrace 1.14, written by Peter Selinger 2001-2017
</metadata>
<g transform="translate(0.000000,800.000000) scale(0.100000,-0.100000)"
fill="#000000" stroke="none">
<path d="M3110 5522 c0 -4 -28 -6 -61 -5 -34 1 -71 -2 -83 -7 -57 -22 -120
-104 -121 -155 -1 -11 -4 -26 -8 -32 -5 -7 -4 -13 0 -13 5 0 8 -12 7 -27 -1
-34 18 -71 56 -111 52 -55 84 -65 202 -66 60 -1 108 -4 108 -8 0 -4 11 -3 25
2 14 5 27 5 30 1 6 -10 24 -9 43 2 7 5 12 4 12 -2 0 -6 7 -11 15 -11 13 0 13
-4 -2 -27 -20 -30 -47 -64 -80 -100 -13 -13 -23 -27 -23 -30 0 -3 -10 -14 -22
-24 -11 -11 -17 -19 -13 -19 5 0 0 -7 -11 -15 -10 -8 -15 -15 -11 -15 4 0 -11
-19 -34 -42 l-42 -43 -321 -1 c-202 -1 -331 -6 -348 -13 -32 -12 -88 -63 -88
-80 0 -6 -4 -11 -10 -11 -5 0 -9 -3 -8 -7 1 -5 -4 -20 -9 -34 -15 -35 -18 -69
-9 -99 15 -49 37 -90 54 -99 9 -6 13 -11 7 -11 -15 0 62 -50 78 -50 7 0 17 -3
21 -7 4 -5 108 -8 230 -9 123 -1 229 -4 235 -8 8 -5 9 -22 5 -49 -14 -88 -21
-140 -29 -216 -1 -18 -8 -38 -14 -44 -7 -7 -96 -11 -261 -11 -151 -1 -250 -5
-250 -11 0 -5 -5 -4 -11 2 -7 7 -21 8 -39 3 -18 -5 -32 -4 -39 3 -6 6 -11 7
-11 1 0 -5 -17 -9 -37 -8 -42 1 -103 -15 -103 -28 0 -4 -7 -8 -15 -8 -8 0 -14
-3 -13 -7 2 -5 -7 -18 -19 -30 -40 -40 -56 -155 -28 -208 22 -43 57 -85 71
-85 8 0 14 -4 14 -9 0 -24 70 -35 229 -35 99 -1 169 -5 173 -11 5 -6 8 -6 8 2
0 12 24 12 36 0 4 -3 14 -2 24 3 10 5 20 7 23 3 9 -9 156 -9 151 -1 -3 5 0 8
5 8 6 0 11 -4 11 -8 0 -4 34 -7 75 -7 73 1 76 0 82 -24 3 -15 10 -32 16 -38 5
-7 6 -13 2 -13 -4 0 -2 -7 5 -15 7 -8 10 -15 7 -15 -3 0 0 -12 8 -27 8 -15 12
-30 9 -35 -3 -4 0 -8 5 -8 6 0 11 -6 11 -13 0 -8 6 -27 14 -43 8 -16 17 -41
20 -56 6 -34 -2 -36 -124 -42 -47 -2 -86 -5 -87 -6 -2 -2 -6 -3 -10 -5 -27 -7
-50 -22 -70 -44 -40 -45 -42 -49 -36 -55 4 -3 1 -6 -5 -6 -11 0 -28 -81 -23
-115 10 -71 78 -152 144 -172 18 -5 153 -10 301 -11 282 -2 278 -1 333 -48 48
-42 63 -54 69 -54 9 0 98 -63 106 -74 4 -6 8 -8 8 -3 0 4 17 -3 38 -16 20 -13
47 -27 60 -31 12 -4 22 -12 22 -17 0 -5 3 -8 8 -7 13 5 92 -25 92 -34 0 -5 3
-7 8 -5 4 3 18 0 32 -6 14 -5 30 -11 35 -12 6 0 17 -4 25 -7 8 -4 29 -10 45
-14 17 -4 37 -9 45 -11 8 -2 31 -6 50 -9 19 -4 40 -9 45 -13 6 -3 29 -6 53 -6
23 0 42 -3 42 -6 0 -8 312 -8 325 0 6 3 26 7 45 8 62 5 127 19 215 46 39 12
72 22 75 22 3 1 18 7 33 13 16 7 30 12 33 12 11 0 100 45 106 54 4 6 8 8 8 4
0 -4 17 2 38 14 20 12 46 26 57 32 38 22 80 50 103 70 12 11 22 16 22 13 0 -4
8 1 18 11 10 9 45 40 77 67 33 28 78 69 101 91 24 23 45 39 48 36 4 -3 6 1 7
9 0 8 20 30 43 49 24 19 42 38 40 41 -2 4 5 9 16 12 11 3 20 12 20 21 0 9 7
16 15 16 21 0 19 39 -2 47 -10 4 -20 10 -23 13 -10 14 -154 99 -215 127 -16 8
-38 18 -47 24 -10 5 -22 9 -27 9 -5 0 -22 5 -38 12 -15 6 -31 12 -35 13 -5 2
-9 3 -10 5 -2 1 -12 3 -23 4 -11 2 -38 7 -60 11 -22 5 -55 9 -72 9 -18 1 -33
4 -33 7 0 7 -194 3 -230 -5 -73 -16 -130 -27 -135 -26 -3 0 -19 -7 -35 -15
-16 -8 -32 -15 -35 -15 -19 -1 -148 -61 -153 -72 -2 -5 -10 -8 -17 -8 -7 0
-16 -7 -19 -16 -3 -8 -10 -13 -15 -10 -5 3 -15 -1 -22 -10 -7 -9 -33 -30 -58
-47 -37 -25 -56 -32 -96 -32 -27 0 -52 3 -55 6 -3 4 -21 9 -40 11 -20 3 -50
13 -68 22 -17 9 -34 16 -37 16 -10 -2 -120 54 -123 62 -2 4 -10 8 -18 8 -8 0
-14 4 -14 9 0 5 -13 14 -30 21 -16 7 -27 16 -24 21 3 5 0 9 -6 9 -6 0 -29 18
-51 40 -22 22 -45 40 -51 40 -6 0 -9 2 -6 5 3 3 -3 16 -13 28 -11 12 -30 35
-44 52 -31 37 -130 233 -122 241 4 4 1 16 -5 28 -15 27 -19 46 -13 71 4 20 13
20 412 22 224 1 512 2 640 3 127 1 236 -1 242 -4 6 -4 11 -4 11 1 0 10 93 8
109 -1 6 -4 11 -4 11 1 0 10 93 8 109 -1 6 -4 11 -4 11 1 0 10 93 8 109 -1 6
-4 11 -4 11 1 0 10 574 8 589 -2 6 -3 11 -2 11 3 0 5 20 7 44 5 41 -4 44 -3
54 25 6 17 8 33 5 36 -3 2 -7 53 -9 113 -4 141 -12 214 -31 283 -4 14 -8 32
-9 40 -18 109 -140 392 -202 469 -7 9 -12 19 -12 24 0 4 -8 16 -17 26 -10 11
-29 34 -43 52 -72 93 -132 155 -225 233 -100 83 -104 86 -115 86 -6 0 -10 5
-10 10 0 6 -6 10 -14 10 -8 0 -16 4 -18 8 -4 11 -118 74 -118 65 0 -4 -6 0
-12 9 -7 9 -22 18 -33 20 -11 2 -22 6 -25 9 -15 18 -225 91 -234 81 -4 -3 -6
-1 -6 4 0 5 -8 10 -18 11 -10 1 -45 8 -78 17 -32 8 -77 17 -99 20 -22 2 -41 5
-42 6 -4 3 -52 2 -55 0 -8 -6 -76 -5 -94 1 -11 4 -27 3 -34 -1 -8 -5 -22 -4
-32 1 -12 7 -18 6 -18 -1 0 -6 -5 -8 -12 -4 -18 11 -48 12 -48 2 0 -5 -9 -4
-20 2 -12 6 -20 7 -20 1 0 -10 -25 -9 -36 2 -4 4 -13 2 -21 -4 -7 -6 -13 -8
-13 -3 0 5 -13 9 -30 9 -16 0 -30 -4 -30 -8 0 -5 -5 -5 -11 -2 -17 11 -59 13
-59 3 0 -5 -9 -4 -20 2 -12 6 -20 7 -20 1 0 -10 -19 -9 -37 2 -6 4 -14 3 -18
-3 -4 -6 -12 -7 -18 -3 -17 10 -47 11 -53 1 -3 -4 -10 -5 -17 -1 -16 10 -57
10 -57 0 0 -4 -9 -3 -20 3 -12 6 -20 7 -20 1 0 -10 -25 -9 -36 2 -4 4 -13 2
-21 -4 -7 -6 -13 -8 -13 -3 0 5 -13 9 -30 9 -16 0 -30 -4 -30 -8 0 -5 -5 -5
-11 -2 -17 11 -59 13 -59 3 0 -5 -9 -4 -20 2 -12 6 -20 7 -20 1 0 -10 -19 -9
-37 2 -6 4 -14 3 -18 -3 -4 -6 -12 -7 -18 -3 -17 10 -47 11 -53 1 -3 -4 -10
-5 -17 -1 -16 10 -57 10 -57 0 0 -4 -9 -3 -20 3 -12 6 -20 7 -20 1 0 -10 -25
-9 -36 2 -4 4 -13 2 -21 -4 -7 -6 -13 -8 -13 -3 0 10 -51 11 -67 1 -6 -4 -13
-3 -17 0 -9 9 -36 13 -36 5z m1425 -672 c0 -1 14 -3 30 -5 17 -1 46 -6 65 -10
19 -4 41 -8 48 -8 6 0 12 -4 12 -9 0 -4 10 -8 23 -8 13 0 27 -4 33 -10 5 -5
19 -11 31 -13 12 -2 32 -12 44 -23 12 -10 19 -13 14 -5 -13 23 137 -83 193
-136 29 -29 52 -59 52 -71 0 -25 -16 -27 -267 -27 -106 0 -193 -4 -193 -8 0
-4 -8 -4 -17 1 -20 9 -223 8 -247 -1 -9 -4 -18 -3 -20 2 -4 6 -71 7 -101 1 -5
-1 -12 -1 -15 0 -16 6 -60 4 -60 -3 0 -4 -6 -5 -12 -1 -16 10 -77 11 -104 2
-12 -4 -25 -4 -29 0 -3 4 -51 7 -106 8 -95 2 -129 12 -129 36 0 13 76 85 122
116 21 13 38 29 38 34 0 5 5 6 10 3 6 -3 10 -1 10 5 0 6 5 8 10 5 6 -3 10 -3
10 2 0 11 117 71 150 77 3 1 10 4 15 7 6 4 22 9 37 13 16 3 29 7 30 7 63 17
129 24 215 23 59 -1 108 -2 108 -4z"/>
<path d="M2460 5499 c0 -4 -9 -6 -19 -4 -19 4 -58 -21 -99 -62 -12 -13 -19
-23 -16 -23 4 0 1 -7 -6 -15 -7 -8 -9 -15 -5 -15 4 0 3 -6 -2 -12 -9 -11 -9
-81 -1 -119 6 -27 59 -84 99 -104 39 -21 116 -26 130 -9 6 8 19 14 29 14 18 0
73 39 55 40 -5 0 1 7 13 16 12 8 20 20 17 25 -4 5 -1 9 5 9 7 0 10 7 6 15 -3
8 -2 15 3 15 11 0 21 49 11 55 -5 3 -7 13 -5 23 5 31 -65 131 -87 125 -4 -2
-8 2 -8 9 0 6 -3 9 -6 5 -3 -3 -18 -1 -33 5 -34 13 -81 18 -81 7z"/>
</g>
</svg>
