<?xml version="1.0" standalone="no"?>
<!DOCTYPE svg PUBLIC "-//W3C//DTD SVG 20010904//EN"
 "http://www.w3.org/TR/2001/REC-SVG-20010904/DTD/svg10.dtd">
<svg version="1.0" xmlns="http://www.w3.org/2000/svg"
 width="3600.000000pt" height="3600.000000pt" viewBox="0 0 3600.000000 3600.000000"
 preserveAspectRatio="xMidYMid meet">
<metadata>
Created by potrace 1.14, written by Peter Selinger 2001-2017
</metadata>
<g transform="translate(0.000000,3600.000000) scale(0.100000,-0.100000)"
fill="#000000" stroke="none">
<path d="M18203 35314 c5 -8 -5 -11 -31 -10 -20 1 -47 -1 -59 -6 -15 -5 -23
-4 -23 3 0 8 -4 8 -13 0 -10 -8 -17 -7 -25 1 -9 9 -16 7 -30 -5 -10 -9 -22
-14 -26 -10 -3 4 -26 6 -49 5 -23 -1 -58 -3 -77 -4 -19 -1 -38 -7 -42 -13 -5
-6 -8 -5 -8 4 0 11 -3 11 -15 1 -12 -10 -15 -10 -15 1 0 9 -3 10 -8 4 -4 -6
-26 -11 -49 -10 -24 0 -43 -2 -43 -5 0 -3 -17 -5 -38 -4 -20 0 -45 -3 -54 -8
-12 -6 -18 -5 -18 3 0 8 -5 7 -17 -2 -9 -8 -18 -13 -20 -11 -1 1 -6 2 -10 1
-5 -1 -18 0 -30 0 -11 1 -24 -3 -28 -9 -5 -8 -11 -7 -22 1 -12 10 -16 10 -24
-2 -7 -12 -9 -12 -9 1 0 12 -2 12 -9 2 -4 -7 -12 -12 -17 -11 -5 1 -26 1 -47
0 -28 -1 -36 -4 -31 -13 6 -10 5 -10 -8 -1 -8 7 -18 10 -22 6 -4 -4 -22 -8
-41 -8 -19 -1 -42 -8 -52 -16 -14 -12 -16 -12 -8 0 6 11 4 13 -11 7 -10 -4
-26 -9 -34 -11 -8 -2 -17 -4 -20 -5 -3 -1 -13 -2 -22 -1 -10 1 -27 -3 -39 -9
-12 -7 -19 -8 -16 -3 4 5 0 10 -8 10 -8 0 -12 -4 -9 -9 4 -7 -31 -12 -88 -12
-9 0 -15 -3 -12 -7 3 -5 -11 -7 -30 -5 -19 1 -33 -1 -30 -5 2 -4 -4 -10 -13
-13 -9 -4 -20 -1 -25 6 -4 8 -8 8 -8 2 0 -10 -13 -14 -53 -15 -9 0 -15 -4 -13
-8 3 -4 -1 -8 -9 -8 -8 0 -15 5 -15 11 0 6 -5 3 -11 -7 -6 -9 -15 -15 -20 -11
-5 3 -17 0 -26 -8 -14 -11 -16 -11 -8 2 8 13 7 13 -8 1 -10 -8 -20 -11 -24 -7
-3 3 -17 -1 -31 -10 -17 -11 -22 -12 -17 -3 5 8 -2 5 -15 -6 -13 -11 -20 -14
-16 -7 4 6 2 12 -3 12 -6 0 -11 -4 -11 -8 0 -5 -10 -8 -22 -8 -13 1 -22 -4
-21 -11 2 -9 -4 -10 -22 -3 -14 5 -25 6 -25 1 0 -5 -7 -12 -16 -15 -10 -4 -13
-2 -8 7 6 8 3 8 -9 -1 -9 -8 -21 -11 -27 -7 -5 3 -10 1 -10 -5 0 -6 -4 -9 -9
-5 -5 3 -12 1 -16 -4 -3 -6 -12 -8 -20 -4 -8 3 -15 1 -15 -4 0 -5 -9 -10 -20
-11 -11 -1 -29 -3 -40 -4 -11 -1 -20 -6 -20 -11 0 -4 -4 -6 -9 -2 -5 3 -12 1
-16 -4 -3 -6 -13 -7 -22 -4 -12 5 -14 3 -8 -7 5 -9 4 -11 -3 -6 -7 4 -18 4
-24 -1 -7 -4 -22 -9 -32 -10 -11 -2 -26 -9 -35 -16 -12 -9 -13 -9 -7 0 5 9 2
11 -8 7 -9 -3 -16 -10 -16 -16 0 -5 -5 -6 -10 -3 -6 4 -17 1 -25 -5 -12 -10
-15 -10 -15 1 0 11 -2 11 -9 0 -9 -15 -16 -17 -71 -28 -17 -3 -27 -10 -23 -16
4 -6 0 -8 -10 -4 -10 3 -17 2 -17 -3 0 -5 -9 -7 -20 -5 -11 2 -20 -1 -20 -6 0
-6 -4 -7 -10 -4 -5 3 -10 2 -10 -4 0 -6 -7 -8 -15 -5 -8 4 -15 1 -15 -6 0 -7
-7 -10 -15 -6 -8 3 -15 1 -15 -5 0 -6 -4 -8 -9 -4 -5 3 -17 -2 -25 -11 -12
-11 -16 -12 -16 -2 -1 8 -4 7 -11 -4 -6 -11 -16 -15 -26 -11 -12 5 -14 3 -8
-8 8 -12 6 -12 -9 0 -14 12 -17 12 -14 1 2 -9 -6 -14 -20 -15 -12 0 -26 -5
-30 -11 -4 -6 -15 -10 -24 -8 -10 1 -18 -2 -18 -7 0 -6 -8 -9 -17 -7 -10 2
-17 -2 -16 -9 2 -7 -3 -10 -11 -7 -8 3 -17 1 -21 -5 -3 -6 -15 -11 -26 -11
-10 0 -19 -6 -19 -12 0 -10 -2 -10 -9 0 -7 11 -9 10 -15 -3 -3 -9 -10 -13 -16
-10 -5 3 -10 2 -10 -4 0 -6 -6 -8 -14 -5 -8 3 -22 -3 -32 -14 -9 -11 -23 -18
-29 -15 -7 2 -16 -1 -20 -6 -3 -6 -11 -9 -16 -6 -5 4 -9 1 -9 -5 0 -7 -6 -10
-13 -7 -13 5 -39 -17 -31 -27 2 -3 -1 -2 -7 3 -8 6 -17 5 -26 -4 -7 -8 -21
-11 -30 -8 -10 4 -14 2 -10 -4 6 -10 -27 -27 -45 -24 -5 1 -8 -4 -8 -10 0 -5
-5 -7 -10 -4 -6 3 -22 -3 -36 -14 -15 -11 -30 -19 -34 -16 -4 3 -11 -2 -14
-11 -4 -9 -9 -14 -13 -11 -3 4 -21 -3 -40 -14 -18 -11 -33 -17 -33 -13 0 4 -9
-3 -19 -15 -11 -12 -22 -22 -25 -22 -22 3 -35 -1 -52 -16 -11 -10 -26 -19 -34
-21 -8 -2 -18 -8 -21 -14 -4 -6 -12 -7 -18 -4 -6 4 -11 2 -11 -4 0 -6 -4 -8
-10 -5 -5 3 -10 -2 -10 -11 0 -10 -3 -14 -6 -11 -4 3 -16 1 -28 -5 -11 -7 -23
-13 -26 -13 -18 -3 -50 -28 -45 -35 3 -6 -1 -7 -9 -4 -9 3 -16 2 -16 -3 0 -13
-56 -44 -65 -35 -5 4 -5 1 -1 -5 5 -9 1 -13 -12 -13 -10 0 -28 -9 -40 -20 -12
-11 -26 -20 -32 -20 -5 0 -10 -4 -10 -8 0 -5 -16 -14 -35 -22 -19 -8 -35 -18
-35 -22 0 -5 -4 -6 -10 -3 -5 3 -10 -2 -11 -12 0 -11 -3 -13 -6 -5 -3 9 -12 5
-28 -13 -13 -14 -31 -25 -40 -25 -8 0 -15 -4 -15 -10 0 -5 -6 -9 -12 -7 -7 1
-12 -4 -11 -10 2 -7 0 -12 -5 -11 -11 3 -72 -31 -72 -41 0 -8 -35 -22 -44 -18
-2 1 -15 -9 -28 -23 -12 -14 -27 -27 -33 -29 -28 -10 -74 -49 -67 -57 4 -5 3
-6 -2 -2 -11 9 -48 -10 -41 -21 2 -5 -3 -8 -13 -7 -10 0 -16 -5 -14 -13 3 -12
1 -12 -13 -1 -14 11 -16 11 -13 -1 2 -8 -3 -13 -10 -11 -8 1 -11 -2 -7 -7 7
-12 -29 -33 -40 -23 -5 4 -5 2 -2 -4 6 -11 -19 -29 -35 -26 -5 1 -8 -5 -8 -13
0 -8 -6 -15 -14 -15 -7 0 -21 -10 -30 -22 -9 -13 -14 -16 -11 -8 4 8 -1 6 -10
-5 -9 -11 -20 -19 -25 -18 -5 2 -18 -9 -29 -24 -12 -14 -21 -23 -21 -19 0 3
-10 -4 -22 -16 -13 -13 -22 -27 -20 -31 1 -5 -2 -6 -8 -2 -5 3 -21 -5 -34 -18
-14 -14 -27 -22 -30 -19 -3 3 -6 -2 -6 -12 0 -9 -4 -14 -10 -11 -5 3 -10 2
-10 -2 0 -5 -13 -17 -30 -26 -16 -10 -30 -26 -30 -35 0 -15 -2 -15 -10 -2 -6
10 -10 11 -10 3 0 -7 -9 -22 -20 -33 -11 -11 -20 -18 -20 -15 0 3 -13 -8 -30
-25 -16 -16 -34 -30 -40 -30 -6 0 -8 -5 -4 -12 5 -8 2 -9 -12 -4 -10 4 -16 4
-13 1 10 -9 -80 -97 -91 -90 -6 4 -10 3 -9 -2 3 -20 -2 -34 -11 -28 -5 3 -10
-2 -10 -11 0 -10 -3 -15 -6 -11 -3 3 -16 -5 -29 -19 -12 -13 -27 -24 -33 -24
-7 0 -9 -7 -5 -17 4 -11 3 -14 -5 -9 -7 4 -12 2 -12 -3 0 -6 -7 -11 -15 -11
-9 0 -12 -6 -9 -15 4 -11 -1 -15 -17 -15 -19 0 -21 -2 -9 -10 13 -9 13 -10 0
-10 -8 0 -26 -13 -40 -29 -13 -17 -27 -28 -32 -25 -4 3 -8 0 -8 -6 0 -6 -11
-21 -25 -34 -13 -13 -22 -26 -18 -29 6 -6 -12 -11 -29 -8 -5 0 -7 -3 -5 -8 1
-5 -7 -17 -18 -26 -11 -9 -13 -13 -5 -9 8 3 0 -7 -17 -24 -18 -17 -33 -36 -33
-41 0 -6 -6 -11 -14 -11 -8 0 -18 -9 -21 -20 -4 -11 -10 -18 -15 -15 -4 3 -10
-5 -13 -16 -3 -12 -10 -18 -16 -14 -6 3 -11 -1 -11 -10 0 -8 -7 -18 -15 -21
-8 -4 -13 -10 -10 -14 3 -5 -3 -11 -14 -15 -11 -3 -24 -19 -30 -35 -5 -17 -13
-30 -16 -30 -3 0 -3 5 1 12 4 7 3 8 -4 4 -7 -4 -12 -14 -12 -22 0 -8 -7 -14
-16 -14 -9 0 -14 -5 -12 -12 3 -7 -12 -29 -33 -49 -21 -20 -35 -40 -32 -43 3
-3 -2 -8 -11 -12 -10 -4 -22 -18 -27 -31 -5 -13 -14 -21 -19 -18 -6 4 -10 3
-9 -2 1 -4 -2 -19 -6 -31 -6 -18 -10 -20 -16 -10 -7 10 -9 10 -9 -3 0 -20 -39
-65 -53 -61 -6 2 -4 -5 3 -15 8 -10 11 -15 6 -11 -12 10 -59 -49 -50 -63 4 -7
3 -9 -3 -6 -5 3 -17 -3 -26 -14 -9 -10 -14 -19 -11 -19 3 0 -1 -7 -8 -15 -33
-36 -39 -46 -33 -55 3 -5 -3 -7 -13 -5 -11 2 -19 -2 -19 -8 1 -32 -4 -48 -13
-42 -5 3 -10 -1 -10 -9 0 -9 -5 -16 -11 -16 -5 0 -7 -4 -4 -10 3 -5 -2 -10
-11 -10 -10 0 -14 -3 -11 -6 9 -10 -12 -46 -23 -39 -6 3 -7 -1 -4 -9 4 -10 1
-16 -7 -16 -7 0 -10 -3 -6 -6 3 -4 -4 -15 -16 -26 -12 -11 -15 -17 -7 -13 9 4
7 0 -4 -9 -10 -8 -15 -20 -11 -26 3 -6 1 -9 -6 -8 -7 2 -13 -4 -14 -12 -1 -8
-6 -14 -12 -13 -7 2 -10 -6 -8 -19 3 -11 2 -18 -1 -15 -10 10 -32 -17 -26 -32
4 -10 1 -12 -8 -6 -10 6 -12 4 -8 -7 4 -8 -2 -21 -13 -29 -10 -7 -19 -21 -19
-31 0 -9 -8 -22 -17 -27 -10 -6 -14 -11 -10 -11 5 0 -1 -13 -12 -29 -12 -16
-21 -34 -21 -41 0 -6 -5 -8 -12 -4 -8 5 -9 2 -5 -9 3 -10 3 -17 -1 -17 -4 0
-16 -18 -26 -40 -11 -22 -23 -40 -28 -40 -5 0 -7 -4 -3 -9 3 -5 1 -12 -5 -16
-6 -4 -8 -11 -5 -16 4 -5 1 -9 -4 -9 -6 0 -11 -7 -11 -15 0 -8 -4 -15 -10 -15
-5 0 -10 -7 -10 -15 0 -8 -5 -15 -10 -15 -6 0 -9 -3 -8 -7 1 -5 -3 -18 -10
-30 -7 -13 -10 -23 -6 -23 4 0 -3 -8 -14 -19 -12 -10 -18 -21 -14 -25 4 -4 0
-13 -8 -19 -8 -7 -15 -19 -15 -27 0 -8 -6 -14 -13 -12 -8 1 -11 -2 -7 -8 4 -6
1 -18 -7 -27 -11 -14 -11 -16 2 -9 8 4 7 1 -4 -8 -11 -9 -16 -22 -12 -31 3 -9
2 -13 -4 -10 -6 3 -10 -1 -10 -10 0 -9 -4 -13 -10 -10 -6 3 -7 -1 -4 -9 3 -9
1 -16 -6 -16 -6 0 -8 -4 -5 -10 3 -5 1 -10 -5 -10 -6 0 -9 -4 -5 -9 3 -5 -1
-15 -8 -23 -8 -7 -12 -19 -9 -27 3 -8 0 -11 -6 -7 -6 3 -9 -1 -8 -11 2 -10 -6
-26 -18 -36 -17 -15 -18 -20 -6 -27 10 -7 11 -10 3 -10 -7 0 -15 -11 -19 -25
-3 -13 -12 -29 -20 -36 -8 -6 -14 -22 -14 -35 0 -12 -5 -26 -10 -29 -6 -4 -8
-11 -5 -16 4 -5 1 -9 -6 -9 -6 0 -9 -8 -6 -20 3 -11 1 -18 -4 -14 -5 3 -9 -2
-9 -10 0 -9 -5 -16 -10 -16 -6 0 -9 -3 -9 -7 4 -25 -2 -53 -11 -48 -6 4 -7 -1
-3 -11 5 -13 3 -15 -8 -9 -11 7 -11 5 1 -10 8 -10 10 -16 4 -12 -8 4 -16 -9
-23 -38 -6 -25 -16 -45 -21 -45 -5 0 -6 -7 -3 -17 4 -11 3 -14 -5 -9 -8 5 -10
2 -6 -9 4 -9 -2 -25 -12 -37 -12 -14 -14 -18 -4 -13 9 5 7 -1 -5 -15 -11 -13
-14 -20 -7 -16 6 4 12 2 12 -3 0 -6 -5 -11 -11 -11 -5 0 -7 -4 -4 -10 3 -5 0
-10 -7 -10 -9 0 -9 -3 2 -10 12 -8 12 -10 -5 -10 -15 0 -17 -3 -7 -9 11 -7 11
-9 -2 -14 -9 -4 -13 -13 -10 -22 3 -8 1 -15 -5 -15 -6 0 -8 -7 -4 -17 4 -10 2
-14 -4 -10 -6 4 -8 -3 -5 -18 2 -14 0 -25 -5 -25 -5 0 -10 -7 -11 -15 -1 -8
-3 -22 -4 -30 -1 -8 -5 -15 -10 -15 -5 0 -6 -4 -3 -10 3 -5 0 -10 -7 -10 -10
0 -10 -2 1 -9 9 -6 10 -11 2 -15 -6 -4 -11 -18 -11 -32 0 -14 -4 -23 -9 -20
-5 4 -8 -5 -6 -19 1 -14 -2 -25 -7 -25 -6 0 -8 -7 -4 -15 3 -8 1 -15 -3 -15
-5 0 -8 -11 -6 -25 1 -14 -2 -25 -7 -25 -6 0 -7 -7 -4 -16 4 -10 2 -13 -6 -8
-8 5 -9 2 -5 -9 3 -10 2 -17 -4 -17 -6 0 -7 -5 -3 -11 3 -6 0 -15 -7 -20 -12
-7 -12 -9 0 -9 11 0 11 -3 0 -17 -12 -14 -12 -16 1 -9 8 4 7 1 -4 -8 -10 -8
-16 -22 -13 -30 4 -9 2 -18 -3 -21 -5 -3 -7 -12 -3 -20 3 -8 0 -15 -7 -15 -6
0 -8 -5 -5 -10 4 -6 1 -17 -5 -25 -10 -12 -10 -15 1 -15 11 0 11 -2 1 -8 -7
-5 -14 -26 -16 -48 -2 -21 -7 -38 -12 -37 -5 1 -8 -16 -8 -38 1 -21 -2 -42 -8
-45 -5 -3 -4 -11 3 -20 9 -11 8 -15 -3 -19 -9 -4 -14 -20 -13 -45 1 -22 -2
-40 -6 -40 -4 0 -9 -11 -11 -25 -3 -14 -1 -25 5 -25 6 0 2 -6 -9 -14 -14 -11
-22 -11 -32 -3 -8 6 -16 7 -20 1 -8 -11 -92 -11 -110 0 -6 4 -12 3 -12 -1 0
-12 -38 -14 -46 -2 -3 6 -12 5 -21 -3 -18 -15 -22 -15 -35 4 -6 8 -11 9 -14 2
-4 -10 -71 -10 -81 0 -3 3 -16 1 -29 -4 -17 -7 -24 -6 -24 3 0 7 -3 8 -8 2 -9
-12 -75 -13 -83 -1 -4 5 -13 5 -20 1 -15 -10 -79 -14 -79 -6 0 4 -11 6 -25 6
-14 0 -25 -3 -25 -7 0 -8 -21 -5 -37 5 -7 5 -13 4 -13 0 0 -5 -9 -9 -20 -9
-11 0 -20 4 -20 8 0 4 -5 8 -11 8 -5 0 -8 -3 -5 -8 2 -4 -12 -6 -32 -4 -21 1
-41 3 -47 4 -5 0 -22 -2 -37 -5 -16 -3 -28 -1 -28 4 0 6 -6 7 -12 3 -11 -7
-53 -10 -60 -4 -9 6 -38 7 -38 1 0 -8 -47 -7 -55 1 -3 3 -24 2 -45 -2 -22 -4
-43 -3 -46 1 -3 5 -13 5 -23 0 -9 -5 -23 -6 -31 -1 -7 4 -23 5 -35 0 -12 -5
-28 -4 -35 0 -9 5 -20 4 -27 -2 -9 -7 -13 -7 -13 0 0 6 -13 7 -35 2 -19 -4
-35 -4 -35 1 0 5 -11 4 -25 -1 -13 -5 -27 -5 -29 -1 -6 9 -61 5 -78 -5 -7 -4
-8 -2 -4 4 5 9 0 9 -18 2 -14 -5 -26 -6 -26 -1 0 9 -55 5 -72 -5 -7 -4 -8 -2
-4 4 5 9 0 9 -18 2 -14 -5 -26 -6 -26 -1 0 5 -15 7 -32 4 -39 -5 -55 -5 -88 0
-14 2 -31 -1 -37 -6 -9 -6 -13 -5 -13 4 0 11 -2 11 -10 -1 -5 -8 -10 -10 -10
-5 0 11 -102 11 -120 0 -5 -3 -10 -2 -10 2 0 9 -103 8 -126 -1 -7 -3 -16 -1
-19 4 -3 6 -16 5 -31 0 -15 -6 -23 -6 -19 -1 3 6 -6 6 -25 1 -16 -5 -30 -5
-30 -1 0 11 -44 8 -52 -4 -5 -6 -8 -5 -8 2 0 9 -7 10 -24 3 -13 -5 -27 -6 -30
-2 -9 9 -76 9 -76 0 0 -4 -6 -5 -12 -3 -7 3 -32 6 -55 8 -37 3 -43 1 -43 -15
0 -11 -4 -17 -8 -14 -5 3 -8 -17 -6 -44 1 -28 -2 -50 -8 -50 -5 0 -2 -8 7 -17
16 -16 16 -17 -1 -30 -10 -7 -13 -13 -7 -13 6 0 8 -11 5 -25 -2 -15 -9 -22
-16 -18 -7 4 -6 1 2 -9 14 -18 12 -68 -3 -68 -6 0 -7 -3 0 -8 6 -4 10 -14 10
-22 0 -8 -4 -18 -10 -22 -6 -5 -5 -8 4 -8 9 0 10 -4 4 -12 -6 -7 -10 -32 -9
-55 1 -24 -2 -43 -5 -43 -4 0 -5 -15 -4 -32 2 -18 -2 -39 -9 -47 -8 -12 -8
-13 2 -7 15 9 16 -6 0 -22 -7 -7 -8 -12 -2 -12 6 0 11 -7 11 -15 0 -8 -4 -12
-9 -9 -13 8 -6 -29 7 -38 6 -5 6 -8 -2 -8 -6 0 -10 -13 -9 -30 1 -16 -3 -30
-8 -30 -6 0 -4 -5 4 -10 12 -8 12 -10 -5 -10 -11 0 -15 -4 -10 -8 14 -10 15
-62 1 -62 -6 0 -5 -4 3 -9 9 -6 10 -11 2 -15 -8 -5 -8 -13 -1 -26 6 -12 7 -21
0 -25 -5 -3 -6 -13 -3 -22 4 -11 3 -14 -5 -9 -9 5 -9 1 -2 -18 7 -19 6 -26 -3
-26 -8 0 -7 -4 3 -10 8 -5 11 -10 5 -10 -6 0 -10 -24 -9 -52 1 -29 -3 -61 -9
-72 -7 -14 -6 -17 5 -10 10 6 11 4 3 -7 -6 -8 -10 -47 -10 -86 0 -40 -2 -73
-5 -73 -3 0 -5 -15 -5 -32 1 -18 -2 -41 -8 -52 -6 -13 -6 -16 2 -12 8 5 8 -1
-1 -19 -8 -18 -14 -22 -20 -13 -6 10 -8 10 -8 -1 0 -9 -8 -12 -25 -9 -14 3
-22 1 -19 -4 4 -6 -6 -8 -22 -6 -21 2 -28 -1 -26 -11 3 -12 0 -12 -12 -1 -12
9 -16 9 -16 1 0 -8 -8 -10 -20 -6 -11 3 -20 2 -20 -3 0 -6 -10 -8 -22 -4 -12
3 -19 1 -15 -4 3 -5 -3 -10 -14 -10 -10 0 -19 5 -19 10 0 5 -7 1 -15 -10 -14
-19 -14 -19 -15 1 -1 18 -2 17 -11 -4 -8 -19 -12 -21 -24 -11 -9 8 -15 8 -15
2 0 -6 -11 -9 -25 -7 -14 1 -25 -2 -25 -7 0 -6 -7 -8 -15 -5 -8 4 -17 2 -20
-4 -4 -5 -11 -7 -16 -3 -5 3 -23 -1 -39 -10 -18 -9 -32 -11 -36 -5 -4 6 -10 6
-18 0 -11 -9 -45 -17 -89 -20 -5 -1 -5 -5 -2 -11 4 -7 -3 -7 -19 0 -18 7 -26
6 -26 -1 0 -6 -9 -9 -20 -6 -11 3 -20 2 -20 -3 0 -4 -15 -7 -34 -6 -19 1 -32
-2 -30 -5 2 -4 -3 -9 -11 -13 -8 -3 -15 0 -15 7 0 8 -3 8 -9 -2 -5 -7 -25 -14
-45 -14 -20 -1 -36 -5 -36 -10 0 -5 -7 -7 -15 -3 -8 3 -15 2 -15 -2 0 -4 -10
-8 -22 -8 -13 -1 -39 -5 -58 -9 -19 -4 -39 -8 -45 -8 -5 -1 -13 -6 -17 -12 -5
-6 -8 -4 -8 5 0 11 -2 12 -8 3 -4 -7 -25 -15 -47 -18 -71 -10 -74 -11 -81 -18
-12 -12 -26 -8 -18 5 4 7 -6 2 -23 -10 -28 -20 -31 -20 -47 -4 -16 16 -17 16
-10 -3 4 -11 4 -17 -1 -13 -4 4 -16 3 -26 -3 -14 -7 -19 -6 -19 3 0 10 -3 10
-9 -1 -5 -8 -16 -11 -25 -8 -9 4 -16 2 -16 -4 0 -6 -7 -9 -15 -5 -8 3 -15 1
-15 -4 0 -5 -9 -7 -20 -5 -11 2 -20 0 -20 -5 0 -4 -9 -6 -20 -3 -11 3 -20 1
-20 -4 0 -6 -11 -9 -25 -8 -14 2 -25 -1 -25 -7 0 -7 -5 -6 -14 1 -10 9 -16 9
-21 1 -4 -6 -13 -9 -21 -6 -7 3 -16 1 -20 -5 -3 -6 -12 -8 -19 -5 -8 3 -15 1
-17 -5 -2 -5 -22 -10 -45 -12 -24 -1 -43 -5 -43 -9 0 -4 -7 -4 -17 -1 -10 4
-14 2 -9 -5 4 -7 -2 -9 -19 -6 -16 3 -25 0 -25 -8 0 -9 -3 -8 -10 2 -7 12 -10
12 -10 1 0 -7 -6 -11 -15 -8 -8 4 -17 2 -20 -4 -4 -5 -10 -7 -15 -4 -5 3 -18
1 -29 -5 -14 -7 -22 -7 -27 1 -5 9 -11 7 -20 -5 -7 -10 -15 -17 -18 -17 -36 4
-56 -1 -50 -11 6 -10 4 -10 -8 0 -11 9 -18 10 -23 2 -3 -6 -10 -8 -14 -6 -4 3
-13 1 -21 -4 -9 -5 -20 -4 -29 3 -12 9 -13 9 -7 0 7 -13 -4 -17 -33 -14 -8 2
-10 -3 -6 -11 3 -7 -1 -4 -9 6 -14 17 -16 17 -16 4 0 -9 -8 -17 -17 -16 -10 0
-27 -2 -38 -5 -40 -9 -110 -21 -117 -19 -5 1 -8 -2 -8 -7 0 -5 -7 -12 -16 -15
-8 -3 -12 -2 -9 4 9 15 -8 12 -34 -7 -16 -10 -21 -12 -16 -3 6 10 4 12 -11 6
-10 -5 -25 -9 -31 -9 -7 0 -13 -5 -13 -11 0 -6 -5 -4 -10 4 -5 8 -10 10 -10 4
0 -12 -40 -23 -97 -27 -18 -1 -33 -5 -33 -8 0 -4 -8 -6 -17 -6 -33 0 -44 -3
-40 -10 3 -5 -11 -9 -31 -10 -54 -4 -81 -8 -88 -16 -12 -12 -26 -8 -19 6 4 6
0 4 -8 -5 -10 -13 -16 -15 -25 -6 -9 9 -12 9 -12 0 0 -8 -10 -11 -25 -8 -16 3
-23 1 -19 -5 3 -6 -2 -10 -12 -9 -35 4 -45 0 -38 -12 5 -9 2 -9 -9 1 -9 7 -17
9 -17 4 0 -5 -11 -10 -25 -11 -57 -5 -65 -7 -65 -15 0 -4 -4 -5 -10 -2 -5 3
-18 1 -28 -4 -13 -7 -23 -6 -32 2 -10 10 -11 9 -5 -2 6 -11 4 -13 -9 -8 -9 4
-15 3 -12 -2 3 -5 -1 -12 -10 -15 -8 -3 -12 -2 -9 4 9 14 -9 12 -23 -2 -9 -9
-12 -9 -12 1 0 7 -5 9 -10 6 -6 -4 -8 -10 -5 -14 2 -5 -7 -6 -22 -3 -20 4 -24
2 -18 -9 7 -12 6 -12 -7 -1 -12 9 -18 10 -23 2 -4 -6 -14 -10 -23 -9 -29 2
-43 -1 -39 -8 3 -5 -6 -8 -19 -8 -13 0 -24 5 -24 10 0 6 -4 4 -8 -2 -4 -7 -17
-14 -27 -16 -11 -1 -26 -7 -34 -11 -11 -7 -12 -6 -6 5 8 12 6 12 -8 0 -10 -8
-20 -11 -24 -7 -3 3 -17 -1 -30 -9 -15 -10 -23 -12 -23 -4 0 8 -4 8 -14 0 -8
-7 -30 -13 -50 -14 -20 -1 -36 -4 -36 -7 0 -5 -23 -9 -72 -11 -10 0 -20 -5
-23 -10 -4 -5 -11 -7 -16 -4 -5 4 -9 0 -9 -7 0 -9 -3 -9 -10 2 -7 11 -10 11
-10 2 0 -7 -4 -11 -9 -7 -5 3 -12 1 -16 -5 -3 -5 -17 -7 -31 -4 -14 4 -24 2
-24 -5 0 -6 -7 -8 -17 -4 -12 5 -14 3 -8 -8 6 -11 5 -11 -4 -3 -15 14 -51 7
-51 -10 0 -6 -5 -4 -10 4 -6 10 -10 11 -10 3 0 -8 -11 -11 -30 -9 -18 2 -27
-1 -23 -7 4 -6 -4 -8 -21 -5 -14 3 -26 1 -26 -5 0 -6 -3 -7 -7 -4 -3 4 -13 1
-21 -6 -13 -10 -14 -9 -7 3 7 12 6 13 -7 3 -8 -7 -18 -10 -21 -6 -4 3 -7 2 -7
-4 0 -6 -9 -9 -22 -5 -16 4 -19 2 -13 -9 6 -11 5 -11 -5 -2 -15 14 -43 5 -33
-11 4 -6 -1 -5 -10 3 -9 7 -17 9 -17 4 0 -5 -8 -9 -17 -9 -10 0 -31 -3 -46 -7
-22 -6 -27 -5 -22 5 4 7 0 5 -8 -5 -9 -10 -18 -18 -21 -18 -30 4 -66 -1 -62
-7 3 -4 -8 -7 -25 -6 -16 1 -29 -3 -29 -9 0 -8 -3 -8 -11 0 -9 9 -17 8 -33 -1
-11 -7 -33 -12 -48 -11 -20 1 -25 -1 -18 -10 7 -8 2 -10 -19 -7 -16 2 -32 -1
-35 -7 -5 -8 -13 -8 -28 0 -16 9 -19 8 -13 -2 6 -9 2 -11 -13 -7 -12 4 -22 3
-22 -1 0 -4 -12 -8 -26 -9 -15 -1 -34 -8 -42 -15 -13 -9 -14 -9 -8 1 4 6 2 12
-3 12 -6 0 -11 -5 -11 -12 0 -6 -3 -8 -7 -5 -3 4 -13 1 -21 -6 -13 -10 -14 -9
-8 1 7 11 4 12 -11 3 -11 -6 -23 -7 -27 -4 -3 3 -6 2 -6 -4 0 -6 -9 -9 -20 -6
-11 3 -20 1 -20 -4 0 -6 -11 -9 -25 -8 -14 2 -25 -2 -25 -8 0 -7 -5 -5 -10 3
-7 11 -10 11 -10 2 0 -7 -4 -10 -10 -7 -5 3 -10 1 -10 -6 0 -8 -4 -8 -15 1
-12 10 -15 10 -15 0 0 -7 -7 -10 -15 -6 -8 3 -15 1 -15 -5 0 -6 -6 -9 -14 -6
-8 3 -17 3 -20 -1 -4 -3 -16 -7 -28 -9 -12 -2 -25 -7 -28 -11 -3 -5 -17 -8
-32 -7 -16 1 -28 -2 -28 -8 0 -5 -7 -7 -15 -4 -8 4 -17 2 -21 -4 -3 -6 -12 -8
-20 -5 -8 3 -14 0 -14 -6 0 -6 -3 -8 -7 -4 -4 3 -12 -6 -18 -21 -9 -20 -9 -30
-1 -35 8 -5 7 -8 -1 -8 -7 0 -10 -7 -6 -17 5 -12 3 -14 -8 -8 -10 6 -10 3 2
-11 27 -32 34 -48 18 -39 -11 6 -12 5 -2 -6 7 -7 13 -21 13 -32 0 -12 4 -16
13 -11 9 6 9 4 -1 -8 -9 -12 -10 -18 -2 -23 8 -5 7 -11 -2 -23 -11 -13 -11
-14 1 -7 11 6 13 3 9 -13 -4 -13 -2 -20 4 -16 6 4 8 -6 5 -24 -3 -17 -1 -32 4
-34 4 -2 9 -18 11 -35 1 -18 7 -33 13 -33 5 0 3 -5 -5 -10 -8 -5 -10 -10 -5
-10 6 0 12 -15 13 -32 2 -18 7 -35 13 -36 6 -3 6 -9 -1 -17 -8 -9 -8 -15 0
-20 6 -3 8 -11 5 -16 -4 -5 -2 -9 4 -9 5 0 8 -11 5 -25 -3 -16 0 -25 8 -25 9
0 8 -3 -2 -10 -12 -7 -12 -10 -1 -10 7 0 11 -6 7 -15 -3 -8 -1 -15 4 -15 6 0
10 -5 10 -11 0 -5 -6 -7 -12 -3 -9 5 -8 2 1 -9 8 -10 11 -20 8 -24 -4 -3 -2
-12 3 -19 6 -6 10 -16 9 -20 -4 -21 2 -45 9 -40 4 2 7 -8 6 -22 0 -15 2 -39 7
-54 5 -18 3 -29 -4 -32 -7 -2 -5 -5 4 -5 11 -1 16 -13 18 -43 1 -23 6 -47 11
-53 5 -6 7 -23 6 -38 -2 -15 1 -27 6 -27 6 0 8 -7 4 -15 -3 -8 -2 -15 2 -15 4
0 8 -15 9 -32 4 -52 6 -58 17 -58 6 0 4 -5 -4 -10 -12 -8 -12 -10 -1 -10 8 0
11 -7 8 -20 -3 -11 0 -20 6 -20 7 0 5 -5 -3 -10 -11 -7 -11 -10 -2 -10 7 0 11
-4 8 -9 -4 -5 0 -12 6 -15 10 -5 10 -7 0 -12 -10 -5 -10 -9 -1 -20 7 -8 13
-25 13 -38 1 -13 8 -31 15 -40 12 -14 11 -16 -5 -10 -18 5 -18 5 0 -10 11 -9
14 -16 8 -16 -9 0 -9 -8 2 -29 9 -16 12 -31 9 -34 -3 -4 0 -14 8 -24 9 -11 10
-14 1 -9 -6 4 -12 2 -12 -3 0 -6 5 -11 12 -11 6 0 8 -3 5 -7 -4 -3 -2 -12 4
-20 9 -10 8 -13 -1 -13 -10 0 -10 -3 0 -15 7 -8 9 -15 5 -15 -4 0 -2 -7 5 -15
6 -8 9 -19 5 -25 -3 -5 -1 -10 6 -10 8 0 8 -4 -1 -15 -10 -12 -10 -15 0 -15 7
0 10 -7 6 -15 -3 -8 0 -15 7 -15 8 0 6 -4 -3 -10 -11 -7 -11 -10 -2 -10 7 0
10 -4 7 -10 -3 -5 -2 -10 3 -10 5 0 8 -14 7 -30 -1 -17 1 -33 5 -35 5 -3 7
-16 5 -30 -1 -14 2 -25 8 -25 5 0 3 -8 -4 -17 -10 -11 -10 -14 -1 -9 12 7 16
-3 13 -36 -1 -10 3 -18 8 -18 6 0 11 -5 11 -11 0 -5 -6 -7 -13 -3 -8 5 -7 2 2
-9 8 -10 11 -20 7 -24 -3 -3 2 -15 11 -26 10 -11 13 -17 6 -14 -14 9 -12 -28
3 -58 6 -11 10 -37 10 -57 -1 -21 4 -38 10 -38 5 0 9 -13 8 -30 -1 -16 1 -30
4 -30 4 0 8 -17 10 -37 1 -20 8 -41 15 -45 9 -6 8 -8 -3 -8 -13 0 -13 -1 0
-10 8 -5 11 -10 6 -10 -5 0 -5 -6 0 -12 5 -7 9 -28 9 -45 0 -18 4 -34 10 -36
5 -3 10 -20 9 -38 -1 -19 4 -37 10 -41 7 -5 7 -8 -2 -8 -10 0 -9 -4 3 -16 13
-14 14 -19 3 -25 -9 -6 -9 -9 -1 -9 6 0 10 -9 8 -20 -2 -11 1 -20 7 -20 6 0 8
-3 5 -6 -3 -4 -2 -15 4 -25 8 -15 6 -18 -8 -13 -15 5 -16 4 -3 -5 8 -6 15 -22
15 -36 1 -14 7 -30 15 -35 12 -8 13 -10 1 -10 -11 0 -9 -5 5 -22 10 -12 13
-18 6 -14 -6 4 -12 2 -12 -3 0 -6 4 -11 8 -11 5 0 8 -10 7 -22 -1 -13 2 -29 8
-35 5 -7 6 -13 2 -13 -4 0 -1 -8 6 -17 11 -13 11 -15 1 -9 -10 6 -9 -1 3 -24
9 -18 12 -29 5 -25 -9 6 -9 2 -1 -14 7 -12 9 -26 6 -31 -3 -6 -2 -10 3 -10 8
0 12 -14 13 -52 0 -10 6 -18 12 -18 7 0 6 -4 -3 -10 -11 -7 -11 -10 -2 -10 10
0 10 -5 1 -21 -8 -15 -8 -19 0 -15 11 7 14 -1 14 -36 0 -10 5 -18 11 -18 6 0
4 -5 -4 -10 -11 -7 -11 -10 -2 -10 7 0 12 -8 11 -17 -1 -10 3 -29 8 -43 8 -18
7 -27 -1 -32 -7 -5 -6 -8 4 -8 9 0 15 -10 16 -27 1 -16 4 -41 8 -58 3 -16 7
-37 9 -45 1 -8 7 -21 11 -29 7 -10 5 -12 -5 -6 -11 6 -12 5 -1 -6 6 -7 12 -25
12 -40 0 -15 5 -31 10 -34 6 -4 7 -11 4 -17 -4 -6 0 -14 7 -19 11 -7 11 -9 1
-9 -10 0 -10 -5 -2 -20 6 -11 8 -20 4 -20 -3 0 0 -8 7 -17 12 -15 12 -16 -1
-8 -12 7 -13 6 -3 -7 7 -8 14 -27 15 -42 1 -14 6 -26 11 -26 5 0 4 -7 -3 -15
-11 -13 -8 -18 10 -17 3 0 5 -20 4 -44 0 -24 4 -44 9 -44 5 0 7 -7 3 -15 -3
-8 0 -15 6 -15 6 0 5 -6 -3 -17 -8 -9 -9 -14 -3 -10 12 7 28 -48 18 -64 -3 -5
0 -9 6 -9 6 0 8 -5 5 -10 -4 -6 -2 -16 3 -23 5 -7 10 -20 10 -29 1 -10 2 -29
3 -43 1 -13 5 -23 8 -21 4 3 8 -4 8 -15 1 -12 -3 -17 -10 -13 -7 3 -3 -2 7
-10 11 -9 15 -16 9 -16 -6 0 -9 -9 -6 -20 3 -11 10 -20 17 -20 6 0 4 -5 -4
-10 -11 -7 -11 -10 -2 -10 7 0 11 -4 7 -9 -3 -5 -1 -13 5 -16 8 -5 8 -11 1
-19 -8 -9 -7 -18 3 -31 8 -11 12 -25 9 -32 -3 -7 -1 -13 3 -13 5 0 9 -17 9
-38 0 -20 3 -42 7 -48 4 -6 10 -21 12 -35 3 -13 5 -24 6 -24 3 0 12 -60 11
-77 0 -10 5 -18 11 -18 6 0 5 -7 -3 -17 -10 -11 -10 -14 -1 -9 8 5 12 -2 13
-26 1 -18 1 -36 0 -40 0 -5 3 -8 8 -8 5 0 9 -10 10 -22 2 -56 6 -86 12 -82 4
2 7 -6 7 -19 2 -32 7 -55 15 -63 11 -11 8 -36 -3 -29 -5 3 -3 -7 5 -21 8 -15
12 -31 9 -36 -3 -4 -1 -8 4 -8 5 0 9 -7 9 -15 0 -8 -4 -15 -9 -15 -5 0 -3 -7
6 -15 8 -9 13 -22 10 -30 -4 -8 -2 -15 2 -15 5 0 10 -10 11 -22 5 -75 7 -88
15 -88 4 0 7 -3 7 -7 -5 -29 2 -53 14 -47 9 6 9 4 -1 -8 -8 -10 -9 -19 -3 -22
5 -3 7 -15 4 -26 -3 -13 1 -22 12 -26 13 -5 14 -9 4 -15 -10 -6 -10 -11 2 -25
9 -11 9 -15 1 -10 -6 4 -12 2 -12 -3 0 -6 5 -11 11 -11 6 0 9 -7 6 -15 -4 -8
-2 -17 3 -20 5 -3 6 -13 3 -22 -5 -12 -3 -14 8 -8 12 8 12 6 0 -8 -9 -11 -10
-17 -2 -17 6 0 10 -13 9 -29 -1 -16 3 -35 9 -43 5 -7 9 -23 8 -35 -1 -13 2
-23 6 -23 4 0 6 -11 4 -25 -1 -14 2 -28 6 -31 5 -3 9 -18 9 -33 0 -15 6 -33
12 -40 11 -11 10 -12 -1 -6 -10 6 -12 4 -5 -6 9 -15 13 -30 17 -71 1 -16 5
-28 9 -28 5 0 7 -3 7 -7 -1 -5 -1 -23 0 -41 1 -24 5 -31 14 -26 9 6 9 5 0 -7
-8 -10 -9 -19 -3 -25 5 -5 10 -24 12 -42 1 -17 5 -32 8 -32 3 0 6 -16 7 -36 1
-20 8 -43 15 -52 11 -13 11 -15 -2 -7 -12 6 -13 5 -2 -6 16 -17 16 -32 0 -23
-8 5 -7 0 2 -11 8 -10 14 -27 12 -38 -3 -13 0 -17 9 -12 7 5 10 4 7 -1 -3 -5
-2 -31 3 -59 5 -27 10 -56 11 -62 1 -7 4 -13 7 -13 3 0 6 -12 7 -27 1 -46 15
-108 25 -111 5 -2 4 -13 -2 -24 -7 -13 -7 -18 -1 -14 6 4 11 -2 11 -11 -1 -20
8 -68 18 -98 4 -11 6 -26 5 -32 -2 -7 1 -13 5 -13 5 0 9 -9 9 -20 0 -11 -4
-20 -9 -20 -5 0 -2 -7 6 -15 9 -8 14 -26 13 -40 -2 -14 0 -25 4 -25 7 0 19
-59 21 -102 0 -10 4 -20 9 -23 5 -3 7 -12 4 -20 -3 -8 -2 -20 2 -27 4 -7 8
-25 9 -41 1 -16 8 -33 16 -38 12 -7 12 -9 0 -9 -11 0 -12 -3 -4 -11 6 -6 9
-18 6 -25 -3 -8 -1 -14 4 -14 5 0 8 -13 7 -30 -1 -17 2 -30 6 -30 5 0 7 -9 5
-20 -2 -11 1 -22 6 -25 5 -4 7 -11 3 -16 -3 -5 0 -17 8 -26 7 -9 8 -14 2 -10
-6 3 -11 0 -11 -8 0 -8 4 -12 8 -10 4 3 9 -2 13 -10 3 -8 0 -15 -6 -15 -7 0
-7 -4 1 -14 6 -8 11 -18 10 -22 -1 -5 0 -11 1 -14 3 -8 12 -64 14 -85 0 -11 5
-23 9 -26 5 -4 9 -23 9 -43 0 -20 3 -36 8 -36 4 0 7 -8 7 -17 0 -52 4 -74 12
-69 5 4 8 -2 6 -11 -1 -10 2 -24 8 -30 6 -9 5 -13 -4 -13 -8 0 -6 -6 7 -16 10
-8 14 -13 7 -10 -7 4 -11 -1 -10 -14 1 -11 6 -20 12 -20 5 0 3 -5 -5 -10 -13
-8 -13 -10 2 -10 11 0 15 -6 11 -20 -3 -11 1 -28 8 -37 12 -15 12 -16 -1 -8
-13 8 -13 6 -2 -8 8 -9 11 -21 8 -26 -4 -5 -2 -13 4 -16 6 -4 8 -15 5 -26 -4
-10 -2 -19 4 -19 5 0 8 -9 6 -20 -2 -11 2 -20 8 -20 7 0 6 -4 -3 -10 -9 -6
-10 -10 -3 -10 6 0 10 -9 8 -20 -2 -11 -1 -20 3 -20 7 0 13 -31 14 -70 1 -8 4
-19 8 -25 4 -5 7 -22 6 -37 -1 -14 3 -24 8 -21 5 4 7 -3 4 -15 -3 -12 0 -26 6
-31 7 -6 12 -26 11 -46 -1 -19 1 -35 5 -35 4 0 6 -10 5 -22 -1 -13 5 -32 14
-42 9 -11 10 -16 4 -12 -7 4 -13 2 -13 -3 0 -6 4 -11 9 -11 4 0 7 -11 6 -25
-2 -14 0 -25 4 -25 4 0 7 -13 6 -30 -1 -16 2 -30 7 -30 5 0 8 -15 8 -32 0 -51
3 -68 12 -62 4 3 8 -13 8 -35 0 -24 5 -41 11 -41 8 0 8 -5 -1 -15 -9 -11 -9
-15 -1 -15 7 0 10 -4 6 -9 -3 -5 -1 -12 4 -16 6 -3 8 -12 5 -19 -3 -8 0 -17 6
-21 9 -6 9 -10 -1 -16 -11 -7 -11 -9 -1 -9 7 0 10 -4 7 -10 -3 -5 -2 -10 3
-10 5 0 7 -11 4 -25 -3 -17 0 -25 9 -25 11 0 11 -2 -1 -10 -12 -8 -12 -10 -1
-10 8 0 11 -3 8 -7 -4 -3 -2 -12 4 -20 9 -10 8 -13 -1 -13 -10 0 -10 -3 0 -15
11 -14 19 -51 23 -107 1 -10 5 -18 9 -18 4 0 6 -13 4 -30 -2 -17 3 -35 10 -41
10 -8 11 -15 4 -24 -8 -9 -8 -15 0 -20 5 -3 10 -19 10 -36 0 -16 4 -29 9 -29
4 0 7 -12 5 -27 -1 -15 2 -33 8 -40 6 -7 7 -13 3 -13 -4 0 -1 -8 6 -17 12 -14
12 -16 0 -8 -11 6 -12 5 -5 -6 4 -8 10 -21 12 -29 6 -31 11 -56 18 -95 4 -22
12 -46 18 -54 9 -12 8 -13 -4 -6 -13 8 -13 7 -1 -9 12 -14 12 -19 2 -25 -10
-6 -9 -10 4 -15 9 -3 15 -12 12 -20 -3 -8 -3 -17 1 -21 4 -3 7 -22 9 -42 1
-20 5 -39 10 -42 5 -3 8 -21 8 -38 -1 -18 3 -33 7 -33 5 0 7 -4 3 -9 -3 -5 -1
-13 5 -16 8 -5 8 -11 0 -20 -8 -9 -7 -14 5 -18 8 -4 12 -13 9 -22 -4 -8 0 -23
7 -32 10 -12 10 -15 2 -9 -7 4 -13 2 -13 -3 0 -6 4 -11 9 -11 5 0 8 -8 6 -17
-1 -10 4 -29 12 -42 12 -18 12 -22 2 -15 -11 6 -12 5 -2 -8 7 -8 10 -18 6 -21
-3 -4 0 -13 7 -22 10 -12 10 -15 0 -15 -10 0 -10 -3 0 -15 6 -8 9 -19 5 -25
-3 -5 -2 -10 2 -10 5 0 10 -17 11 -37 2 -21 6 -40 10 -43 4 -3 8 -16 9 -30 2
-38 8 -69 16 -76 4 -4 1 -14 -6 -22 -9 -13 -9 -14 1 -8 8 5 12 0 14 -16 1 -22
4 -37 8 -48 5 -14 11 -47 12 -67 0 -13 5 -23 10 -23 7 0 7 -4 0 -13 -7 -8 -6
-18 4 -31 7 -10 11 -22 9 -27 -3 -4 -1 -10 4 -13 5 -3 7 -15 4 -25 -3 -10 0
-22 5 -25 6 -3 8 -15 5 -26 -3 -13 0 -20 8 -20 11 0 11 -2 -1 -10 -8 -5 -10
-10 -5 -10 6 0 12 -17 13 -37 2 -21 6 -40 10 -43 4 -3 8 -14 8 -25 2 -46 4
-56 15 -49 8 5 8 1 0 -14 -7 -14 -8 -23 -1 -27 6 -4 8 -11 5 -16 -4 -5 0 -9 7
-9 9 0 9 -3 -2 -10 -10 -6 -11 -10 -2 -10 6 0 12 -5 12 -11 0 -5 -4 -7 -10 -4
-6 3 -7 -1 -4 -9 3 -9 11 -16 17 -16 6 0 8 -3 4 -6 -3 -3 -2 -17 3 -30 7 -17
6 -24 -2 -24 -7 0 -4 -6 7 -13 13 -10 15 -16 6 -21 -9 -6 -9 -11 -1 -21 7 -8
9 -19 5 -25 -3 -5 -1 -10 5 -10 6 0 8 -11 6 -25 -3 -14 0 -25 5 -25 5 0 9 -13
9 -29 0 -16 6 -32 13 -34 9 -4 9 -6 -1 -6 -10 -1 -10 -6 -2 -21 6 -11 8 -20 4
-20 -3 0 -1 -7 6 -15 10 -12 10 -15 -1 -15 -8 0 -6 -6 7 -16 10 -8 13 -12 5
-8 -11 6 -13 3 -7 -12 9 -23 17 -54 18 -71 1 -7 6 -13 12 -13 6 0 4 -5 -4 -10
-8 -5 -10 -10 -4 -10 6 0 11 -6 11 -12 1 -7 4 -31 8 -53 4 -22 8 -54 9 -72 0
-17 4 -29 7 -27 4 2 9 -3 12 -10 3 -8 1 -17 -6 -20 -9 -3 -8 -5 1 -5 7 -1 10
-5 7 -11 -3 -5 -1 -10 6 -10 7 0 4 -7 -7 -15 -14 -11 -15 -14 -2 -9 13 4 16 0
14 -20 -2 -14 1 -26 5 -26 5 0 8 -3 8 -7 -4 -27 3 -73 10 -69 5 4 8 -2 6 -11
-1 -10 3 -24 9 -32 9 -12 8 -13 -2 -7 -11 7 -12 4 -3 -13 7 -12 9 -26 6 -31
-3 -5 0 -12 6 -16 8 -4 7 -9 -2 -15 -8 -5 -9 -9 -3 -9 12 0 23 -44 36 -147 1
-7 4 -13 8 -13 3 0 7 -10 8 -22 3 -42 8 -68 15 -74 4 -4 1 -14 -6 -22 -9 -13
-9 -14 1 -8 8 5 12 1 13 -11 0 -10 3 -27 5 -38 3 -11 8 -39 11 -62 3 -24 9
-43 13 -43 4 0 6 -13 5 -30 -1 -16 2 -30 6 -30 4 0 8 -8 7 -17 -1 -35 14 -98
26 -105 7 -5 6 -8 -4 -8 -9 0 -11 -3 -5 -8 11 -8 14 -17 18 -60 2 -15 7 -33
11 -40 4 -7 2 -12 -6 -12 -10 0 -10 -2 1 -9 8 -5 10 -14 6 -21 -5 -9 -4 -11 3
-6 8 5 11 -2 8 -23 -2 -17 1 -32 6 -33 5 -2 10 -18 10 -35 1 -21 5 -30 12 -26
6 4 5 0 -2 -9 -8 -10 -9 -19 -3 -22 5 -4 10 -14 10 -24 0 -16 7 -54 11 -59 2
-2 3 -6 4 -10 1 -5 5 -14 9 -21 5 -7 3 -12 -4 -12 -9 0 -9 -3 0 -14 6 -8 11
-18 10 -22 -1 -5 0 -13 1 -19 1 -5 3 -14 5 -20 1 -5 3 -20 3 -33 2 -16 6 -21
15 -16 8 5 8 2 -2 -9 -7 -10 -9 -17 -3 -17 6 0 9 -11 7 -25 -1 -14 1 -25 6
-25 5 0 5 -7 2 -17 -4 -9 -2 -14 3 -11 5 4 10 -10 11 -30 6 -83 7 -91 15 -86
7 4 12 -39 11 -83 -1 -7 3 -13 7 -13 4 0 7 -13 6 -29 -1 -17 2 -27 8 -24 5 4
7 -3 4 -15 -4 -12 -2 -22 2 -22 5 0 7 -11 5 -25 -1 -14 1 -25 5 -25 5 0 7 -11
5 -25 -1 -14 1 -25 4 -25 6 0 10 -20 11 -63 1 -11 6 -15 13 -10 9 5 9 3 0 -8
-10 -12 -10 -18 -1 -27 7 -7 8 -12 3 -12 -4 0 0 -10 11 -22 10 -12 14 -18 7
-15 -8 5 -11 0 -10 -13 1 -11 5 -20 9 -20 4 0 5 -9 3 -20 -2 -11 1 -22 6 -25
5 -4 7 -11 3 -16 -3 -5 0 -17 7 -25 6 -8 9 -17 6 -21 -4 -3 -2 -14 3 -24 7
-12 6 -19 -3 -22 -9 -4 -9 -6 1 -6 7 -1 10 -5 7 -11 -3 -5 -3 -10 2 -10 7 0
13 -34 16 -92 1 -10 5 -18 9 -18 4 0 7 -3 7 -7 -4 -23 2 -64 8 -60 5 3 9 -11
10 -31 4 -72 8 -97 17 -104 5 -3 9 -20 8 -37 0 -17 3 -31 8 -31 4 0 8 -16 8
-36 0 -20 6 -40 14 -45 7 -5 8 -9 2 -9 -11 0 4 -82 18 -96 4 -4 3 -16 -3 -27
-8 -14 -8 -18 0 -13 10 7 14 -11 14 -66 0 -10 3 -15 7 -13 4 3 10 -12 13 -33
9 -68 14 -89 22 -102 6 -9 4 -11 -6 -5 -11 7 -12 6 -2 -7 7 -8 10 -18 6 -21
-3 -4 -2 -7 3 -7 6 0 11 -11 12 -25 1 -14 3 -36 4 -50 1 -14 5 -25 8 -25 4 0
7 -14 8 -32 0 -17 6 -34 13 -38 8 -6 8 -9 -2 -13 -10 -4 -11 -8 -3 -14 11 -8
14 -19 17 -73 1 -16 5 -30 10 -30 4 0 7 -13 7 -29 0 -17 5 -33 10 -36 8 -5 8
-11 0 -20 -8 -10 -8 -15 0 -20 6 -4 9 -13 6 -21 -3 -8 -2 -14 3 -14 4 0 8 -6
8 -12 1 -7 4 -31 8 -53 3 -22 7 -46 7 -52 1 -7 4 -13 8 -13 3 0 6 -8 7 -17 1
-10 4 -34 8 -53 3 -19 7 -46 9 -58 1 -13 9 -28 17 -33 8 -5 9 -9 3 -9 -6 0
-11 -7 -11 -15 0 -8 5 -15 10 -15 5 0 3 -8 -4 -17 -10 -11 -10 -14 -1 -9 12 7
17 -9 14 -46 -1 -10 2 -18 7 -18 4 0 7 -18 7 -39 -1 -22 3 -39 7 -38 5 1 11
-6 12 -16 2 -9 -2 -17 -8 -17 -9 0 -9 -2 -1 -8 7 -4 15 -23 18 -42 3 -19 8
-46 12 -60 3 -14 6 -33 6 -43 -1 -9 3 -17 9 -17 5 0 9 -5 9 -11 0 -5 -4 -8
-10 -4 -5 3 -3 -6 5 -21 7 -15 11 -33 8 -40 -3 -8 -1 -14 4 -14 5 0 8 -14 7
-30 -1 -17 2 -33 7 -36 5 -3 7 -9 4 -14 -3 -5 -1 -12 5 -15 8 -5 8 -11 0 -20
-7 -9 -6 -16 4 -24 8 -7 12 -19 9 -28 -3 -8 0 -19 8 -24 12 -7 12 -9 -1 -9
-11 0 -12 -2 -3 -8 7 -4 13 -24 15 -45 1 -20 6 -37 11 -37 5 0 5 -6 -2 -13 -7
-9 -7 -17 -1 -23 6 -6 11 -22 12 -37 1 -15 5 -27 8 -27 3 0 6 -8 7 -17 2 -50
8 -83 14 -83 4 0 6 -18 5 -39 0 -22 3 -37 8 -33 5 3 7 -5 4 -16 -4 -12 -2 -22
4 -22 6 0 7 -7 4 -16 -5 -12 -2 -15 10 -10 14 5 15 4 4 -9 -10 -12 -10 -18 1
-32 8 -9 9 -14 3 -10 -6 3 -11 0 -11 -8 0 -8 4 -12 9 -9 7 4 13 -43 9 -68 0
-5 3 -8 8 -8 5 0 7 -10 3 -22 -4 -16 -2 -19 9 -13 12 8 12 6 0 -8 -9 -12 -10
-17 -2 -17 7 0 9 -4 6 -10 -3 -5 0 -10 7 -10 10 0 10 -2 0 -9 -16 -10 -17 -21
-3 -30 6 -4 11 -21 13 -39 1 -18 5 -32 8 -32 4 0 6 -10 5 -23 -1 -12 2 -30 7
-40 6 -12 5 -17 -4 -17 -9 0 -9 -3 2 -10 8 -5 16 -18 16 -30 1 -11 3 -21 4
-22 1 -2 3 -14 4 -28 1 -14 5 -30 9 -37 4 -7 8 -28 9 -48 1 -19 5 -35 10 -35
5 0 8 -6 7 -12 -4 -36 2 -69 12 -62 8 4 8 0 0 -15 -8 -14 -8 -21 -1 -21 5 0 9
-3 9 -7 -1 -5 -1 -21 0 -36 1 -20 5 -26 13 -21 9 5 9 2 -1 -9 -7 -9 -9 -17 -4
-17 10 0 10 -2 14 -57 1 -18 5 -30 10 -28 9 6 6 -16 -5 -34 -6 -10 -5 -12 2
-7 11 6 18 -19 13 -46 0 -5 3 -8 8 -8 6 0 8 -9 6 -20 -2 -11 2 -20 8 -20 7 0
6 -4 -3 -10 -8 -5 -10 -10 -5 -10 6 0 11 -10 12 -23 2 -21 9 -56 13 -67 1 -3
1 -13 0 -24 -1 -10 3 -16 8 -12 5 3 8 -10 7 -30 -1 -19 2 -37 7 -40 5 -3 6
-10 3 -15 -4 -5 -2 -9 2 -9 5 0 10 -21 11 -48 3 -67 4 -72 14 -66 4 3 8 -13 8
-35 0 -23 5 -41 10 -41 7 0 8 -6 2 -16 -6 -11 -5 -25 4 -42 7 -13 10 -31 7
-38 -3 -8 -1 -14 4 -14 10 0 11 -7 14 -65 0 -19 4 -35 8 -35 4 0 8 -14 9 -32
2 -17 8 -38 14 -45 6 -7 8 -16 4 -20 -3 -3 -6 0 -6 7 0 7 -3 10 -6 7 -4 -4 -2
-13 4 -20 6 -7 12 -28 14 -45 1 -18 7 -32 13 -32 5 0 3 -5 -5 -10 -11 -7 -11
-10 -2 -10 7 0 10 -4 7 -10 -3 -5 0 -10 7 -10 9 0 9 -3 -2 -10 -9 -6 -11 -10
-3 -10 7 0 10 -6 7 -14 -3 -8 -1 -24 5 -35 8 -14 8 -22 0 -26 -6 -4 -8 -13 -5
-20 2 -7 -1 -18 -7 -25 -9 -10 -9 -11 2 -5 10 6 11 2 6 -15 -6 -17 -4 -21 6
-14 11 6 11 4 0 -10 -16 -19 -21 -75 -8 -83 4 -3 2 -12 -4 -20 -14 -16 -20
-53 -9 -53 4 0 7 -7 7 -15 0 -8 -3 -12 -6 -10 -11 6 -9 -80 1 -93 8 -9 7 -11
-7 -6 -15 6 -16 4 -6 -14 7 -12 8 -22 3 -22 -4 0 -8 -9 -9 -20 -1 -13 2 -18
10 -13 9 5 9 3 1 -8 -5 -8 -10 -25 -9 -39 0 -14 -4 -28 -10 -32 -6 -5 -5 -8 3
-8 8 0 10 -5 5 -12 -12 -21 -12 -38 0 -38 9 0 9 -2 1 -8 -11 -7 -12 -13 -15
-77 0 -19 -5 -38 -10 -41 -5 -3 -6 -11 -2 -17 11 -18 14 -49 5 -43 -5 3 -9 -1
-9 -9 0 -8 4 -15 9 -15 5 0 6 -5 2 -12 -4 -6 -8 -29 -9 -50 -1 -21 -5 -41 -8
-44 -4 -4 -2 -15 4 -25 7 -14 6 -19 -2 -19 -8 0 -8 -4 1 -15 7 -8 8 -15 3 -15
-5 0 -9 -10 -8 -23 1 -12 -2 -28 -8 -34 -6 -9 -6 -13 3 -13 9 0 10 -3 1 -13
-8 -10 -7 -17 1 -25 9 -9 9 -12 0 -12 -8 0 -11 -10 -8 -25 3 -15 0 -25 -7 -25
-7 0 -7 -4 2 -9 10 -7 12 -14 5 -23 -5 -7 -9 -26 -8 -43 1 -16 -3 -38 -8 -49
-7 -14 -7 -16 2 -11 9 6 9 2 1 -14 -7 -11 -8 -21 -3 -21 5 0 9 -7 9 -15 0 -8
-4 -12 -8 -9 -4 2 -6 -16 -4 -41 2 -28 -1 -43 -7 -39 -6 4 -5 -3 1 -15 7 -11
8 -21 3 -21 -6 0 -8 -15 -7 -33 2 -17 -2 -38 -9 -46 -8 -12 -8 -13 2 -7 6 4
12 2 12 -3 0 -6 -6 -11 -12 -11 -8 0 -9 -3 -3 -8 11 -8 17 -44 6 -38 -3 2 -7
-30 -9 -72 -1 -42 -6 -78 -11 -80 -6 -2 -7 -12 0 -28 11 -30 11 -37 2 -31 -5
3 -9 -6 -9 -19 -1 -13 2 -24 8 -24 5 0 6 -6 1 -12 -12 -21 -12 -38 0 -38 7 0
7 -4 -2 -9 -8 -5 -11 -16 -8 -25 4 -9 1 -16 -6 -16 -8 0 -6 -4 3 -10 8 -5 10
-10 5 -10 -6 0 -10 -17 -9 -37 0 -21 -3 -43 -8 -50 -5 -7 -5 -14 1 -17 7 -5 7
-15 1 -32 -13 -32 -12 -37 1 -28 7 4 7 -1 -1 -15 -6 -12 -10 -38 -9 -56 2 -19
0 -37 -3 -40 -4 -4 -3 -18 3 -32 6 -17 6 -22 -2 -18 -7 5 -9 -3 -6 -24 3 -17
1 -31 -4 -31 -6 0 -6 -7 0 -19 6 -10 7 -21 4 -25 -11 -11 -11 -76 -1 -70 6 4
5 -3 -2 -16 -6 -12 -8 -29 -4 -38 4 -9 7 -20 6 -24 -1 -3 6 -12 15 -20 14 -11
16 -11 8 2 -6 12 -5 13 6 3 7 -8 40 -13 77 -13 47 0 62 -3 57 -13 -4 -6 0 -4
8 5 8 10 17 15 20 12 9 -10 107 -10 107 -1 0 5 5 5 11 1 6 -4 63 -6 125 -5 85
1 114 -2 114 -12 0 -9 2 -9 8 0 4 7 37 11 90 11 80 0 87 -3 83 -35 -1 -6 3
-14 9 -18 5 -3 10 -11 10 -16 0 -6 -6 -7 -12 -3 -10 6 -10 4 0 -8 7 -9 15 -29
17 -45 2 -15 4 -28 5 -28 1 0 4 -16 7 -35 2 -19 9 -38 15 -41 7 -4 6 -9 -1
-14 -8 -4 -9 -11 -3 -18 6 -7 12 -28 15 -47 4 -19 10 -52 15 -72 5 -20 7 -39
4 -42 -3 -4 1 -6 9 -6 11 0 11 -2 -1 -10 -12 -7 -12 -10 -1 -10 7 0 11 -6 8
-15 -4 -8 -2 -17 3 -20 5 -3 8 -18 6 -34 -2 -15 3 -36 10 -46 7 -10 11 -22 8
-27 -3 -5 0 -16 8 -25 11 -14 11 -16 -1 -8 -11 6 -12 5 -5 -6 5 -8 10 -25 12
-39 2 -13 8 -28 14 -31 7 -4 7 -9 -1 -13 -6 -4 -8 -13 -4 -19 4 -7 9 -21 10
-31 2 -11 9 -26 16 -35 10 -12 9 -13 -3 -6 -12 7 -13 6 -3 -6 10 -12 10 -18 0
-29 -9 -10 -9 -11 1 -6 8 5 12 0 13 -13 2 -21 5 -37 9 -46 1 -3 3 -8 4 -12 1
-5 5 -14 10 -22 7 -10 6 -12 -4 -6 -10 6 -12 4 -6 -11 4 -10 8 -23 9 -29 1 -5
7 -13 12 -17 6 -5 4 -12 -5 -18 -12 -7 -12 -10 -1 -10 7 0 11 -6 8 -14 -3 -8
-3 -17 1 -20 3 -4 7 -12 8 -19 2 -7 6 -23 10 -36 6 -19 4 -23 -7 -17 -8 4 -6
1 3 -7 10 -8 15 -17 11 -20 -3 -4 0 -14 8 -24 12 -15 12 -16 -1 -8 -13 8 -13
7 -1 -8 7 -9 10 -17 6 -17 -4 0 -1 -8 6 -17 12 -15 12 -16 -1 -8 -12 7 -13 6
-4 -6 6 -8 12 -22 13 -31 1 -10 2 -27 3 -38 1 -11 5 -20 9 -20 3 0 5 -11 4
-25 -2 -14 1 -25 5 -25 5 0 7 -9 5 -20 -2 -11 0 -22 5 -25 5 -3 7 -14 5 -25
-2 -11 0 -20 5 -20 10 0 8 -19 -4 -39 -6 -10 -5 -12 2 -7 11 6 17 -12 13 -36
0 -5 5 -8 11 -8 9 0 8 -4 -2 -10 -10 -6 -11 -10 -2 -10 7 0 12 -15 12 -41 0
-23 4 -38 10 -34 5 3 8 -7 5 -25 -2 -16 0 -30 4 -30 4 0 8 -7 8 -15 0 -8 -5
-15 -11 -15 -6 0 -5 -4 2 -8 7 -5 15 -22 18 -38 3 -16 8 -38 11 -49 9 -25 10
-32 11 -73 2 -24 6 -31 14 -26 9 5 9 2 -1 -9 -7 -9 -9 -17 -4 -17 5 0 10 -15
12 -32 4 -39 9 -71 11 -78 1 -3 2 -8 1 -12 0 -5 5 -8 11 -8 9 0 8 -4 -2 -10
-9 -6 -11 -10 -3 -10 7 0 10 -7 7 -15 -4 -9 0 -15 7 -15 11 0 11 -3 -1 -10
-10 -6 -11 -10 -2 -10 6 0 11 -3 11 -7 -1 -5 -1 -21 0 -36 1 -20 5 -26 13 -21
10 6 10 4 0 -8 -9 -11 -10 -18 -2 -23 6 -3 7 -11 4 -17 -4 -6 0 -14 7 -19 11
-7 11 -9 1 -9 -9 0 -10 -5 -3 -19 6 -10 7 -21 4 -25 -3 -3 -1 -6 5 -6 6 0 10
-12 8 -27 -1 -16 5 -39 13 -53 10 -15 11 -21 3 -16 -9 5 -10 2 -3 -16 19 -47
24 -64 27 -100 2 -21 8 -47 15 -59 8 -16 8 -20 -1 -14 -9 6 -9 2 -1 -14 7 -11
9 -21 5 -21 -3 0 -1 -6 5 -13 6 -8 8 -17 4 -20 -3 -4 0 -14 8 -24 12 -15 12
-16 -1 -8 -13 7 -13 6 -2 -7 7 -9 11 -22 10 -29 -2 -8 2 -13 9 -12 12 3 10
-27 -2 -47 -3 -6 -2 -10 2 -10 5 0 10 -12 11 -26 1 -15 8 -34 15 -42 9 -13 9
-14 0 -8 -7 4 -13 2 -13 -3 0 -6 5 -11 11 -11 6 0 9 -6 6 -14 -3 -8 -3 -17 1
-21 4 -4 8 -15 8 -26 1 -10 3 -20 4 -21 2 -3 8 -43 13 -90 1 -9 6 -14 11 -11
5 4 7 -3 4 -15 -4 -12 -3 -22 1 -22 4 0 7 -13 6 -30 -1 -16 2 -30 7 -30 5 0 8
-13 6 -29 -1 -16 4 -37 12 -47 13 -16 13 -17 0 -9 -12 7 -13 6 -3 -7 7 -8 10
-18 6 -21 -3 -4 0 -7 8 -7 11 0 11 -2 -1 -10 -9 -6 -10 -10 -3 -10 6 0 10 -9
8 -20 -2 -11 0 -20 5 -20 5 0 8 -15 6 -34 -1 -19 1 -33 5 -30 4 2 10 -3 13
-12 4 -10 2 -13 -7 -8 -9 5 -9 4 0 -7 7 -7 13 -23 13 -36 0 -13 4 -23 9 -23
11 0 9 -19 -3 -39 -6 -10 -5 -12 2 -7 7 4 12 4 13 -1 3 -31 11 -58 18 -61 5
-2 7 -12 4 -22 -3 -12 0 -20 7 -20 7 0 10 -6 7 -14 -3 -7 1 -25 8 -40 8 -15
10 -28 4 -31 -5 -4 -3 -12 4 -19 6 -8 15 -12 19 -10 3 2 4 -5 1 -15 -5 -20 10
-23 36 -7 10 7 12 5 6 -3 -6 -10 -3 -11 14 -2 11 7 21 10 21 7 0 -3 16 2 35
10 19 8 35 11 35 8 0 -4 6 -2 13 3 6 6 20 9 30 8 9 -2 17 1 17 7 0 6 7 7 16 4
8 -3 12 -2 9 4 -3 6 -2 10 4 10 5 0 13 -5 16 -10 5 -8 11 -7 21 1 8 6 23 9 34
6 12 -3 18 -1 14 5 -3 5 2 9 12 7 11 -1 30 3 44 8 14 6 29 9 33 6 4 -3 15 1
24 9 14 11 16 11 8 -2 -7 -12 -6 -13 6 -4 8 6 23 11 34 12 34 3 54 8 61 15 4
4 13 2 21 -4 10 -9 13 -8 13 4 0 11 5 14 16 10 9 -3 20 0 25 8 5 8 9 9 9 3 0
-6 7 -11 15 -11 8 0 12 4 9 9 -4 7 25 11 52 7 4 0 11 5 15 13 7 10 9 10 9 -2
0 -10 3 -11 8 -4 4 7 25 15 47 19 63 11 64 11 71 17 3 4 12 4 20 1 8 -3 14 1
14 8 0 11 3 11 10 -1 7 -10 10 -11 10 -2 0 8 9 11 25 8 14 -3 25 0 25 6 0 5 7
8 15 5 8 -4 17 -2 20 4 4 5 11 6 17 3 6 -4 14 0 19 7 7 12 9 12 9 0 0 -11 4
-9 15 5 10 13 14 14 15 5 0 -10 3 -11 13 -2 10 8 17 7 25 -1 8 -8 13 -7 17 4
4 10 14 14 26 11 10 -3 19 -1 19 5 0 6 13 9 30 7 17 -2 30 1 30 6 0 6 4 8 9 4
5 -3 13 -1 16 5 5 8 11 8 20 0 10 -8 16 -7 24 7 8 14 11 15 11 3 0 -12 4 -10
15 4 14 18 20 15 16 -8 -1 -5 5 -4 13 3 9 7 14 16 11 20 -2 4 10 5 27 3 24 -4
29 -2 23 9 -7 11 -6 12 6 2 12 -10 18 -10 29 0 10 10 11 9 5 -3 -8 -13 -6 -13
8 -2 9 8 21 11 27 7 5 -3 10 -1 10 4 0 6 5 11 11 11 5 0 7 -6 3 -12 -4 -7 2
-5 13 5 16 14 22 15 26 5 4 -11 6 -11 6 0 1 7 6 10 11 7 6 -3 10 -1 10 6 0 8
4 8 13 1 8 -7 18 -6 31 3 10 8 25 11 34 8 9 -4 13 -2 9 3 -3 6 8 9 28 8 20 -2
38 3 46 12 8 10 15 11 24 4 9 -8 15 -8 20 0 3 6 11 8 16 5 5 -4 9 -2 9 3 0 12
32 12 48 -1 9 -7 11 -6 7 5 -5 11 1 14 24 13 17 -1 28 2 24 8 -3 5 3 6 16 2
14 -4 21 -2 21 7 0 10 3 9 10 -2 8 -12 10 -12 10 -1 0 8 7 11 20 8 11 -3 20
-2 20 3 0 4 10 7 23 6 12 -1 28 5 34 14 11 13 14 13 24 0 8 -11 12 -12 16 -2
2 6 15 12 28 12 13 0 27 5 30 10 4 7 12 7 25 0 13 -7 21 -5 31 6 10 12 14 12
20 2 7 -10 9 -10 9 1 0 7 6 11 15 7 10 -3 15 1 15 11 0 15 2 15 13 -1 12 -16
15 -17 20 -3 3 8 14 14 24 13 10 -2 21 2 25 8 5 7 8 7 8 -3 0 -11 3 -11 15 -1
8 6 19 9 25 5 5 -3 10 -1 10 4 0 6 7 11 15 11 8 0 15 -5 15 -12 0 -6 6 -4 13
7 8 10 18 15 24 12 5 -3 20 -1 34 6 28 14 49 15 68 3 10 -6 12 -5 7 2 -4 7 -1
12 9 12 10 0 13 5 9 13 -6 9 -4 9 8 -1 10 -8 18 -9 22 -3 4 6 14 7 23 4 9 -4
14 -2 10 3 -3 6 8 9 26 9 18 -1 38 6 45 14 11 14 11 14 6 -2 -6 -17 -5 -17 27
0 19 11 46 18 62 17 15 -2 27 1 27 5 0 5 11 7 25 6 14 -2 25 0 25 4 0 6 9 8
65 12 14 1 28 5 31 10 2 4 12 5 21 2 11 -5 14 -3 8 6 -6 10 -3 11 14 2 18 -10
21 -9 21 6 0 15 2 16 10 3 8 -12 10 -12 10 -1 0 10 3 11 14 2 11 -9 16 -9 22
0 5 8 3 9 -6 4 -8 -5 -11 -4 -7 3 4 5 16 8 28 5 12 -4 25 0 30 8 7 12 9 12 9
0 0 -11 3 -11 15 -1 12 10 15 10 15 -1 1 -10 4 -9 10 3 6 10 19 15 30 13 11
-2 20 0 20 4 0 4 16 7 35 6 19 -1 35 3 35 8 0 5 7 7 15 4 8 -4 17 -1 21 5 4 7
9 6 15 -3 7 -11 9 -11 9 -1 0 7 5 10 10 7 6 -3 10 -1 10 5 0 6 5 8 10 5 6 -3
10 -1 10 4 0 6 5 11 11 11 5 0 8 -4 4 -10 -6 -10 47 4 80 22 13 8 20 8 23 0 2
-6 10 -8 18 -5 7 3 11 10 8 15 -4 6 2 5 14 -1 15 -8 21 -8 24 1 2 6 16 12 31
14 18 2 25 -1 21 -9 -3 -7 2 -3 10 7 12 15 16 16 16 5 0 -11 2 -12 9 0 6 8 16
11 31 6 17 -5 20 -4 15 5 -6 9 0 12 23 8 19 -3 29 -1 25 6 -4 5 1 7 10 3 10
-3 17 -2 17 3 0 5 7 7 15 4 8 -4 15 -1 15 6 0 10 3 10 15 0 12 -10 15 -10 15
0 0 7 7 10 15 7 8 -4 17 -2 20 3 3 5 17 6 31 4 21 -4 25 -2 20 11 -4 11 -2 14
6 8 18 -10 48 -11 54 -1 3 4 10 6 15 3 5 -4 9 -1 9 5 0 6 4 8 10 5 5 -3 19 -1
31 6 15 7 19 8 15 0 -5 -7 -1 -9 8 -5 9 3 16 11 16 17 0 7 4 7 12 -1 14 -14
32 -16 24 -3 -3 5 1 11 9 15 8 3 15 0 15 -6 0 -7 4 -7 13 1 8 6 17 8 20 4 4
-3 7 -1 7 7 0 10 4 10 17 -1 14 -12 16 -12 8 0 -6 11 -4 13 8 8 9 -3 19 -2 22
3 3 5 12 7 20 3 8 -3 15 0 15 7 0 10 3 10 15 0 11 -9 15 -9 15 -1 0 7 4 9 10
6 5 -3 10 -2 10 3 0 12 32 12 48 -1 9 -7 11 -5 5 9 -6 16 -4 17 9 6 13 -10 17
-10 22 5 6 15 8 15 16 3 6 -8 10 -10 10 -4 0 10 13 14 53 15 9 0 15 4 13 8 -7
10 25 7 43 -4 10 -5 12 -4 7 3 -7 11 -2 13 42 15 9 1 20 7 24 13 5 7 17 10 29
7 12 -4 25 0 30 8 7 11 9 11 9 1 0 -7 4 -10 10 -7 11 7 47 16 68 17 6 1 12 6
12 12 0 7 3 7 8 1 9 -12 44 -16 36 -4 -6 10 -3 10 36 13 14 0 30 4 35 7 6 3
26 6 45 8 19 1 39 6 44 11 5 5 15 6 22 3 8 -3 14 1 14 8 0 11 3 11 10 -1 6
-10 10 -11 10 -2 0 16 27 16 33 0 3 -7 6 -4 6 6 1 11 4 16 8 13 3 -4 13 -1 21
6 11 8 13 8 9 0 -8 -13 30 -6 51 10 8 6 12 5 12 -4 0 -8 6 -6 16 7 8 10 12 12
8 4 -7 -13 -5 -13 9 -1 9 7 17 10 17 6 0 -4 6 -3 13 2 6 5 22 8 35 7 12 0 22
2 22 5 0 4 8 7 18 7 9 1 26 4 37 8 16 6 17 6 5 -3 -9 -7 -10 -11 -3 -11 6 0
15 5 18 11 4 6 13 8 21 5 8 -3 14 -1 14 3 0 5 11 8 25 7 13 -2 22 0 20 5 -3 4
3 7 12 7 26 -1 47 5 55 17 5 6 8 5 8 -3 0 -10 5 -10 20 -2 11 6 25 8 30 5 6
-3 10 -1 10 6 0 8 4 8 15 -1 13 -11 14 -10 8 6 -6 17 -5 17 10 5 9 -7 17 -9
17 -4 0 5 6 10 13 11 22 2 42 7 56 16 10 7 12 5 6 -3 -6 -10 -3 -11 13 -2 11
6 32 11 46 11 13 0 27 6 29 13 4 9 6 8 6 -2 1 -10 4 -11 14 -3 7 6 28 13 47
15 19 2 42 7 50 10 8 4 31 8 50 10 19 3 43 8 53 12 10 4 20 5 24 2 3 -3 12 1
21 9 11 12 17 13 23 3 5 -9 11 -8 24 4 18 19 30 23 20 7 -3 -5 -1 -10 4 -10 6
0 11 4 11 9 0 5 7 12 16 15 8 3 13 2 10 -2 -3 -5 1 -9 9 -9 8 0 11 5 8 10 -4
6 0 8 10 4 10 -4 17 -1 17 6 0 8 4 6 10 -3 7 -11 10 -11 10 -2 0 7 5 10 10 7
6 -4 16 -2 23 4 7 5 22 9 32 7 11 -2 30 3 42 11 17 11 22 12 26 1 4 -9 6 -10
6 -1 1 7 8 10 16 7 9 -4 15 0 15 7 0 11 3 11 10 -1 5 -8 10 -10 10 -4 0 16 38
25 44 10 3 -7 5 -7 5 2 1 7 6 10 11 7 6 -3 10 0 10 7 0 9 3 9 10 -2 6 -9 10
-11 10 -3 0 7 7 10 17 6 12 -5 14 -3 8 8 -6 11 -5 11 5 2 13 -12 43 -7 35 6
-2 4 14 7 35 6 22 -1 36 3 33 8 -3 5 3 6 16 2 11 -3 21 -2 21 3 0 6 9 8 20 5
13 -3 20 0 20 8 0 11 2 11 10 -1 7 -12 10 -12 10 -1 0 7 6 11 15 8 8 -4 17 -2
20 3 3 5 14 7 25 5 11 -2 20 -1 20 3 0 4 16 8 36 9 20 0 40 7 45 14 7 12 9 11
9 -1 0 -9 3 -11 8 -5 4 6 14 10 22 10 8 0 21 6 28 15 8 8 11 9 7 2 -4 -7 0
-12 9 -12 9 0 16 4 16 8 0 4 16 8 36 9 20 0 40 7 45 14 7 12 9 11 9 -1 0 -9 3
-11 8 -5 4 6 21 12 37 14 17 1 33 8 37 15 5 7 8 7 8 -3 0 -11 5 -9 22 5 12 10
18 13 14 6 -6 -10 -1 -11 21 -6 15 4 31 11 34 17 4 5 9 3 12 -4 4 -11 6 -11 6
-1 1 7 6 10 11 7 6 -3 10 0 10 7 0 9 3 9 10 -2 7 -11 10 -11 10 -2 0 7 4 11 9
8 5 -4 12 0 14 6 4 10 6 9 6 -1 1 -11 4 -11 16 -1 12 10 15 10 15 -1 0 -11 2
-11 9 -1 4 7 19 14 32 15 13 0 27 6 32 12 4 6 10 5 17 -5 7 -12 10 -12 10 -1
0 7 6 11 15 7 8 -3 15 -1 15 5 0 6 7 9 15 6 8 -4 17 -1 21 5 4 7 9 6 15 -3 6
-10 9 -11 9 -1 0 7 14 12 35 12 19 0 35 5 35 11 0 5 5 7 10 4 6 -4 16 -3 23 2
7 5 24 9 40 8 15 0 27 3 27 7 0 4 7 4 17 1 11 -5 14 -3 8 6 -6 10 -3 11 12 2
15 -7 25 -6 41 5 12 8 27 12 32 9 6 -3 10 -2 10 4 0 6 7 8 15 5 8 -3 19 -2 26
2 12 7 48 13 96 17 12 0 20 4 17 8 -2 4 4 8 13 8 35 1 68 7 81 14 6 5 17 5 22
2 6 -3 10 -1 10 6 0 8 4 8 15 -1 12 -10 15 -10 15 0 0 7 8 10 20 7 11 -3 23
-1 26 4 3 5 9 7 14 4 5 -3 13 3 19 12 6 10 11 13 11 7 0 -12 30 -15 30 -2 0 4
7 8 16 8 9 0 13 -5 9 -12 -4 -7 -1 -6 7 3 7 9 19 14 26 12 6 -3 12 0 12 5 0 5
11 8 25 7 14 -2 25 2 26 8 0 7 4 3 9 -8 8 -18 9 -19 9 -1 1 11 6 16 15 13 8
-3 17 -1 20 6 3 9 5 9 5 0 1 -6 10 -9 21 -6 11 3 18 9 15 13 -2 4 7 5 22 2 20
-4 24 -2 18 9 -8 12 -6 12 8 0 13 -10 17 -10 17 -1 0 7 7 10 15 6 8 -3 15 -2
15 3 0 4 12 6 26 3 21 -4 25 -2 19 9 -5 8 -5 11 0 7 4 -4 15 -2 23 5 10 8 13
8 9 1 -4 -7 0 -14 8 -17 9 -4 12 -1 9 8 -4 10 0 12 15 8 14 -3 21 -1 21 8 0
11 2 11 10 -1 5 -8 10 -10 10 -5 0 6 8 11 18 12 61 6 87 12 90 22 3 8 9 8 23
1 12 -7 19 -7 19 -1 0 6 7 7 17 4 9 -4 14 -2 11 3 -4 5 15 10 40 12 25 1 50 8
54 15 6 9 8 8 8 -3 0 -12 2 -13 9 -1 5 7 14 10 20 7 6 -4 11 0 11 11 0 15 2
16 10 3 8 -12 13 -13 29 -3 15 10 21 10 24 0 3 -7 6 -3 6 8 1 17 3 17 11 5 6
-9 10 -10 10 -3 0 7 10 10 24 7 14 -2 27 0 31 5 3 6 13 7 22 4 9 -4 14 -2 11
3 -4 5 8 9 25 9 18 -1 42 5 55 13 18 12 22 12 22 1 0 -11 2 -11 10 1 5 8 12
11 16 7 4 -4 13 -2 21 4 7 6 22 9 33 6 11 -3 20 -1 20 5 0 5 5 6 10 3 6 -3 10
0 10 7 0 10 2 10 9 -1 6 -10 10 -10 16 -1 4 6 13 9 21 6 8 -3 14 0 14 7 0 9 3
8 9 -1 6 -11 10 -10 15 4 6 14 9 16 15 5 5 -8 11 -9 15 -3 3 6 15 8 26 5 12
-3 20 0 20 6 0 7 3 10 8 8 4 -3 18 0 32 6 14 5 33 9 43 8 10 -1 26 3 35 11 13
11 15 11 7 -2 -8 -13 -7 -13 8 -1 14 11 17 11 17 0 0 -12 2 -12 9 0 5 7 25 14
44 15 19 0 33 5 29 10 -3 5 4 7 16 4 13 -4 23 0 26 8 4 11 11 11 31 4 20 -8
32 -6 47 4 11 8 27 12 34 9 8 -3 14 0 14 7 0 9 4 9 17 -1 14 -12 16 -12 8 0
-6 11 -4 13 7 8 9 -3 19 -3 23 1 4 4 16 7 28 7 12 1 28 4 35 9 7 4 16 5 19 2
3 -3 12 -1 20 5 7 6 13 8 13 4 0 -4 12 0 26 10 15 9 24 12 20 7 -3 -6 -2 -13
4 -17 5 -3 10 1 10 11 0 13 3 14 14 5 11 -9 15 -8 20 6 6 15 8 15 16 3 8 -12
10 -12 10 -1 0 8 7 11 19 8 10 -2 26 0 35 5 27 15 56 18 56 5 0 -8 3 -7 9 2 5
8 16 11 26 8 9 -4 14 -3 11 2 -3 5 1 12 10 15 22 9 26 8 18 -5 -3 -6 5 -4 19
5 20 13 26 14 30 4 4 -11 6 -11 6 0 1 7 6 10 12 6 6 -3 15 0 20 7 8 12 11 12
19 -1 8 -12 10 -12 10 -1 0 9 9 12 29 9 21 -3 28 -1 24 9 -4 11 1 12 21 7 18
-4 26 -2 26 7 0 11 3 11 10 -1 8 -12 10 -12 10 5 0 16 2 17 9 6 8 -12 12 -12
24 -2 12 9 16 9 20 -1 4 -9 6 -8 6 2 1 12 10 15 36 12 20 -2 35 0 35 6 0 6 8
9 18 7 9 -1 23 2 30 8 6 5 12 6 12 1 0 -5 5 -2 10 6 8 12 10 12 10 1 0 -11 3
-11 17 0 15 12 16 12 8 -1 -6 -12 -5 -13 6 -3 7 7 21 13 32 13 11 0 15 5 11
11 -5 8 -1 8 14 0 26 -14 35 -14 26 0 -5 8 2 10 23 7 17 -2 35 2 42 9 10 11
16 11 27 2 11 -9 15 -8 20 4 3 9 12 13 19 11 7 -3 23 -1 34 6 16 8 21 8 21 -2
1 -8 7 -5 15 6 11 14 15 16 15 5 0 -11 2 -11 8 -1 5 8 16 10 27 6 14 -6 16 -4
10 7 -8 12 -6 12 8 0 15 -12 21 -9 18 11 0 5 3 8 9 8 5 0 10 -6 10 -12 0 -8 3
-9 8 -3 4 6 14 11 22 11 8 1 24 5 34 10 14 5 17 4 12 -4 -5 -8 -2 -10 8 -6 9
3 16 9 16 13 0 8 8 9 55 12 14 1 25 5 25 10 0 5 5 9 11 9 5 0 7 -6 3 -12 -5
-9 -2 -9 9 1 9 7 17 10 17 5 0 -5 5 -2 10 6 8 12 10 12 10 1 0 -11 3 -11 15
-1 8 6 18 9 24 6 5 -4 16 1 25 9 10 10 17 12 21 5 5 -8 11 -8 19 -1 7 6 16 8
19 4 4 -3 7 -2 7 4 0 11 29 11 49 -2 9 -5 12 -4 8 2 -4 6 1 17 10 24 10 8 14
9 10 2 -4 -6 -3 -14 3 -18 5 -3 10 0 10 8 0 9 9 13 25 12 14 -2 25 2 25 8 0 7
4 6 10 -3 8 -12 10 -12 16 3 5 13 10 15 19 7 10 -8 16 -7 24 7 7 12 10 13 11
4 0 -11 3 -11 15 -1 12 10 15 10 15 -1 0 -12 2 -12 9 0 5 7 14 10 20 7 6 -4
11 -2 11 4 0 6 4 9 9 6 5 -4 12 0 14 6 4 10 6 10 6 0 1 -8 6 -10 14 -5 6 4 23
9 37 11 13 2 28 9 32 15 5 8 8 8 8 1 0 -14 43 -11 48 4 2 6 9 9 17 6 7 -3 22
-1 33 5 15 8 22 8 25 -2 4 -9 6 -9 6 1 1 6 13 12 27 12 17 0 23 4 18 12 -6 10
-4 10 8 0 11 -9 18 -10 23 -2 3 6 11 8 16 5 5 -4 9 -1 9 6 0 8 4 8 15 -1 11
-9 15 -9 15 -1 0 7 4 10 9 6 5 -3 13 0 17 6 4 8 9 7 15 -2 7 -12 9 -12 9 0 0
7 6 11 15 7 8 -3 15 -1 15 4 0 5 9 7 20 5 11 -2 20 1 20 7 0 6 3 8 7 5 3 -4
13 -1 21 6 13 10 14 9 7 -2 -6 -11 -4 -13 11 -6 10 4 27 7 36 7 10 0 20 4 23
9 4 5 11 7 16 4 5 -4 9 -1 9 4 0 6 5 11 11 11 5 0 7 -5 3 -11 -4 -7 3 -6 17 2
13 7 36 13 51 14 15 1 33 7 41 13 10 9 16 9 25 0 8 -8 12 -9 12 -1 0 6 11 10
25 8 14 -1 25 2 25 7 0 6 7 8 15 5 8 -4 17 -1 21 5 4 7 9 6 15 -3 6 -10 9 -11
9 -1 0 6 10 12 23 12 13 0 29 6 36 13 11 10 12 9 6 -3 -7 -12 -6 -13 6 -4 8 6
25 11 39 12 14 1 26 6 28 12 3 8 8 7 18 -1 11 -9 14 -9 14 1 0 9 4 9 17 -1 9
-8 14 -9 11 -4 -4 6 2 17 14 24 11 7 17 8 13 2 -9 -15 8 -14 24 2 11 10 12 9
6 -3 -8 -13 -6 -13 7 -2 9 7 30 14 47 14 17 1 29 4 27 7 -3 4 12 7 32 9 57 3
62 5 62 16 0 6 5 4 10 -4 7 -11 10 -11 10 -2 0 7 5 10 10 7 6 -3 10 -2 10 3 0
11 30 9 49 -3 9 -5 12 -4 8 2 -8 12 20 26 34 17 5 -3 9 -1 9 4 0 6 9 8 20 5
13 -3 20 0 20 8 0 11 2 11 10 -1 7 -12 10 -12 10 -1 0 7 6 11 15 7 8 -3 15 0
15 7 0 8 4 6 10 -3 7 -12 10 -12 10 -1 0 7 6 11 15 8 8 -4 17 -2 20 3 4 6 11
10 16 10 6 0 7 -5 3 -11 -3 -6 5 -3 20 6 14 10 26 14 26 10 0 -4 6 -2 14 4 7
6 21 9 30 5 9 -3 16 -1 16 5 0 7 8 7 26 1 16 -7 23 -7 19 0 -4 6 5 10 20 10
18 0 24 4 19 13 -5 8 -2 8 9 -2 11 -8 17 -9 17 -3 0 6 7 9 15 6 8 -4 15 -1 15
5 0 13 22 10 32 -4 5 -6 8 -5 8 3 0 7 5 10 10 7 6 -3 10 -1 10 5 0 7 7 10 15
7 8 -4 17 -2 20 3 4 6 12 10 18 10 7 0 6 -4 -3 -10 -8 -5 -10 -10 -5 -10 6 0
16 5 22 11 6 6 26 13 44 15 19 2 44 5 57 7 13 1 27 9 32 17 8 12 10 12 10 1 0
-9 4 -10 13 -4 6 6 22 9 35 8 12 -1 22 2 22 7 0 5 4 7 9 3 5 -3 12 -1 16 5 4
7 12 7 26 0 15 -9 19 -7 19 7 0 15 2 16 10 3 7 -11 10 -11 10 -2 0 7 4 10 10
7 5 -3 19 -1 30 5 15 8 20 8 20 -2 0 -10 2 -10 8 -1 4 6 19 13 32 15 14 2 31
7 38 11 7 5 12 3 12 -3 0 -6 5 -8 10 -5 6 4 8 10 6 14 -5 7 19 10 87 12 9 0
17 6 17 12 0 7 4 6 10 -3 6 -9 10 -10 10 -3 0 6 8 12 18 12 44 1 58 5 70 20 8
9 11 10 7 4 -3 -7 -1 -13 4 -13 6 0 11 6 11 13 0 9 3 8 9 -2 6 -10 10 -10 16
-1 4 6 13 9 21 6 8 -3 14 -1 14 5 0 6 8 5 21 -2 13 -7 19 -7 15 -1 -3 6 -2 13
3 16 5 4 13 1 17 -5 5 -9 11 -7 21 6 7 11 13 14 13 9 0 -6 7 -11 15 -11 8 0
12 4 10 8 -3 4 2 9 10 13 8 3 15 0 15 -7 0 -8 3 -8 9 2 5 8 14 10 22 6 9 -6
10 -3 5 10 -7 18 -6 18 13 1 18 -17 20 -17 30 1 6 10 11 13 11 6 0 -7 7 -10
15 -7 8 4 13 9 11 13 -3 4 13 6 35 5 21 -1 39 3 39 8 0 6 7 8 15 4 8 -3 15 0
15 7 0 8 4 6 10 -3 7 -11 10 -11 10 -2 0 7 5 10 11 6 6 -3 15 -1 19 7 7 10 12
10 26 -2 11 -9 15 -9 10 -1 -5 8 -1 12 13 12 10 0 22 6 24 13 4 9 6 8 6 -2 1
-11 4 -11 18 0 15 12 16 12 8 -1 -7 -12 -6 -13 7 -3 8 7 18 10 21 6 4 -3 7 -1
7 6 0 9 5 9 21 0 15 -8 19 -8 15 0 -4 6 -4 11 1 12 4 0 16 2 26 4 9 2 17 -2
17 -8 0 -7 5 -4 10 5 6 10 19 15 30 13 11 -2 20 0 20 4 0 4 12 8 28 9 31 2 77
9 77 11 0 3 36 11 60 13 11 1 25 9 31 17 8 10 13 11 18 2 5 -8 13 -8 27 -1 10
6 19 8 19 4 0 -3 7 -1 15 6 12 10 15 10 15 -1 0 -12 2 -12 9 0 5 7 13 11 19 7
6 -3 15 1 20 10 6 11 11 13 16 5 4 -6 12 -11 17 -11 6 0 7 4 4 10 -3 6 1 7 9
4 9 -3 16 -1 16 5 0 6 5 11 11 11 5 0 7 -5 3 -11 -5 -8 -1 -8 13 0 11 6 23 7
27 4 3 -3 6 0 6 8 0 11 2 11 10 -1 8 -12 10 -12 10 -1 0 8 7 11 19 8 12 -3 22
1 25 10 4 10 10 11 25 3 14 -7 22 -7 26 1 4 6 13 8 21 5 8 -3 14 -1 14 4 0 5
7 6 17 3 11 -4 14 -3 9 5 -4 8 -2 10 7 6 8 -3 18 0 22 6 5 8 14 7 31 -4 21
-15 23 -15 17 1 -4 9 -2 14 3 10 6 -3 16 -2 24 3 9 5 20 4 29 -3 10 -8 13 -8
8 -1 -8 14 16 21 60 19 18 -1 30 2 27 7 -3 5 -11 5 -17 2 -7 -4 -9 -3 -4 1 4
5 25 9 47 10 21 1 47 8 56 16 10 8 15 9 11 3 -4 -7 1 -15 10 -18 10 -4 14 -4
10 0 -12 12 26 34 40 22 9 -7 13 -7 13 1 0 8 11 10 30 7 17 -2 28 -1 25 4 -3
4 4 10 15 13 12 3 18 1 14 -5 -4 -6 1 -6 13 1 11 6 24 7 28 3 5 -4 5 2 1 12
-5 14 -3 16 6 9 7 -6 22 -7 33 -3 11 4 26 5 34 2 9 -3 12 -1 7 6 -5 8 -2 10 9
6 8 -4 23 0 32 7 14 12 16 12 8 0 -6 -11 -4 -13 9 -8 10 4 20 7 22 7 3 0 2 4
-1 10 -4 7 3 7 19 0 14 -5 26 -6 26 -1 0 5 7 12 16 15 10 4 13 2 8 -7 -5 -7 0
-6 10 3 11 8 30 13 43 12 13 -2 29 0 36 5 7 5 31 9 54 9 22 -1 40 1 38 4 -2 4
5 11 15 18 14 9 21 9 26 0 5 -7 11 -5 21 7 13 18 13 18 14 -1 0 -18 1 -18 9 1
5 11 9 14 9 7 1 -9 6 -10 20 -2 11 5 29 10 41 10 14 0 19 4 14 13 -6 9 -4 9 8
-1 11 -9 18 -10 23 -2 3 6 11 8 16 5 5 -4 9 -2 9 3 0 5 12 7 26 4 16 -3 25 -1
21 5 -3 5 0 10 8 10 8 0 12 -4 9 -9 -3 -4 2 -5 10 -2 9 3 16 11 16 16 0 6 6 5
15 -2 11 -9 15 -9 15 -1 0 7 5 9 10 6 6 -3 10 0 10 7 0 10 2 10 9 -1 6 -10 10
-10 16 -1 6 9 10 9 16 -1 7 -11 9 -11 9 1 0 11 9 16 28 15 15 -1 33 3 39 8 7
5 22 7 33 4 11 -3 20 -1 20 5 0 6 7 8 15 5 8 -4 17 -2 20 3 4 6 11 10 16 10 6
0 7 -6 3 -12 -5 -9 -3 -9 9 1 12 9 50 13 134 13 76 0 121 5 125 12 6 8 8 8 8
-1 0 -7 19 -11 50 -11 36 -1 49 2 44 11 -4 7 2 3 14 -7 15 -13 22 -15 22 -6 0
7 3 10 7 7 3 -4 13 -1 21 6 9 7 13 7 9 1 -5 -8 55 -11 216 -11 123 0 228 -3
235 -7 7 -4 12 -3 12 2 0 5 18 9 40 8 22 -1 40 -5 40 -9 0 -5 5 -5 10 -2 6 4
7 11 4 17 -5 7 -2 8 7 2 8 -5 36 -10 62 -11 37 -3 47 -1 41 9 -6 10 -4 10 7 2
19 -15 100 -15 118 0 12 8 13 8 7 -2 -5 -8 1 -12 18 -12 14 0 26 6 26 13 0 9
2 9 8 0 4 -7 18 -11 30 -8 12 2 24 -1 28 -6 3 -6 11 -3 18 7 9 12 15 14 20 6
4 -7 18 -12 32 -12 17 0 23 4 18 12 -5 7 -3 8 7 2 23 -14 52 -15 61 -2 4 8 8
8 8 2 0 -6 18 -11 41 -12 28 -1 38 2 33 10 -5 7 -3 8 7 3 23 -15 122 -17 131
-3 4 7 8 8 8 3 0 -6 11 -12 26 -13 18 -1 23 2 18 11 -5 7 -1 6 10 -2 15 -13
19 -13 27 0 5 8 9 9 9 4 0 -15 50 -17 50 -2 0 7 3 8 8 2 11 -15 85 -18 76 -2
-5 7 -1 6 10 -2 15 -13 19 -13 27 0 5 8 9 9 9 3 0 -13 158 -13 179 0 10 6 12
5 7 -2 -4 -7 -1 -12 8 -12 9 0 16 6 16 13 0 7 3 8 8 2 10 -15 85 -18 76 -3 -5
7 -3 8 7 2 22 -13 99 -14 99 -1 0 7 5 5 10 -3 9 -13 11 -13 20 0 5 8 10 10 10
5 0 -14 203 -14 212 -1 5 7 8 7 8 1 0 -6 18 -11 40 -12 29 -1 38 2 33 10 -5 9
-3 9 8 0 16 -13 36 -12 58 1 10 6 12 5 7 -2 -4 -7 -1 -12 8 -12 9 0 16 6 16
13 0 7 3 8 8 2 11 -15 85 -18 76 -2 -5 7 -1 6 10 -2 15 -13 19 -13 27 0 5 8 9
9 9 4 0 -15 262 -15 272 -1 5 8 8 8 8 0 0 -11 138 -13 156 -2 6 4 14 4 18 0
13 -12 226 -11 226 2 0 6 5 4 10 -4 9 -13 11 -13 20 0 8 12 10 12 10 1 0 -11
3 -11 17 0 10 8 14 9 10 2 -5 -8 2 -11 23 -11 16 1 30 6 30 12 0 6 5 4 10 -4
9 -13 11 -13 20 0 6 10 10 11 10 3 0 -7 5 -13 11 -13 5 0 7 5 3 12 -5 7 -3 8
7 2 21 -13 39 -14 39 -2 0 7 4 7 13 0 7 -6 66 -11 139 -11 107 0 126 2 121 15
-3 7 0 14 7 14 6 0 8 5 4 12 -9 15 -9 132 0 147 4 6 3 11 -2 11 -5 0 -8 10 -7
22 1 13 0 28 -4 33 -10 18 -9 60 3 67 8 6 7 8 -1 8 -8 0 -11 11 -9 30 2 17 1
32 -3 34 -3 2 -6 32 -5 65 0 34 -4 61 -9 61 -5 0 -4 6 2 13 6 8 8 16 5 19 -3
3 -7 29 -9 57 -4 39 -2 50 8 45 8 -6 8 -3 -1 8 -8 9 -13 25 -12 35 1 10 1 20
0 23 -1 3 -3 30 -3 60 -1 30 -6 60 -10 67 -4 6 -3 14 3 18 6 4 8 11 5 16 -3 5
8 7 24 5 19 -2 28 1 24 7 -4 6 2 8 15 5 12 -4 22 -2 22 4 0 6 7 7 16 4 9 -4
22 -2 28 3 6 5 25 10 41 12 17 2 36 7 42 12 7 5 19 7 27 4 7 -3 25 1 40 8 19
10 24 11 19 2 -4 -7 0 -7 10 2 9 7 17 10 17 5 0 -5 5 -2 10 6 6 9 10 11 10 3
0 -7 7 -10 15 -7 8 4 12 10 9 15 -3 5 0 9 5 9 6 0 11 -4 11 -8 0 -5 7 -9 15
-9 8 0 11 5 8 10 -4 6 0 8 10 4 10 -3 17 -2 17 4 0 6 8 5 21 -2 12 -6 19 -7
15 -1 -3 5 1 13 10 16 10 4 13 2 8 -7 -6 -9 -4 -9 8 1 13 10 17 10 21 0 4 -9
6 -8 6 2 1 11 10 16 29 15 15 -1 32 2 37 6 6 4 26 8 45 10 19 2 40 7 46 11 7
5 16 8 20 7 23 -4 35 2 28 14 -6 9 -4 9 8 -1 11 -9 18 -10 23 -2 9 14 28 13
19 -3 -6 -9 -4 -9 7 1 7 6 24 12 37 12 15 0 21 4 16 12 -4 7 -3 8 4 4 19 -12
53 -16 47 -5 -4 5 1 10 9 10 9 1 19 3 24 4 21 6 98 19 105 17 4 -1 7 3 7 9 0
8 4 8 13 1 8 -7 18 -6 31 4 10 7 23 11 28 8 5 -3 15 0 23 6 12 10 15 10 15 -1
0 -10 3 -11 8 -3 4 7 18 14 32 15 14 2 28 9 32 14 5 6 8 5 8 -4 0 -11 3 -11
15 -1 12 10 18 10 30 0 13 -11 14 -10 10 1 -3 9 1 15 12 16 32 2 88 15 98 22
6 3 22 6 38 5 15 0 27 2 27 5 0 4 10 7 23 8 12 1 33 4 47 8 14 4 33 7 43 7 9
-1 17 3 17 8 0 4 6 8 13 7 41 -1 58 4 51 15 -6 10 -5 10 7 1 12 -10 18 -10 29
0 10 10 11 9 5 -3 -8 -13 -6 -13 8 -2 9 8 21 11 27 7 5 -3 10 -1 10 5 0 6 5 8
10 5 6 -4 18 -1 27 7 14 11 16 11 8 -2 -7 -12 -6 -13 6 -3 12 10 56 21 109 27
9 1 22 6 30 11 21 13 50 13 50 1 0 -6 4 -5 9 3 5 7 20 13 35 13 14 0 26 4 26
9 0 11 23 7 32 -6 5 -6 8 -3 8 7 0 11 5 15 15 12 8 -4 23 0 32 7 11 10 14 10
9 2 -5 -9 -2 -11 8 -7 9 3 14 9 12 13 -2 3 10 7 27 8 62 3 87 8 87 16 0 5 4 6
9 3 5 -3 25 1 45 9 28 12 36 12 36 3 0 -10 2 -10 9 0 4 7 12 12 17 11 21 -4
35 2 29 11 -4 7 2 7 19 1 19 -8 26 -6 31 7 3 9 9 12 13 7 10 -14 32 -17 32 -4
0 6 7 9 15 5 8 -3 15 -1 15 5 0 6 6 9 14 6 8 -3 17 -1 20 6 3 9 5 9 5 0 1 -7
6 -13 12 -13 5 0 7 4 4 10 -4 6 7 10 24 10 18 0 31 5 31 13 0 7 3 8 8 2 10
-15 35 -18 26 -4 -5 9 -2 10 9 6 10 -3 17 -2 17 4 0 6 7 6 20 -1 16 -8 20 -8
18 2 -2 9 7 12 25 11 15 -1 26 1 23 5 -3 5 10 7 27 6 18 -1 38 2 44 8 7 6 13
7 13 2 0 -5 5 -2 10 6 7 11 10 12 10 2 0 -11 3 -11 15 0 8 7 22 20 31 27 11 9
13 16 6 19 -7 2 -8 11 -2 28 8 19 6 26 -5 31 -12 4 -13 9 -4 19 9 11 8 14 -4
14 -10 0 -15 7 -12 20 2 11 -3 27 -12 35 -8 9 -13 19 -10 22 4 3 0 21 -8 40
-8 18 -11 32 -7 29 4 -2 8 4 8 14 0 10 -4 16 -8 14 -4 -3 -9 5 -9 18 -1 23 -4
37 -9 51 -5 15 -8 28 -9 53 0 14 -5 23 -9 20 -4 -2 -8 4 -8 15 0 10 5 19 10
19 5 0 1 7 -10 15 -13 10 -14 14 -5 15 11 0 11 3 1 15 -6 8 -9 19 -5 25 3 5 1
10 -5 10 -6 0 -8 5 -5 10 3 6 0 10 -7 10 -10 0 -10 2 1 9 11 7 11 9 0 14 -10
4 -11 6 -1 6 10 1 9 8 -3 31 -18 35 -19 54 -2 44 6 -4 4 2 -6 13 -9 11 -14 23
-11 26 4 4 3 12 -3 19 -9 12 -13 34 -16 86 0 12 -5 22 -10 22 -5 0 -3 8 4 17
10 11 10 14 2 9 -9 -5 -13 1 -13 21 0 16 -5 34 -12 41 -9 9 -9 12 1 12 7 0 9
5 4 12 -4 7 -9 24 -11 37 -2 14 -7 32 -12 41 -6 11 -5 21 2 28 9 9 9 12 0 12
-7 0 -12 13 -12 28 0 16 -3 32 -7 36 -8 8 -13 40 -13 84 0 12 -5 22 -11 22 -6
0 -8 9 -4 20 4 13 2 20 -7 20 -10 0 -9 3 2 10 9 6 10 10 3 10 -6 0 -10 9 -8
20 2 11 1 20 -4 20 -4 0 -8 16 -9 37 -2 20 -6 41 -9 47 -6 9 -14 51 -16 84 0
6 -3 12 -6 12 -3 0 -7 16 -9 36 -1 19 -7 45 -13 56 -8 16 -8 19 1 13 9 -6 9
-3 1 13 -6 11 -11 31 -11 45 0 13 -3 27 -7 31 -4 4 -9 19 -10 34 -2 15 -4 33
-5 40 -1 6 -6 12 -11 12 -5 0 -4 7 3 15 10 12 10 15 0 15 -7 0 -10 7 -6 15 3
8 1 15 -4 15 -5 0 -7 7 -4 15 4 8 2 21 -4 28 -10 12 -11 18 -15 75 -1 17 -5
32 -9 32 -4 0 -5 7 -2 15 4 8 2 15 -4 15 -5 0 -8 14 -6 30 2 17 0 30 -5 30 -8
0 -10 9 -13 60 -1 17 -4 30 -7 30 -3 0 -7 14 -8 32 -1 17 -8 35 -15 40 -8 4
-8 8 -2 8 17 0 10 41 -10 55 -15 12 -15 13 0 19 15 6 15 8 -1 26 -13 15 -14
20 -5 20 9 0 7 5 -6 15 -11 8 -14 14 -6 15 9 0 10 5 4 18 -5 9 -7 23 -5 30 3
6 0 12 -7 12 -7 0 -9 11 -6 30 3 20 1 28 -7 23 -6 -4 -8 0 -4 10 3 10 3 17 -1
17 -4 0 -8 12 -9 28 0 36 -8 70 -16 78 -4 4 -2 13 5 21 9 11 8 13 -2 11 -9 -2
-14 8 -15 27 -2 17 -3 30 -5 30 -1 0 -3 13 -5 28 -1 16 -8 33 -16 38 -8 5 -9
9 -3 9 16 0 12 32 -6 48 -8 8 -9 11 -2 7 6 -3 12 -1 12 4 0 6 -4 11 -9 11 -5
0 -7 9 -4 20 3 11 1 20 -5 20 -6 0 -9 8 -7 18 1 9 -2 23 -8 30 -6 8 -6 12 1
12 6 0 9 7 6 15 -4 8 -11 12 -16 9 -6 -4 -5 2 1 14 7 14 8 23 1 27 -5 3 -10
17 -10 30 0 13 -6 26 -12 28 -10 4 -10 6 -1 6 7 1 10 8 7 16 -4 8 -11 12 -18
8 -6 -4 -5 1 3 10 7 9 9 17 4 17 -6 0 -8 11 -5 25 2 15 0 25 -7 25 -7 0 -10 4
-6 9 3 5 2 12 -3 15 -5 3 -7 19 -4 36 3 21 0 30 -9 30 -11 0 -11 2 1 10 8 5
10 10 4 10 -11 0 -12 2 -18 60 -2 19 -7 43 -11 52 -4 10 -8 29 -9 43 0 14 -3
25 -6 25 -5 0 -10 34 -13 78 0 6 -5 12 -11 12 -6 0 -4 5 4 10 12 7 12 10 1 10
-7 0 -11 6 -7 15 3 8 2 15 -3 15 -5 0 -7 13 -6 30 1 16 -2 30 -7 30 -6 0 -8
13 -6 30 3 19 0 31 -10 35 -11 4 -12 8 -2 20 9 11 9 15 1 15 -7 0 -9 5 -6 10
3 6 0 10 -7 10 -9 0 -9 3 2 10 11 7 11 10 2 10 -7 0 -11 4 -7 9 3 5 1 13 -5
16 -8 5 -8 11 0 20 7 8 7 14 1 17 -5 1 -11 14 -13 28 -2 14 -7 31 -12 39 -7
11 -6 12 5 6 12 -8 12 -6 0 8 -11 14 -11 17 0 17 11 0 11 2 0 9 -15 10 -17 16
-25 84 -2 21 -9 44 -16 52 -8 10 -8 15 0 20 8 5 6 14 -7 28 -12 14 -13 18 -3
12 12 -6 12 -5 3 5 -6 7 -9 19 -6 26 3 8 -1 14 -8 14 -7 0 -9 3 -6 7 4 3 2 12
-4 19 -7 8 -7 14 1 19 7 4 7 12 -1 26 -6 11 -8 27 -5 35 3 8 1 14 -5 14 -6 0
-8 4 -4 9 3 5 1 12 -5 16 -5 3 -10 11 -10 16 0 6 5 7 11 3 8 -5 8 -1 0 13 -6
11 -7 23 -4 27 3 3 1 6 -5 6 -7 0 -12 14 -12 31 0 21 -4 28 -12 23 -10 -6 -10
-4 0 8 7 9 9 19 4 22 -5 3 -9 16 -8 28 1 13 -5 32 -13 42 -9 11 -10 16 -3 12
6 -4 12 -2 12 3 0 6 -4 11 -10 11 -5 0 -7 6 -4 13 3 8 -2 20 -10 27 -9 7 -13
17 -9 24 10 16 13 36 4 36 -7 0 -10 24 -12 78 -1 12 -5 22 -9 22 -5 0 -8 12
-7 28 2 15 -3 33 -11 41 -11 11 -11 15 0 22 11 7 11 9 -1 9 -8 0 -11 7 -8 20
3 11 1 20 -3 20 -4 0 -6 9 -3 20 3 11 1 20 -3 20 -5 0 -10 16 -11 37 -1 20 -7
39 -13 43 -15 10 -15 21 2 31 11 7 11 9 0 9 -8 0 -12 6 -9 13 2 6 -3 18 -12
25 -9 8 -11 11 -4 8 6 -4 14 -2 17 3 3 5 -1 12 -9 15 -13 5 -14 10 -4 27 8 15
8 19 0 15 -11 -7 -15 5 -12 31 1 7 -4 13 -11 13 -8 0 -9 3 -3 8 15 10 18 35 4
26 -9 -5 -10 -1 -6 15 3 12 -1 28 -10 36 -11 12 -11 15 -1 15 10 0 10 2 -1 9
-8 5 -11 16 -7 29 4 11 2 23 -3 26 -5 4 -8 15 -6 26 2 11 0 20 -4 20 -4 0 -8
12 -7 28 1 15 -4 41 -11 59 -7 18 -13 46 -13 63 0 16 -5 30 -11 30 -8 0 -7 6
2 17 12 14 12 16 0 8 -11 -6 -13 -3 -9 13 4 12 2 22 -2 22 -4 0 -6 9 -3 20 3
11 1 20 -4 20 -5 0 -9 8 -10 18 -1 9 -2 32 -4 50 -1 17 -5 32 -9 32 -7 0 -8 3
-11 57 -1 18 -5 30 -9 28 -4 -2 -7 10 -8 28 -2 54 -5 67 -15 67 -5 0 -4 7 3
15 10 12 9 16 -5 21 -13 5 -14 9 -3 15 11 7 11 9 -1 9 -11 0 -11 3 -1 15 10
12 9 16 -3 21 -9 3 -14 16 -13 35 1 17 -1 32 -6 35 -5 3 -6 10 -3 15 4 5 2 9
-3 9 -5 0 -8 11 -7 25 2 14 0 25 -4 25 -4 0 -6 13 -5 30 1 16 -3 30 -8 30 -6
0 -8 9 -5 20 3 11 -1 27 -10 35 -8 8 -10 15 -4 15 6 0 11 5 11 11 0 5 -4 8 -8
5 -5 -3 -8 8 -7 24 1 21 -3 30 -14 31 -10 0 -12 2 -3 6 6 2 12 9 12 14 0 6 -5
7 -11 3 -8 -4 -8 0 0 15 7 11 8 21 4 21 -5 0 -10 12 -11 27 -1 15 -7 30 -13
34 -8 5 -8 8 0 13 6 4 8 13 4 19 -4 7 -9 19 -11 27 -5 24 -10 45 -12 45 -2 0
-12 65 -13 83 0 6 -4 12 -8 12 -4 0 -6 9 -4 20 2 11 0 22 -4 24 -4 3 -6 19 -5
35 1 17 -3 31 -8 31 -6 0 -8 6 -5 14 3 8 1 17 -6 20 -8 3 -8 5 2 5 11 1 11 5
-1 24 -8 12 -14 32 -13 44 1 13 -3 23 -8 23 -6 0 -7 3 -4 7 4 3 1 13 -6 21
-10 13 -9 14 1 8 12 -7 12 -4 2 14 -9 18 -9 24 0 30 9 6 9 9 1 11 -7 3 -13 14
-14 27 0 12 -4 22 -7 22 -5 0 -11 36 -13 83 -1 9 -5 17 -9 17 -4 0 -5 9 -3 20
2 11 -1 20 -6 20 -6 0 -7 4 -4 10 3 5 0 20 -6 32 -12 22 -11 22 7 8 18 -14 18
-14 2 6 -10 11 -18 34 -20 52 -1 18 -5 32 -9 32 -3 0 -6 8 -6 18 0 58 -4 73
-15 66 -9 -5 -9 -2 1 9 10 13 10 17 1 17 -7 0 -10 6 -7 14 3 8 0 22 -8 32 -9
13 -10 24 -4 36 6 10 5 19 -1 23 -6 4 -8 10 -5 15 3 5 1 11 -4 15 -6 3 -8 12
-4 20 3 9 -1 15 -8 15 -11 0 -11 3 1 10 8 5 10 10 4 10 -6 0 -11 6 -12 13 0 6
-4 26 -7 42 -3 17 -6 37 -7 45 0 8 -6 18 -12 22 -7 5 -6 8 3 8 11 0 11 3 1 15
-7 8 -9 15 -5 15 4 0 1 8 -6 17 -12 15 -12 16 1 8 13 -7 13 -6 2 7 -7 9 -14
32 -15 52 -1 20 -6 36 -11 36 -4 0 -6 9 -3 20 3 11 2 20 -3 20 -4 0 -6 11 -4
25 1 14 -4 32 -12 39 -11 11 -11 16 -1 19 8 4 8 6 0 6 -6 1 -9 10 -6 21 3 11
0 26 -6 33 -6 8 -8 16 -5 19 3 4 0 19 -8 35 -15 32 -16 62 -4 82 6 9 5 12 0 8
-6 -3 -16 3 -23 15 -10 16 -10 19 1 12 10 -6 10 -4 -1 9 -10 13 -10 17 -1 17
9 0 9 4 2 13 -6 7 -12 24 -14 37 -2 14 -7 31 -12 39 -7 11 -6 12 5 6 12 -8 12
-6 0 9 -8 9 -15 29 -17 44 -2 24 -5 40 -16 92 -2 8 -7 20 -11 27 -4 6 -2 15 3
18 8 5 7 12 -2 23 -8 10 -13 27 -12 40 0 12 -2 22 -5 22 -4 0 -6 16 -6 36 1
21 -4 38 -11 41 -9 3 -11 10 -5 22 6 10 5 23 -4 34 -7 10 -11 26 -8 36 3 10 0
22 -6 25 -6 4 -11 25 -11 47 0 24 -5 39 -12 39 -9 0 -8 4 2 10 8 5 10 10 5 10
-10 0 -14 14 -17 58 -1 6 -6 12 -12 12 -6 0 -4 5 4 10 9 6 10 10 3 10 -6 0
-10 9 -8 20 2 11 -1 22 -6 25 -5 4 -7 11 -3 16 3 5 1 15 -4 22 -5 7 -8 22 -7
35 1 12 -2 22 -6 22 -4 0 -5 9 -2 20 3 12 0 20 -7 20 -7 0 -10 7 -6 16 4 9 1
24 -6 32 -11 13 -11 14 2 7 13 -8 13 -6 2 8 -8 9 -12 24 -10 34 3 10 -1 29 -7
43 -7 14 -11 33 -10 42 2 10 0 18 -5 18 -4 0 -7 14 -6 30 1 17 -1 30 -5 30 -4
0 -10 7 -13 16 -4 10 -2 13 6 8 7 -5 8 -3 2 7 -4 8 -9 19 -10 24 -1 6 -5 24
-8 42 -3 18 -10 43 -15 56 -6 14 -7 28 -4 31 3 3 0 13 -8 23 -12 15 -12 16 1
8 13 -8 13 -7 1 8 -8 10 -11 20 -7 24 3 3 -1 14 -10 24 -12 13 -12 19 -3 25 8
5 10 3 4 -6 -5 -9 -4 -11 3 -6 8 5 5 17 -8 41 -12 22 -15 35 -8 35 6 0 5 7 -5
18 -11 11 -13 22 -7 32 5 8 5 19 1 25 -5 5 -11 19 -13 30 -3 11 -9 29 -13 40
-5 16 -5 17 4 5 7 -9 11 -10 11 -3 0 6 -5 15 -11 19 -6 3 -9 17 -6 30 2 14 -2
25 -11 29 -12 4 -12 8 -1 22 10 12 10 14 2 9 -12 -7 -16 8 -16 67 0 9 -3 17
-6 17 -4 0 -8 15 -9 33 -2 17 -7 33 -12 35 -5 2 -7 9 -4 17 3 7 1 23 -6 34 -8
16 -8 21 1 21 8 0 8 4 -1 15 -6 8 -9 19 -6 24 4 5 2 12 -4 16 -5 3 -10 19 -10
34 0 15 -6 33 -12 40 -11 11 -10 12 2 6 13 -8 13 -7 1 8 -11 14 -11 17 0 17
10 1 10 3 -2 10 -10 6 -15 21 -14 40 1 16 -2 30 -7 30 -5 0 -6 5 -3 10 3 6 0
10 -7 10 -9 0 -9 3 2 10 8 5 10 10 4 10 -6 0 -10 10 -9 23 1 12 -1 27 -6 32
-4 6 -9 28 -11 48 -1 20 -5 37 -8 37 -3 0 -6 16 -7 36 -1 20 -7 42 -14 50 -9
11 -8 14 2 14 9 0 10 3 4 8 -10 7 -13 17 -21 62 -7 47 -10 59 -16 66 -4 3 -4
13 -1 22 5 11 3 13 -8 7 -11 -6 -12 -5 -2 5 9 10 9 18 1 34 -6 11 -11 33 -10
48 0 15 -4 28 -10 28 -6 0 -8 9 -5 20 3 11 1 20 -4 20 -5 0 -9 5 -9 11 0 6 6
7 13 2 6 -4 4 5 -6 20 -11 17 -13 27 -6 27 7 0 5 8 -6 20 -12 13 -14 20 -5 20
10 0 10 3 0 15 -7 8 -9 15 -6 15 4 0 2 8 -3 18 -7 13 -6 23 2 32 9 10 9 11 0
6 -9 -5 -14 1 -15 16 -2 36 -3 42 -10 54 -4 6 -8 27 -10 47 -1 21 -5 37 -9 37
-3 0 -6 8 -6 18 0 51 -3 63 -15 56 -9 -5 -9 -2 1 9 8 10 9 17 3 17 -6 0 -11 8
-10 18 0 22 -9 59 -18 74 -4 6 -3 8 4 4 12 -7 11 12 -3 34 -5 8 -8 23 -7 33 2
9 -1 17 -6 17 -5 0 -9 7 -9 15 0 8 5 15 11 15 6 0 5 4 -3 9 -8 5 -15 22 -16
38 -1 15 -6 36 -10 45 -4 10 -4 25 -1 33 3 9 -1 18 -9 22 -12 4 -13 9 -4 19
10 12 7 17 -11 16 -3 0 -6 17 -7 39 -2 57 -5 69 -17 70 -6 0 -2 4 9 9 17 7 17
9 3 9 -12 1 -15 6 -11 18 5 12 3 14 -8 8 -12 -8 -12 -6 0 8 10 13 10 17 1 17
-8 0 -11 9 -8 25 3 14 1 25 -4 25 -5 0 -7 4 -4 9 4 5 0 12 -6 14 -10 4 -9 6 1
6 11 1 11 4 1 16 -10 12 -10 18 1 32 8 10 9 14 2 10 -6 -4 -14 -3 -18 3 -3 5
-1 10 6 10 8 0 9 3 0 13 -6 8 -8 17 -4 20 3 4 2 7 -3 7 -5 0 -11 12 -12 26 -1
15 -7 33 -13 40 -9 11 -8 14 0 14 7 0 9 5 5 11 -14 23 -22 79 -11 79 6 0 2 7
-9 15 -10 8 -15 15 -10 15 5 0 2 8 -5 17 -10 11 -10 14 -1 9 6 -4 12 -2 12 3
0 6 -4 11 -9 11 -6 0 -8 9 -6 20 2 11 1 20 -3 20 -4 0 -8 8 -9 18 -2 44 -8 72
-14 72 -4 0 -6 8 -4 18 1 9 0 22 -4 27 -3 6 -6 15 -6 20 -5 51 -20 117 -27
121 -6 4 -5 10 3 15 10 6 11 9 2 9 -8 0 -13 14 -13 35 0 19 -3 35 -8 35 -4 0
-7 12 -8 28 -1 41 -8 66 -19 74 -6 5 -4 8 5 8 11 0 12 2 3 8 -7 4 -14 25 -17
47 -2 22 -5 40 -6 40 -2 0 -8 25 -15 70 -4 22 -11 44 -16 50 -13 13 -11 28 2
19 8 -5 8 -1 0 13 -6 11 -7 23 -4 27 3 3 2 6 -4 6 -5 0 -10 16 -11 36 -1 20
-7 43 -13 50 -9 11 -8 14 2 14 11 0 11 2 -1 10 -8 5 -11 10 -6 10 5 0 3 7 -4
15 -7 8 -10 22 -6 30 3 8 1 15 -3 15 -5 0 -7 10 -3 22 4 16 2 19 -9 13 -12 -8
-12 -6 0 8 8 10 9 17 3 17 -6 0 -9 9 -7 20 2 11 -1 20 -7 20 -6 0 -5 7 3 17
10 11 10 14 2 9 -10 -5 -13 2 -13 28 0 19 -4 37 -9 41 -6 3 -8 14 -6 25 2 11
-1 22 -6 25 -5 4 -7 11 -3 16 3 5 0 17 -8 26 -11 14 -11 16 2 8 12 -6 13 -5 3
6 -7 7 -13 28 -13 46 0 18 -4 33 -8 33 -4 0 -8 10 -9 23 -2 45 -8 77 -14 77
-3 0 -6 6 -7 13 0 6 -2 29 -3 50 -1 20 -7 37 -12 37 -5 0 -7 9 -4 20 3 10 0
21 -7 24 -7 3 -6 5 3 5 11 1 10 6 -4 21 -14 15 -15 20 -4 20 11 0 11 2 -1 10
-8 5 -11 10 -6 10 5 0 3 7 -4 15 -9 11 -9 15 -1 15 7 0 9 5 6 10 -4 6 -12 7
-18 3 -8 -4 -7 -1 1 9 8 10 9 18 3 22 -6 4 -8 13 -4 21 3 8 1 15 -4 15 -5 0
-8 16 -8 35 1 19 -2 35 -5 35 -4 0 -8 11 -9 25 -4 57 -6 65 -13 65 -4 0 -5 6
-2 14 3 8 1 17 -5 20 -6 4 -8 13 -4 21 3 9 0 22 -7 30 -10 12 -10 15 1 15 10
1 10 3 -2 10 -11 6 -15 20 -13 40 2 17 0 29 -4 26 -6 -4 -10 21 -13 77 0 9 -5
17 -12 17 -8 0 -8 3 1 12 9 9 7 14 -6 24 -11 9 -13 13 -4 14 8 0 10 5 5 13 -8
13 -10 23 -18 71 -2 16 -10 33 -17 37 -10 7 -10 9 1 9 11 0 11 3 0 17 -12 15
-12 16 1 8 13 -8 13 -7 1 8 -8 10 -11 20 -8 24 4 3 2 12 -3 19 -6 6 -10 16 -9
20 4 18 -14 95 -23 100 -5 3 -3 13 4 22 9 10 9 13 1 9 -7 -5 -12 -1 -12 10 -1
40 -5 53 -14 53 -5 0 -4 7 3 15 10 12 10 15 0 15 -7 0 -10 7 -6 15 3 8 1 15
-3 15 -5 0 -7 9 -4 20 3 13 0 20 -8 20 -11 0 -11 2 1 10 8 5 10 10 4 10 -11 0
-14 12 -16 67 -1 18 -5 30 -10 27 -7 -4 -13 43 -9 69 0 4 -3 7 -7 7 -4 0 -8
10 -9 23 -3 49 -8 87 -13 87 -5 0 -10 28 -13 68 0 6 -5 12 -11 12 -6 0 -4 5 4
10 8 5 10 10 4 10 -6 0 -11 6 -11 13 0 6 -4 21 -9 31 -5 14 -4 17 4 12 8 -5
10 -2 6 8 -3 9 -10 16 -14 16 -4 0 -8 10 -8 23 1 36 -6 77 -12 77 -5 0 -11 31
-13 73 -1 9 -4 17 -8 17 -3 0 -5 11 -4 24 2 14 -3 27 -11 30 -12 4 -12 10 -4
26 6 12 7 20 1 20 -5 0 -8 11 -6 25 1 14 -1 25 -6 25 -5 0 -6 7 -3 15 4 8 1
15 -6 15 -10 0 -10 3 0 15 7 8 8 15 3 15 -5 0 -10 6 -11 13 -2 22 -7 42 -16
56 -7 11 -6 12 5 6 12 -8 12 -6 1 8 -8 9 -11 21 -7 27 3 5 2 10 -3 10 -6 0 -8
9 -5 20 3 12 0 20 -7 20 -10 0 -10 3 0 15 10 12 10 15 0 15 -7 0 -10 7 -6 15
3 8 1 15 -3 15 -5 0 -7 9 -4 20 3 11 0 20 -6 20 -6 0 -11 5 -11 11 0 5 5 7 11
3 6 -3 3 5 -6 20 -12 19 -14 26 -5 26 9 0 7 7 -5 20 -11 12 -13 20 -6 20 7 0
9 5 4 13 -4 6 -9 23 -11 37 -2 13 -9 28 -15 32 -9 5 -8 8 3 8 9 0 11 3 5 8
-10 7 -18 39 -19 80 0 12 -4 22 -8 22 -4 0 -8 16 -8 35 0 21 -5 35 -12 35 -10
0 -9 3 1 9 9 6 10 11 2 15 -6 4 -9 12 -6 17 4 5 1 9 -4 9 -6 0 -11 5 -11 11 0
5 5 7 11 3 7 -4 7 1 -1 16 -6 12 -10 31 -7 41 3 10 0 22 -5 26 -7 4 -8 1 -3
-7 5 -8 4 -11 -3 -7 -5 4 -8 16 -5 27 3 11 -1 28 -8 37 -12 15 -12 16 1 8 12
-7 11 -3 -3 18 -12 19 -14 27 -5 27 8 0 7 6 -4 16 -12 13 -14 23 -7 41 6 18 6
22 -3 17 -7 -5 -9 -2 -5 9 3 9 -1 18 -10 22 -12 4 -13 9 -5 17 7 7 8 17 2 28
-5 9 -10 34 -12 54 -1 20 -5 36 -9 36 -5 0 -6 8 -4 19 2 10 -3 31 -10 45 -10
19 -11 25 -2 20 9 -5 9 -4 0 6 -6 7 -9 19 -6 28 4 8 2 13 -3 10 -5 -4 -9 13
-9 37 1 24 -3 41 -7 39 -4 -3 -8 11 -8 30 0 19 -5 38 -11 42 -8 4 -7 9 2 15
11 7 11 9 1 9 -7 0 -10 5 -7 10 3 6 0 10 -7 10 -9 0 -9 3 2 10 9 6 10 10 3 10
-6 0 -10 9 -8 20 2 11 0 20 -4 20 -4 0 -9 15 -10 33 -3 55 -4 57 -13 57 -5 0
-6 4 -3 10 3 5 1 19 -5 30 -8 15 -8 20 2 20 10 0 10 2 -1 9 -7 5 -10 14 -7 20
4 6 4 11 -1 11 -7 0 -11 18 -16 73 -1 9 -4 17 -7 17 -3 0 -7 10 -8 23 -2 32
-8 59 -17 80 -4 9 -5 24 -1 32 3 8 1 15 -4 15 -5 0 -7 7 -4 15 4 9 0 15 -7 15
-11 0 -11 3 1 10 8 5 10 10 3 10 -6 0 -10 11 -8 25 1 14 -2 28 -7 31 -4 3 -6
10 -3 15 4 5 2 9 -2 9 -8 0 -13 31 -16 88 0 6 -4 12 -8 12 -4 0 -6 18 -5 39 0
22 -1 39 -4 39 -18 -1 -21 4 -10 17 8 9 8 15 2 15 -6 0 -11 8 -11 18 -2 53 -6
72 -14 72 -5 0 -7 14 -5 30 3 17 1 30 -4 30 -5 0 -6 5 -3 10 3 6 2 10 -4 10
-5 0 -10 15 -11 33 0 17 -1 40 -1 50 0 9 -5 17 -11 17 -6 0 -5 7 3 17 8 10 9
14 2 10 -6 -4 -14 -3 -18 3 -3 5 -1 10 6 10 8 0 8 4 -1 15 -7 9 -10 18 -7 22
4 3 2 12 -4 19 -6 8 -9 20 -6 29 4 8 2 17 -3 20 -5 3 -7 12 -3 20 3 8 0 15 -7
15 -6 0 -8 4 -5 10 3 5 1 19 -5 30 -8 15 -8 20 1 20 8 0 8 4 -1 15 -7 8 -10
24 -7 35 3 11 1 18 -4 14 -8 -5 -14 24 -10 54 1 6 -4 12 -11 12 -9 0 -9 3 2
10 12 7 12 10 1 10 -7 0 -11 6 -8 15 4 8 2 17 -3 20 -5 3 -6 13 -3 22 5 11 3
14 -6 8 -10 -6 -11 -3 -2 14 8 14 8 21 1 21 -5 0 -10 12 -10 26 0 34 -20 116
-33 132 -6 8 -6 12 3 12 10 0 10 3 0 15 -7 8 -9 15 -5 15 5 0 0 9 -10 20 -18
20 -18 21 1 14 17 -7 17 -6 5 9 -7 9 -11 23 -8 31 3 8 2 16 -3 18 -5 2 -11 18
-13 36 -2 17 -7 35 -10 39 -4 3 -1 13 6 21 7 10 8 13 1 9 -7 -4 -14 4 -17 21
-3 15 -8 40 -11 55 -5 22 -4 27 6 21 9 -5 8 -2 -2 10 -14 18 -20 37 -22 66 0
8 -6 21 -12 29 -9 12 -8 13 4 6 11 -6 10 -3 -2 11 -14 16 -15 23 -6 32 9 9 9
12 0 12 -7 0 -12 13 -12 28 0 15 -6 34 -12 41 -10 11 -10 13 0 7 6 -4 12 -2
12 3 0 6 -4 11 -8 11 -7 0 -13 27 -15 73 -1 9 -5 17 -10 17 -5 0 -3 8 4 17 8
9 9 14 3 10 -7 -4 -15 0 -18 9 -3 9 -2 12 5 8 6 -3 3 8 -6 26 -9 18 -12 29 -5
25 8 -5 8 0 -1 16 -7 13 -12 30 -10 37 1 8 -3 20 -10 28 -9 11 -9 14 0 14 7 0
9 5 4 13 -8 14 -12 30 -17 69 -2 15 -8 34 -15 42 -9 11 -9 15 1 19 9 4 10 6 1
6 -7 1 -10 8 -7 16 4 8 1 15 -6 15 -9 0 -9 4 1 17 12 14 12 16 0 8 -11 -6 -13
-3 -9 13 4 12 0 26 -8 33 -11 9 -11 15 -3 25 7 9 8 14 1 14 -5 0 -8 10 -4 22
3 14 1 19 -6 14 -7 -4 -10 1 -7 14 2 11 -1 22 -6 26 -6 4 -6 10 1 19 8 9 8 15
0 20 -5 3 -10 17 -10 31 0 13 -4 24 -8 24 -4 0 -8 9 -9 20 -1 13 2 18 10 13 7
-3 5 2 -3 13 -9 10 -15 31 -14 47 0 15 -3 27 -8 27 -5 0 -6 5 -3 10 4 6 3 16
-2 23 -5 7 -9 49 -9 94 1 44 -2 79 -6 76 -5 -2 -8 3 -8 11 0 9 6 16 13 16 7 0
8 3 2 8 -12 9 -14 18 -16 81 -1 29 -7 51 -13 51 -7 0 -7 3 1 8 13 8 12 29 -1
51 -7 11 -6 12 5 6 12 -8 12 -6 0 8 -9 12 -10 17 -2 17 7 0 9 5 4 13 -4 6 -9
37 -9 67 -3 100 -8 140 -17 140 -5 0 -4 7 4 16 10 13 10 17 -2 25 -10 6 -11 9
-1 9 9 0 10 5 4 18 -5 9 -7 23 -4 31 2 7 -2 17 -9 22 -9 6 -10 9 -2 9 8 0 9 9
3 30 -6 21 -5 28 2 24 7 -4 8 2 3 17 -4 13 -9 43 -10 66 -1 24 -5 46 -8 50
-12 11 -8 25 5 17 7 -5 8 -3 4 5 -5 7 -10 27 -12 44 -2 18 -6 44 -9 59 -2 15
1 29 8 32 9 3 9 5 0 5 -7 1 -10 8 -7 16 6 15 -33 37 -49 28 -4 -3 -15 1 -24 9
-14 11 -16 11 -8 -2 8 -13 7 -13 -8 -1 -9 7 -17 9 -17 4 0 -5 -9 -9 -19 -9
-11 0 -17 4 -15 8 3 4 -5 8 -16 8 -16 0 -20 4 -16 16 4 9 1 23 -5 30 -9 11 -8
14 1 14 9 0 7 7 -6 22 -10 12 -13 18 -5 13 10 -6 12 -4 5 6 -11 18 -15 36 -18
76 -1 18 -5 36 -9 39 -4 4 -7 20 -7 36 0 16 -3 27 -7 25 -5 -3 -9 13 -10 35 0
23 -7 45 -15 49 -10 7 -10 9 0 9 10 0 10 5 2 20 -6 11 -8 20 -4 20 3 0 1 7 -6
15 -10 12 -10 15 1 15 11 1 11 3 -1 13 -19 16 -24 37 -8 37 10 0 10 2 0 8 -7
5 -14 23 -15 40 -1 18 -5 32 -8 32 -3 0 -5 10 -4 23 1 12 -2 28 -8 34 -5 7
-11 34 -13 59 -2 26 -8 52 -14 58 -6 9 -6 16 2 24 9 9 9 12 -1 12 -7 0 -11 6
-8 14 3 7 -1 25 -8 40 -10 19 -11 24 -2 19 8 -4 7 -1 -1 10 -8 9 -11 21 -7 27
3 5 1 10 -4 10 -6 0 -11 5 -11 11 0 5 5 7 11 3 6 -3 3 6 -7 22 -12 17 -14 25
-6 20 11 -7 12 -4 3 12 -6 12 -12 32 -13 46 -1 15 -7 26 -13 26 -5 0 -3 5 5
10 8 5 10 10 5 10 -6 0 -12 12 -13 27 -1 15 -8 30 -15 35 -7 5 -8 8 -1 8 6 0
11 7 11 15 0 8 -4 15 -9 15 -4 0 -8 14 -8 30 0 17 -5 30 -11 30 -8 0 -9 4 0
13 6 8 8 17 4 21 -4 4 -9 19 -11 34 -2 15 -7 29 -11 32 -5 3 -8 20 -7 38 1 17
-2 32 -6 32 -4 0 -5 7 -2 15 4 9 0 15 -7 15 -11 0 -11 3 1 10 12 8 12 10 1 10
-8 0 -11 3 -8 7 4 3 2 12 -4 20 -9 10 -8 13 2 13 9 1 8 5 -5 15 -11 8 -15 15
-10 15 6 0 11 7 11 15 0 8 -4 12 -7 10 -7 -4 -10 17 -11 68 0 9 -5 17 -11 17
-6 0 -5 7 3 17 10 11 10 14 2 9 -12 -7 -19 23 -14 62 1 6 -2 12 -7 12 -7 0
-11 19 -13 73 0 9 -3 17 -7 17 -6 0 -9 17 -14 93 -1 15 -6 27 -11 27 -5 0 -7
7 -3 15 3 8 1 15 -3 15 -5 0 -7 10 -3 22 4 16 2 19 -9 13 -12 -8 -12 -6 0 8 9
11 10 17 2 17 -6 0 -11 14 -11 31 0 20 -4 28 -12 23 -7 -5 -8 -3 -2 7 12 20
14 40 3 33 -5 -3 -7 5 -6 18 2 13 -3 29 -12 36 -9 8 -10 11 -3 7 7 -4 12 0 12
9 0 9 -4 16 -9 16 -5 0 -9 11 -10 25 -1 14 -2 36 -3 50 -1 14 -6 25 -10 25 -4
0 -6 13 -4 30 2 17 -3 35 -10 41 -17 14 -19 33 -2 23 7 -5 8 -3 2 7 -14 22
-32 79 -24 74 4 -3 1 14 -6 36 -8 22 -12 45 -9 50 4 5 2 9 -2 9 -5 0 -10 8
-11 18 -2 21 -10 57 -12 57 -1 0 -4 16 -7 35 -2 19 -8 37 -12 40 -13 9 -21 40
-9 40 7 0 7 4 -1 14 -6 8 -11 18 -10 22 5 30 -3 40 -30 40 -17 0 -27 -4 -24
-9 4 -6 -3 -8 -15 -5 -12 4 -25 2 -28 -3 -3 -5 -16 -9 -30 -9 -18 0 -23 -4
-18 -12 6 -10 4 -10 -8 0 -9 7 -19 9 -22 4 -3 -5 -19 -8 -36 -7 -16 1 -30 -1
-30 -6 0 -5 -7 -6 -15 -3 -9 4 -15 1 -15 -7 0 -9 -3 -10 -11 -2 -8 8 -20 7
-45 -3 -19 -8 -38 -13 -42 -10 -5 3 -14 1 -22 -4 -9 -5 -20 -4 -28 2 -7 6 -12
7 -11 2 4 -21 -2 -26 -18 -13 -10 8 -14 9 -10 2 4 -6 3 -14 -2 -17 -5 -4 -13
-2 -16 4 -5 8 -11 8 -20 0 -8 -7 -19 -9 -25 -5 -5 3 -13 -1 -16 -10 -6 -13 -8
-14 -15 -3 -6 9 -9 10 -9 1 0 -7 -7 -10 -15 -7 -8 4 -22 1 -30 -6 -8 -6 -18
-9 -23 -7 -4 3 -14 2 -22 -3 -9 -5 -20 -4 -29 3 -12 9 -13 9 -7 0 7 -13 0 -16
-36 -16 -10 0 -18 -3 -18 -8 0 -4 -11 -6 -24 -3 -14 2 -28 0 -31 -6 -4 -6 -11
-8 -16 -5 -5 4 -9 0 -9 -7 0 -9 -3 -9 -10 2 -7 11 -10 11 -10 2 0 -7 -5 -10
-11 -6 -6 3 -15 0 -20 -7 -8 -12 -11 -12 -19 1 -6 10 -10 11 -10 3 0 -7 -7
-10 -15 -7 -8 4 -15 1 -15 -5 0 -6 -5 -11 -11 -11 -5 0 -7 6 -4 13 4 6 1 5 -7
-4 -7 -8 -25 -15 -40 -14 -16 1 -28 -2 -28 -7 0 -5 -4 -7 -9 -3 -5 3 -12 1
-16 -5 -3 -5 -12 -10 -18 -10 -7 0 -6 4 3 10 9 6 10 10 3 10 -6 0 -15 -5 -18
-10 -5 -8 -11 -7 -21 1 -12 9 -13 9 -9 -3 4 -11 -1 -14 -17 -13 -12 1 -42 -4
-65 -11 -24 -7 -43 -10 -43 -7 0 3 -7 0 -15 -7 -12 -10 -15 -10 -15 1 0 12 -2
12 -9 0 -5 -7 -27 -14 -50 -15 -24 0 -41 -6 -41 -13 0 -6 -9 -9 -20 -6 -11 3
-26 0 -34 -6 -10 -8 -15 -9 -18 -1 -2 7 -18 3 -43 -9 -25 -12 -42 -15 -46 -9
-4 7 -9 6 -13 -1 -4 -6 -12 -9 -17 -6 -5 4 -9 1 -9 -6 0 -7 -3 -9 -7 -6 -3 4
-13 1 -21 -6 -13 -9 -14 -9 -8 1 4 6 3 12 -3 12 -5 0 -12 -4 -16 -9 -3 -6 -14
-8 -25 -6 -11 2 -20 -1 -20 -6 0 -6 -5 -7 -10 -4 -6 4 -18 1 -27 -7 -14 -11
-16 -11 -8 2 8 13 7 13 -8 1 -9 -7 -17 -10 -17 -7 0 4 -8 2 -18 -3 -13 -7 -23
-6 -32 2 -10 9 -11 9 -6 0 7 -12 -6 -17 -41 -16 -7 1 -13 -4 -13 -11 0 -6 -5
-4 -10 4 -7 11 -10 11 -10 2 0 -7 -4 -11 -9 -7 -5 3 -12 1 -15 -4 -4 -5 -17
-8 -31 -6 -14 1 -25 -1 -25 -5 0 -5 -8 -7 -17 -5 -10 1 -22 -1 -28 -5 -9 -7
-27 -10 -68 -11 -9 0 -15 -4 -13 -8 6 -9 -36 -8 -51 2 -9 6 -11 3 -7 -8 4 -9
3 -15 -2 -14 -5 1 -31 -1 -59 -6 -27 -5 -57 -9 -65 -10 -8 -1 -24 -6 -35 -11
-11 -5 -31 -9 -45 -9 -14 0 -31 -7 -38 -15 -8 -8 -11 -9 -7 -2 8 15 -7 16 -23
0 -7 -7 -12 -8 -12 -3 0 6 -5 3 -10 -5 -7 -11 -10 -11 -10 -2 0 9 -5 10 -19 3
-10 -6 -21 -7 -25 -4 -3 3 -6 2 -6 -4 0 -5 -10 -9 -22 -8 -13 1 -29 -3 -37 -9
-12 -9 -13 -8 -6 4 8 13 6 13 -8 1 -9 -7 -23 -11 -31 -8 -7 3 -18 1 -24 -5
-13 -13 -46 -2 -37 12 3 5 -1 10 -10 10 -9 0 -14 3 -12 8 2 4 -4 21 -14 37
-11 17 -22 38 -25 48 -4 9 -10 17 -15 17 -5 0 -9 9 -9 21 0 11 -4 17 -10 14
-5 -3 -10 3 -10 15 0 12 -4 18 -10 15 -5 -3 -10 3 -10 13 0 11 -7 23 -16 26
-9 4 -14 13 -10 21 3 8 0 14 -7 12 -7 -1 -11 4 -9 11 1 6 -2 12 -8 12 -5 0
-10 5 -10 11 0 6 -7 17 -15 26 -8 8 -12 19 -9 25 4 7 2 8 -4 4 -7 -4 -12 -1
-12 8 0 9 -4 16 -10 16 -5 0 -10 7 -10 15 0 8 -4 15 -10 15 -5 0 -10 6 -10 13
0 7 -9 19 -19 27 -11 7 -18 17 -16 21 3 4 -2 12 -10 19 -8 7 -15 18 -15 26 0
7 -9 18 -20 24 -11 6 -18 15 -15 21 4 5 -1 12 -9 15 -9 3 -13 10 -10 15 3 5
-2 9 -10 9 -9 0 -16 7 -16 15 0 8 -4 15 -10 15 -5 0 -10 7 -10 15 0 8 -9 23
-20 32 -11 10 -20 23 -20 30 0 7 -7 13 -16 13 -11 0 -15 6 -11 20 3 11 1 18
-4 14 -5 -3 -9 2 -9 10 0 9 -6 16 -14 16 -8 0 -18 9 -21 20 -3 11 -11 20 -16
20 -6 0 -7 5 -4 10 3 6 -2 10 -11 10 -10 0 -15 3 -11 6 3 4 -1 13 -9 21 -8 8
-12 19 -9 24 4 5 -1 6 -9 3 -11 -4 -16 0 -16 10 0 9 -4 16 -9 16 -5 0 -13 9
-16 20 -3 11 -13 20 -21 20 -8 0 -14 5 -14 10 0 24 -11 38 -45 58 -11 6 -15
12 -8 12 7 0 -16 28 -50 62 -34 34 -61 64 -59 65 5 7 1 23 -5 22 -22 -4 -32 3
-27 16 4 10 0 15 -12 15 -9 0 -15 3 -11 6 8 8 -18 34 -33 34 -6 0 -9 3 -7 8 6
10 -50 62 -58 53 -4 -3 -6 -1 -5 4 4 20 0 35 -10 35 -6 0 -21 10 -33 21 -12
12 -16 18 -8 14 9 -5 12 -4 7 3 -4 7 -14 12 -22 12 -8 0 -14 4 -14 9 0 6 -20
30 -44 55 -24 24 -41 47 -38 51 4 4 2 6 -3 5 -23 -5 -35 1 -35 16 0 9 -9 18
-20 21 -11 3 -20 12 -20 19 0 8 -7 14 -16 14 -8 0 -12 5 -9 10 3 6 -1 10 -9
10 -9 0 -16 7 -16 15 0 9 -6 12 -15 8 -9 -3 -15 -2 -14 3 4 22 -2 34 -16 34
-8 0 -20 9 -27 20 -7 11 -18 20 -25 20 -7 0 -13 7 -13 15 0 8 -4 15 -10 15 -5
0 -25 16 -44 35 -20 19 -38 35 -41 35 -8 0 -42 36 -48 51 -4 10 -6 11 -6 1 -1
-7 -16 2 -35 20 -18 18 -31 36 -29 40 2 4 -3 5 -11 2 -11 -4 -16 0 -16 10 0
14 -12 20 -32 17 -5 0 -8 5 -8 13 0 8 -9 18 -20 21 -11 3 -20 11 -20 16 0 5
-7 9 -16 9 -8 0 -12 5 -9 10 3 6 -1 10 -9 10 -8 0 -23 10 -33 23 -10 13 -21
23 -24 23 -8 -1 -66 42 -95 72 -13 12 -28 22 -34 22 -5 0 -10 5 -10 10 0 6 -6
10 -13 10 -7 0 -19 9 -27 19 -7 11 -17 18 -21 16 -4 -3 -9 2 -13 10 -3 8 -12
15 -20 15 -8 0 -22 10 -30 22 -9 12 -16 18 -16 13 0 -6 -7 -1 -15 9 -11 14
-15 16 -15 5 0 -12 -2 -12 -9 1 -6 8 -8 17 -5 21 2 4 -4 6 -14 5 -9 0 -16 5
-14 12 1 8 -2 11 -8 7 -5 -3 -10 0 -10 7 0 9 -3 9 -10 -2 -7 -11 -10 -12 -10
-2 0 21 -27 45 -33 29 -3 -7 -6 -4 -6 6 -1 10 -5 16 -10 13 -5 -3 -14 1 -21 9
-7 8 -16 12 -21 9 -5 -3 -9 0 -9 6 0 6 -11 15 -25 20 -14 5 -25 14 -25 20 0 5
-9 10 -21 10 -11 0 -18 4 -15 8 2 4 -9 14 -25 21 -16 7 -26 17 -23 23 5 7 2 8
-5 4 -7 -5 -19 0 -27 10 -9 11 -12 12 -8 4 4 -8 -3 -5 -17 7 -13 12 -31 23
-39 25 -8 2 -23 12 -32 22 -10 10 -18 16 -18 12 0 -6 -49 22 -60 34 -3 3 -22
14 -42 23 -21 10 -38 22 -38 27 0 5 -7 7 -15 4 -9 -4 -18 1 -21 11 -4 9 -13
14 -21 11 -8 -3 -11 -1 -8 4 3 6 -3 10 -14 10 -12 0 -21 4 -21 9 0 5 -16 15
-35 22 -19 7 -35 17 -35 21 0 4 -7 8 -16 8 -8 0 -12 4 -9 10 3 5 0 7 -8 4 -8
-3 -21 2 -30 10 -9 9 -20 16 -26 16 -6 0 -11 5 -11 11 0 8 -5 8 -15 -1 -12
-10 -15 -10 -15 3 0 9 -5 19 -12 23 -6 4 -8 3 -5 -4 5 -7 -1 -6 -17 1 -13 7
-22 15 -20 19 3 5 -6 8 -20 8 -14 0 -31 9 -39 21 -11 14 -17 17 -22 8 -6 -8
-10 -7 -17 5 -5 9 -13 14 -19 11 -5 -4 -9 -1 -9 4 0 6 -9 11 -20 11 -11 0 -20
5 -20 10 0 6 -9 10 -20 10 -11 0 -20 6 -20 13 0 9 -3 8 -9 -2 -7 -11 -10 -9
-16 8 -5 18 -9 20 -21 10 -12 -10 -16 -8 -21 10 -4 17 -8 19 -14 9 -7 -11 -9
-11 -9 1 0 8 -6 11 -15 7 -9 -3 -18 1 -21 9 -3 7 -11 12 -19 9 -7 -3 -19 2
-28 10 -9 9 -22 16 -29 16 -8 0 -19 5 -26 12 -7 7 -12 8 -12 3 0 -5 -7 0 -16
11 -8 10 -12 12 -8 4 6 -12 4 -13 -7 -2 -7 6 -21 12 -31 12 -10 0 -18 4 -18 9
0 5 -14 11 -31 15 -17 3 -28 10 -25 14 3 5 -6 8 -19 6 -14 -1 -25 2 -25 7 0 5
-9 9 -19 9 -11 0 -23 5 -26 10 -3 6 -17 10 -31 10 -17 0 -23 4 -18 12 5 8 2 9
-9 5 -9 -3 -19 -2 -22 4 -4 5 -10 7 -15 4 -5 -3 -12 0 -17 8 -4 7 -15 13 -23
13 -29 1 -70 16 -65 24 3 5 -3 7 -12 5 -10 -1 -27 3 -38 10 -11 6 -30 11 -42
10 -13 -1 -23 4 -23 12 0 7 -3 12 -7 11 -14 -3 -78 14 -90 24 -7 6 -13 7 -13
3 0 -4 -8 -1 -17 6 -15 12 -16 12 -8 -1 7 -13 5 -13 -11 1 -10 8 -26 15 -34
14 -8 0 -21 6 -29 13 -8 7 -22 11 -32 9 -11 -3 -19 -1 -19 5 0 5 -4 6 -10 3
-5 -3 -10 -1 -10 6 0 8 -4 8 -15 -1 -12 -10 -16 -9 -21 4 -3 9 -10 13 -15 10
-5 -3 -9 -1 -9 5 0 6 -6 8 -14 5 -8 -3 -24 -1 -35 6 -15 8 -21 8 -21 0 0 -6
-7 -4 -16 4 -15 15 -29 20 -48 17 -4 -1 -14 4 -22 10 -8 6 -14 8 -14 3 0 -5
-5 -2 -10 6 -8 13 -10 13 -10 0 0 -11 -3 -11 -12 -2 -7 7 -22 12 -34 12 -13 0
-26 4 -29 10 -3 5 -19 8 -35 6 -17 -2 -35 3 -41 10 -6 7 -17 10 -25 7 -8 -3
-14 1 -14 8 0 11 -3 11 -10 -1 -7 -11 -10 -11 -10 -2 0 7 -4 10 -10 7 -5 -3
-10 0 -10 7 0 10 -2 10 -9 -1 -6 -9 -11 -10 -15 -2 -4 6 -20 11 -37 11 -16 0
-29 4 -29 10 0 5 -7 7 -15 4 -8 -4 -22 -1 -30 6 -12 10 -15 10 -15 -1 0 -12
-2 -12 -9 0 -5 7 -14 10 -20 7 -6 -4 -11 -2 -11 4 0 8 -6 7 -21 -1 -15 -8 -19
-8 -15 0 4 6 0 12 -11 12 -53 4 -70 7 -86 14 -10 4 -31 8 -47 9 -17 0 -30 4
-30 7 0 4 -15 7 -32 8 -55 1 -68 4 -68 14 0 5 -6 4 -13 -2 -8 -6 -17 -8 -21
-4 -3 4 -12 8 -19 9 -39 8 -58 14 -66 19 -5 3 -12 1 -16 -5 -4 -7 -14 -6 -28
2 -12 6 -23 11 -24 10 -2 -1 -4 -2 -5 -1 -2 0 -16 2 -33 2 -16 1 -34 4 -40 7
-5 3 -29 6 -52 5 -24 0 -43 2 -43 5 0 3 -15 5 -32 5 -18 0 -38 3 -45 8 -7 5
-21 3 -34 -3 -17 -9 -20 -9 -14 0 5 9 1 10 -14 5 -14 -4 -21 -2 -21 7 0 10 -2
10 -9 -1 -5 -8 -11 -9 -14 -3 -4 5 -22 8 -42 6 -21 -1 -35 2 -35 9 0 8 -3 8
-8 2 -11 -15 -32 -17 -32 -2 0 8 -4 7 -10 -3 -8 -12 -10 -12 -10 -1 0 11 -3
11 -17 0 -11 -9 -14 -10 -9 -2 5 9 0 13 -16 12 -13 0 -40 1 -60 3 -21 2 -40
-1 -42 -7 -3 -6 -5 -6 -5 0 -1 6 -21 10 -46 9 -25 0 -45 4 -45 9 0 5 -7 4 -15
-3 -8 -7 -15 -9 -15 -4 0 5 -37 9 -83 9 -45 0 -87 3 -94 8 -6 4 -14 3 -18 -4
-6 -8 -10 -7 -16 2 -6 10 -9 11 -9 2 0 -7 -5 -13 -11 -13 -5 0 -8 4 -4 9 3 6
-6 7 -23 2 -16 -5 -36 -5 -45 0 -10 6 -18 5 -22 -1 -3 -5 -11 -10 -16 -10 -6
0 -7 6 -3 13 5 8 2 8 -9 -2 -12 -9 -17 -10 -17 -2 0 7 -5 9 -12 5 -18 -12
-211 -11 -227 1 -11 7 -13 7 -8 -1z m312 -921 c181 -2 252 -6 269 -15 13 -7
16 -7 12 1 -4 6 -2 11 3 11 6 0 11 -4 11 -8 0 -9 42 -8 58 2 7 4 12 3 12 -2 0
-5 19 -8 42 -6 24 1 49 -3 57 -9 12 -10 13 -9 7 1 -7 11 -4 12 10 4 11 -5 27
-8 37 -7 9 2 17 -1 17 -6 0 -6 6 -7 13 -2 17 10 37 13 37 4 0 -4 12 -8 28 -8
67 -1 122 -7 122 -13 0 -3 17 -6 38 -5 20 0 40 -4 44 -10 5 -6 8 -5 8 4 0 11
3 11 15 1 8 -7 15 -9 15 -4 0 5 5 2 10 -6 8 -12 10 -12 10 -1 0 11 3 11 14 2
11 -10 20 -10 37 -1 12 7 19 8 15 2 -7 -12 10 -18 52 -18 17 1 32 -2 32 -6 0
-4 8 -7 18 -7 55 -2 72 -6 72 -15 0 -6 5 -4 10 4 7 12 10 12 10 1 0 -7 6 -11
15 -7 8 3 15 0 15 -7 0 -8 3 -8 9 2 7 11 11 10 20 -5 6 -12 11 -14 11 -5 0 10
3 11 13 2 8 -6 17 -8 20 -4 4 3 14 0 24 -8 15 -12 16 -12 8 1 -7 12 -6 13 7 3
8 -7 18 -10 21 -6 4 3 7 2 7 -3 0 -5 15 -10 33 -11 49 -4 57 -6 57 -13 0 -4
13 -6 29 -5 18 1 32 -3 35 -12 4 -10 10 -11 25 -3 16 8 22 6 30 -7 6 -10 11
-14 11 -9 0 5 8 2 17 -5 14 -12 16 -12 8 0 -5 10 -4 12 4 7 6 -4 23 -10 38
-12 15 -3 33 -10 40 -16 7 -6 13 -7 13 -3 0 4 8 1 17 -6 9 -8 14 -9 10 -3 -4
8 4 8 28 0 19 -6 35 -14 35 -18 0 -4 7 -5 15 -2 8 4 22 1 30 -6 8 -6 19 -9 25
-5 5 3 10 1 10 -5 0 -7 6 -10 12 -8 7 3 24 -1 37 -8 14 -7 28 -11 33 -8 4 3 8
0 8 -6 0 -7 7 -10 15 -6 8 3 15 1 15 -5 0 -6 6 -9 13 -6 7 3 21 -1 32 -9 23
-17 39 -18 29 -1 -4 6 2 3 14 -7 12 -11 22 -15 22 -10 0 5 7 1 14 -9 9 -12 16
-14 21 -7 3 5 11 8 16 4 5 -3 7 -10 3 -15 -7 -13 19 -7 28 6 4 6 8 1 8 -9 0
-11 3 -17 6 -13 4 3 20 -1 36 -9 16 -9 36 -13 44 -10 8 3 14 1 14 -4 0 -8 28
-21 58 -26 8 -1 23 -11 35 -21 11 -10 18 -13 14 -7 -3 6 0 11 8 11 8 0 12 -4
9 -9 -5 -7 10 -12 29 -9 4 0 7 -3 7 -9 0 -6 3 -9 8 -8 4 2 22 -3 40 -10 17 -6
45 -17 62 -23 18 -7 27 -16 23 -23 -4 -6 2 -4 12 4 11 9 16 10 11 3 -4 -8 -1
-13 8 -13 9 0 16 -4 16 -8 0 -4 12 -9 26 -10 14 -1 32 -9 41 -17 8 -9 28 -19
44 -22 16 -3 29 -9 29 -13 0 -9 37 -23 62 -23 9 0 14 -5 12 -11 -3 -7 5 -12
17 -13 12 -1 25 -7 29 -14 4 -6 13 -8 19 -5 6 4 14 0 17 -8 3 -9 10 -13 15
-10 5 3 9 0 9 -6 0 -6 5 -8 10 -5 6 3 10 1 10 -4 0 -6 9 -11 21 -11 13 0 18
-4 13 -12 -5 -8 -2 -9 9 -5 10 3 17 2 17 -4 0 -6 5 -7 10 -4 6 3 10 2 10 -4 0
-6 10 -15 21 -22 17 -8 20 -8 14 1 -4 7 4 4 19 -5 14 -10 26 -22 26 -28 0 -6
3 -7 6 -4 4 4 20 -3 35 -14 16 -11 29 -17 29 -13 0 4 7 -1 16 -12 8 -10 13
-12 9 -4 -4 8 3 4 15 -10 12 -14 25 -24 29 -23 12 5 41 -8 41 -19 0 -5 7 -7
16 -4 8 3 12 2 9 -4 -3 -6 -1 -10 5 -10 6 0 18 -7 27 -15 8 -8 19 -13 24 -10
5 4 9 2 9 -3 0 -5 9 -12 21 -15 12 -3 18 -10 14 -17 -3 -6 -3 -10 2 -9 15 2
53 -13 53 -22 0 -5 7 -9 16 -9 9 0 12 -5 8 -12 -4 -7 -3 -8 4 -4 6 4 20 -2 31
-13 11 -11 22 -17 25 -14 3 4 6 1 6 -6 0 -7 5 -9 10 -6 6 3 13 -1 16 -9 3 -9
12 -16 20 -16 8 0 14 -5 14 -11 0 -5 5 -7 10 -4 6 3 13 -1 16 -9 3 -9 13 -16
21 -16 18 0 44 -25 36 -34 -4 -3 3 -6 14 -6 12 0 24 -7 27 -16 4 -10 12 -14
23 -10 10 4 14 4 11 0 -8 -7 38 -47 65 -57 10 -4 15 -12 12 -17 -4 -6 -2 -9 3
-8 12 3 45 -18 77 -49 13 -12 26 -19 29 -16 3 4 6 1 6 -6 0 -6 11 -16 25 -21
14 -5 25 -14 25 -20 0 -6 4 -9 9 -5 5 3 12 -4 16 -15 4 -11 11 -17 17 -14 8 5
9 1 4 -11 -5 -15 -4 -16 9 -5 12 10 15 10 15 -4 0 -10 4 -15 9 -11 5 3 12 -4
16 -15 4 -11 15 -20 26 -20 11 0 17 -4 14 -10 -6 -9 8 -14 28 -11 5 1 6 -2 3
-7 -2 -4 -1 -14 5 -22 5 -8 9 -10 9 -4 0 6 25 -13 56 -43 30 -29 60 -51 65
-48 5 4 9 -1 9 -10 0 -8 7 -18 15 -21 8 -4 12 -10 9 -15 -3 -5 0 -9 5 -9 17 0
23 -3 56 -35 18 -16 30 -33 28 -37 -2 -5 3 -8 11 -8 9 0 16 -4 16 -10 0 -5 7
-10 16 -10 8 0 13 -3 11 -7 -6 -10 39 -53 47 -46 3 4 6 1 6 -6 0 -15 19 -35
43 -44 9 -3 17 -11 17 -17 0 -15 26 -41 34 -33 3 4 6 1 6 -6 0 -6 12 -24 27
-39 15 -15 20 -18 12 -7 -13 18 -12 19 3 7 9 -7 19 -25 23 -39 5 -21 8 -24 16
-12 7 12 9 12 9 -1 0 -18 35 -51 45 -42 3 4 3 -1 -1 -11 -4 -12 -1 -17 10 -17
9 0 16 -5 16 -11 0 -5 5 -7 12 -3 6 4 8 3 4 -4 -3 -6 14 -32 39 -58 25 -27 45
-52 45 -56 0 -4 7 -8 15 -8 8 0 14 -3 13 -7 -4 -16 23 -53 39 -53 9 0 13 -3
10 -6 -4 -4 6 -18 21 -32 15 -13 20 -21 12 -16 -13 7 -13 5 -1 -9 7 -9 17 -14
22 -11 5 3 9 -4 9 -16 0 -12 4 -19 9 -16 5 4 15 -7 23 -24 7 -16 19 -30 27
-30 8 0 12 -3 8 -6 -9 -9 25 -44 36 -37 6 4 7 1 2 -6 -4 -8 2 -21 14 -32 12
-11 19 -24 16 -30 -4 -5 1 -9 9 -9 15 0 21 -13 16 -35 -1 -5 1 -7 5 -3 9 8 35
-16 35 -31 0 -6 5 -11 10 -11 6 0 10 -7 10 -16 0 -16 29 -52 31 -37 0 4 4 -2
10 -15 5 -13 13 -21 19 -17 6 3 7 -1 4 -9 -3 -9 -1 -16 5 -16 6 0 11 -5 11
-11 0 -6 11 -25 25 -41 14 -16 22 -35 19 -40 -4 -7 -2 -8 5 -4 6 4 14 0 18
-11 4 -10 14 -24 22 -31 13 -11 13 -12 1 -7 -8 4 -5 -2 7 -13 12 -11 19 -22
16 -26 -4 -3 0 -6 7 -6 7 0 10 -3 7 -7 -4 -3 1 -12 11 -20 10 -9 11 -12 2 -7
-8 4 -5 -4 7 -17 l22 -25 -27 -3 c-15 -2 -39 -4 -54 -5 -14 -1 -24 -4 -21 -8
2 -5 -9 -8 -26 -8 -16 0 -33 -5 -37 -11 -4 -8 -9 -7 -15 2 -7 11 -9 11 -9 1 0
-7 -3 -11 -7 -9 -5 3 -19 0 -33 -6 -14 -5 -38 -9 -54 -8 -18 2 -26 -1 -22 -8
4 -6 1 -9 -7 -5 -8 3 -18 1 -22 -5 -4 -8 -12 -8 -27 0 -16 8 -19 8 -13 -1 5
-9 1 -10 -15 -5 -14 5 -20 3 -16 -3 3 -6 -2 -9 -11 -7 -10 1 -24 -3 -32 -9
-12 -9 -13 -8 -6 4 8 13 7 13 -8 1 -10 -8 -20 -11 -23 -8 -4 3 -13 -1 -22 -9
-10 -11 -18 -12 -25 -5 -7 7 -15 7 -22 1 -6 -5 -32 -11 -57 -12 -25 -2 -44 -6
-41 -10 2 -5 -11 -8 -29 -8 -19 0 -39 -5 -46 -12 -7 -7 -12 -8 -12 -4 0 5 -6
3 -14 -3 -10 -9 -16 -9 -21 -1 -5 8 -10 8 -20 0 -7 -6 -17 -10 -21 -9 -23 4
-35 -2 -28 -13 5 -10 4 -10 -6 -1 -11 10 -16 9 -27 -5 -8 -9 -12 -12 -9 -5 8
15 -44 13 -61 -3 -6 -6 -23 -10 -37 -9 -14 2 -26 0 -26 -5 0 -5 -11 -7 -25 -5
-14 1 -25 -1 -25 -6 0 -4 -9 -6 -20 -4 -11 2 -20 1 -20 -4 0 -4 -16 -8 -37 -9
-20 -2 -41 -6 -47 -10 -6 -3 -19 -5 -30 -3 -10 1 -15 -2 -12 -8 4 -6 -3 -8
-18 -5 -14 2 -28 -1 -32 -7 -4 -8 -9 -7 -15 2 -7 11 -9 11 -9 1 0 -7 -4 -10
-10 -7 -5 3 -10 2 -10 -3 0 -6 -6 -10 -12 -9 -41 1 -79 -4 -75 -10 3 -5 -9 -8
-26 -7 -18 0 -38 -4 -44 -9 -7 -5 -20 -7 -28 -3 -8 3 -15 1 -15 -3 0 -5 -11
-8 -25 -6 -14 1 -25 -2 -25 -8 0 -5 -9 -7 -20 -4 -11 3 -20 0 -20 -6 0 -6 -3
-7 -7 -4 -3 4 -13 1 -21 -6 -11 -8 -13 -8 -9 0 5 7 0 9 -13 6 -11 -3 -17 -9
-14 -14 3 -5 -2 -6 -10 -3 -9 3 -24 3 -33 -1 -21 -9 -30 -11 -61 -13 -13 -1
-21 -6 -18 -11 7 -11 -13 -9 -33 3 -8 5 -16 4 -21 -4 -4 -7 -13 -9 -19 -6 -6
4 -11 3 -11 -2 0 -5 -10 -8 -22 -7 -29 3 -49 -5 -43 -15 3 -5 -4 -6 -16 -3
-12 4 -25 0 -30 -8 -7 -11 -9 -11 -9 -1 0 8 -5 10 -12 5 -21 -12 -38 -12 -38
0 0 7 -5 4 -11 -5 -11 -20 -34 -25 -24 -5 4 6 -1 3 -9 -7 -12 -15 -16 -16 -16
-5 0 8 -3 10 -8 4 -6 -9 -18 -14 -47 -19 -5 -1 -16 -6 -24 -10 -11 -7 -12 -6
-6 5 8 12 6 12 -8 0 -14 -11 -17 -11 -17 0 -1 10 -3 10 -10 -2 -6 -11 -18 -15
-36 -11 -15 3 -24 1 -21 -4 3 -6 -3 -10 -14 -10 -10 0 -19 5 -19 11 0 5 -5 2
-11 -8 -6 -9 -15 -15 -20 -11 -5 3 -16 0 -24 -6 -12 -10 -15 -10 -15 1 0 9 -3
10 -8 4 -4 -5 -14 -12 -22 -13 -8 -2 -24 -6 -35 -9 -11 -3 -30 -5 -42 -6 -13
-1 -23 -4 -23 -8 0 -3 -11 -5 -25 -4 -14 2 -27 -1 -31 -6 -3 -5 -10 -7 -15 -4
-5 4 -9 2 -9 -4 0 -6 -7 -8 -16 -4 -9 3 -20 0 -25 -8 -7 -12 -9 -12 -9 0 0 11
-3 11 -15 1 -12 -10 -15 -10 -15 1 -1 10 -4 8 -11 -4 -7 -13 -19 -16 -45 -13
-25 3 -34 1 -31 -7 3 -8 -7 -13 -27 -14 -74 -3 -104 -8 -100 -14 7 -12 -20
-17 -44 -8 -16 6 -24 5 -28 -4 -2 -7 -17 -12 -32 -12 -15 1 -34 -5 -44 -13
-11 -9 -18 -10 -23 -3 -4 8 -13 7 -28 -1 -31 -16 -69 -20 -61 -5 3 7 -1 4 -10
-7 -8 -10 -19 -15 -25 -11 -6 3 -11 3 -11 -2 0 -4 -10 -8 -22 -9 -32 -2 -61
-8 -75 -17 -8 -5 -13 -3 -13 5 0 10 -2 10 -9 -1 -5 -8 -19 -12 -35 -9 -14 3
-23 2 -21 -2 3 -5 -2 -10 -10 -14 -8 -3 -15 0 -15 7 0 8 -3 8 -9 -2 -5 -8 -16
-11 -26 -7 -13 5 -16 2 -11 -10 5 -12 3 -14 -6 -8 -14 10 -34 10 -58 1 -26
-10 -125 -30 -126 -26 0 2 -8 -2 -17 -10 -11 -9 -17 -10 -17 -2 0 6 -5 11 -11
11 -5 0 -7 -5 -4 -11 5 -7 -3 -9 -24 -6 -17 3 -29 2 -26 -3 3 -4 -3 -11 -12
-14 -9 -4 -20 -1 -25 6 -6 11 -8 10 -8 0 0 -7 -4 -10 -10 -7 -5 3 -10 1 -10
-6 0 -8 -4 -8 -15 1 -9 7 -15 8 -15 2 0 -5 -7 -13 -16 -16 -10 -4 -13 -2 -8 7
5 8 2 7 -9 -2 -10 -8 -20 -11 -24 -8 -3 4 -12 2 -20 -4 -7 -6 -13 -8 -13 -4 0
4 -8 1 -17 -6 -14 -12 -15 -12 -9 -1 7 11 4 12 -13 3 -12 -7 -26 -9 -31 -6 -6
3 -10 2 -10 -4 0 -6 -7 -8 -15 -5 -8 4 -15 2 -15 -4 0 -5 -6 -10 -12 -9 -41 1
-79 -4 -75 -10 3 -5 -15 -9 -39 -10 -24 -1 -52 -6 -61 -12 -11 -6 -24 -6 -35
0 -14 7 -20 6 -24 -6 -4 -9 -12 -14 -19 -11 -7 2 -16 2 -19 -2 -8 -8 -33 -13
-73 -15 -17 -1 -29 -6 -25 -11 3 -5 -1 -7 -9 -4 -8 3 -25 1 -39 -5 -26 -10
-38 -13 -83 -15 -18 -1 -26 -6 -21 -13 4 -8 1 -8 -12 -1 -20 10 -47 5 -40 -7
3 -4 -9 -5 -26 -3 -17 3 -28 1 -25 -4 3 -5 -5 -9 -16 -10 -12 0 -31 -4 -41 -9
-14 -6 -17 -5 -11 4 4 7 -5 5 -21 -5 -17 -12 -25 -14 -20 -6 7 11 4 12 -13 3
-11 -7 -21 -8 -21 -4 0 4 -7 -1 -15 -11 -8 -11 -15 -15 -15 -10 0 6 -7 11 -15
11 -8 0 -15 -5 -15 -10 0 -5 -11 -7 -25 -5 -14 3 -25 1 -25 -4 0 -5 -4 -6 -10
-3 -5 3 -16 3 -22 -2 -21 -12 -41 -13 -55 -1 -10 8 -12 7 -7 -5 4 -11 0 -16
-15 -16 -12 -1 -30 -1 -41 -2 -11 0 -18 -4 -15 -9 3 -5 -4 -7 -16 -5 -13 3
-29 -1 -38 -8 -12 -10 -13 -9 -6 3 7 12 6 13 -7 3 -8 -7 -28 -14 -44 -15 -16
-1 -33 -5 -39 -8 -5 -4 -20 -6 -32 -5 -12 1 -19 -3 -16 -8 3 -5 0 -7 -8 -5 -8
3 -22 1 -31 -4 -13 -6 -18 -5 -18 4 0 9 -3 9 -8 2 -12 -18 -39 -23 -52 -11
-10 9 -11 9 -6 0 7 -12 -54 -30 -83 -24 -7 1 -10 -2 -7 -7 4 -6 -3 -8 -16 -4
-16 4 -19 2 -13 -9 7 -12 6 -12 -7 -1 -12 9 -18 10 -23 2 -5 -8 -11 -7 -23 2
-9 8 -13 8 -9 2 4 -7 0 -15 -9 -18 -8 -3 -12 -2 -9 4 3 6 -1 7 -9 4 -9 -3 -16
-11 -16 -18 0 -6 -5 -4 -10 4 -6 9 -10 10 -10 3 0 -6 -9 -10 -20 -8 -11 2 -20
-1 -20 -7 0 -6 -3 -8 -7 -5 -3 4 -13 1 -21 -6 -13 -9 -14 -9 -8 1 9 15 -6 16
-22 0 -7 -7 -12 -8 -12 -4 0 5 -8 2 -17 -5 -15 -12 -16 -12 -8 1 6 12 5 13 -5
3 -11 -10 -17 -10 -29 0 -12 9 -13 9 -7 0 6 -12 -5 -18 -26 -14 -5 0 -8 -2 -8
-7 0 -4 -15 -8 -32 -9 -18 -2 -44 -5 -58 -7 -14 -2 -29 -5 -33 -5 -5 -1 -6 -4
-3 -9 2 -4 -11 -7 -30 -6 -19 1 -34 -1 -34 -5 0 -4 -8 -7 -17 -7 -10 -1 -36
-4 -58 -9 -22 -4 -48 -8 -57 -8 -10 -1 -18 -4 -18 -8 0 -3 -14 -5 -30 -4 -17
1 -35 -4 -40 -11 -6 -6 -20 -10 -30 -7 -13 3 -20 0 -20 -8 0 -11 -2 -11 -10 1
-7 11 -10 12 -10 2 0 -9 -7 -11 -21 -7 -16 5 -19 4 -14 -5 6 -9 4 -11 -5 -5
-7 4 -16 2 -21 -6 -5 -8 -9 -9 -9 -3 0 12 -36 12 -47 -1 -5 -4 -2 -5 6 0 10 6
12 4 7 -4 -6 -9 -11 -9 -22 0 -10 8 -14 8 -14 1 0 -7 -7 -9 -17 -5 -12 5 -14
3 -8 -8 6 -11 5 -12 -5 -2 -8 8 -18 9 -24 4 -6 -5 -24 -11 -41 -14 -16 -3 -39
-9 -49 -13 -13 -5 -17 -4 -12 4 3 6 -7 4 -24 -5 -17 -8 -38 -12 -46 -9 -11 4
-15 2 -11 -7 3 -9 -5 -12 -31 -9 -24 3 -33 1 -28 -7 5 -8 0 -8 -19 -1 -19 7
-24 7 -19 -2 5 -7 2 -9 -8 -5 -9 3 -19 3 -22 -1 -4 -3 -12 -7 -19 -8 -7 -1
-21 -6 -31 -10 -15 -6 -18 -4 -12 7 4 8 1 6 -7 -3 -8 -10 -16 -15 -19 -13 -3
3 -17 1 -32 -5 -21 -8 -25 -7 -20 3 6 9 5 9 -7 0 -8 -6 -25 -13 -39 -15 -14
-1 -28 -7 -32 -13 -5 -6 -8 -5 -8 4 0 11 -3 11 -15 1 -8 -6 -19 -9 -25 -5 -5
3 -10 2 -10 -4 0 -6 -7 -8 -15 -5 -9 4 -15 0 -15 -7 0 -11 -3 -11 -10 1 -7 12
-10 12 -10 1 0 -7 -6 -11 -14 -8 -7 3 -24 -2 -37 -10 -12 -9 -19 -11 -15 -5 4
7 3 12 -3 12 -5 0 -13 -5 -17 -11 -4 -8 -9 -7 -15 2 -7 12 -9 12 -9 0 0 -8 -7
-11 -20 -8 -11 3 -18 2 -15 -3 3 -4 -2 -11 -11 -14 -10 -4 -13 -2 -8 6 5 7 3
8 -7 2 -8 -5 -25 -10 -39 -10 -39 -3 -41 -3 -37 -11 3 -5 -9 -8 -26 -7 -18 0
-46 -5 -64 -12 -17 -7 -34 -9 -38 -6 -3 4 -10 0 -15 -8 -9 -13 -10 -13 -10 0
-1 11 -4 10 -15 -4 -9 -12 -15 -15 -15 -7 0 11 -3 11 -15 1 -12 -10 -15 -10
-15 1 0 12 -2 12 -9 0 -5 -8 -16 -11 -25 -8 -9 4 -16 2 -16 -4 0 -6 -6 -9 -14
-6 -8 3 -17 1 -19 -6 -3 -9 -9 -8 -22 3 -11 9 -16 10 -11 3 4 -7 4 -13 -1 -14
-4 0 -19 -3 -33 -5 -14 -3 -35 -5 -47 -6 -13 -1 -23 -6 -23 -11 0 -4 -4 -5
-10 -2 -5 3 -19 1 -31 -6 -17 -9 -20 -8 -13 3 7 11 5 11 -9 0 -9 -8 -21 -11
-27 -7 -5 3 -10 1 -10 -5 0 -7 -6 -10 -14 -7 -8 3 -17 3 -20 -1 -7 -6 -38 -12
-69 -13 -9 0 -15 -4 -13 -8 6 -10 -25 -8 -42 3 -9 5 -15 1 -19 -14 -4 -15 -8
-18 -14 -9 -5 9 -11 10 -21 2 -7 -6 -24 -10 -38 -9 -14 1 -31 -5 -38 -14 -12
-13 -13 -13 -7 4 5 18 4 19 -12 4 -10 -8 -28 -14 -40 -13 -13 1 -23 -2 -23 -6
0 -4 -8 -8 -17 -8 -17 0 -58 -8 -58 -11 0 -1 -11 -3 -25 -5 -34 -5 -82 -15
-100 -22 -8 -3 -23 -5 -34 -4 -10 2 -16 -1 -13 -6 7 -12 -23 -10 -42 2 -9 5
-12 4 -7 -3 3 -6 2 -13 -4 -17 -5 -3 -10 0 -10 7 0 8 -3 9 -8 3 -4 -5 -14 -12
-22 -14 -30 -6 -65 -12 -82 -12 -10 0 -18 -4 -18 -9 0 -5 -7 -7 -16 -3 -9 3
-20 0 -25 -8 -7 -12 -9 -12 -9 0 0 10 -3 11 -13 2 -8 -6 -17 -8 -20 -4 -4 3
-7 1 -7 -5 0 -7 -5 -12 -11 -12 -5 0 -7 6 -3 13 4 6 -1 4 -12 -5 -14 -12 -24
-14 -37 -7 -13 8 -19 6 -23 -5 -3 -9 -12 -12 -21 -9 -12 5 -14 3 -8 -8 6 -11
5 -12 -5 -2 -11 10 -18 9 -33 -4 -10 -10 -18 -13 -17 -8 4 20 -1 30 -8 18 -4
-7 -18 -14 -30 -16 -12 -2 -25 -6 -28 -10 -4 -4 -14 -1 -22 6 -13 10 -14 9 -7
-2 6 -11 2 -13 -18 -9 -15 3 -24 2 -22 -2 3 -4 -6 -10 -20 -12 -15 -3 -25 -1
-25 6 0 6 -4 5 -9 -3 -5 -7 -14 -10 -20 -7 -6 4 -11 1 -11 -6 0 -9 -3 -9 -10
2 -6 9 -10 10 -10 3 0 -11 -30 -10 -49 2 -5 3 -12 1 -15 -3 -6 -10 -48 -8 -65
2 -5 4 -12 3 -15 -2 -6 -9 -59 -8 -75 3 -6 3 -11 0 -11 -7 0 -9 -3 -9 -10 2
-5 8 -10 10 -10 3 0 -6 -8 -10 -17 -8 -10 2 -22 4 -26 4 -5 1 -5 7 -2 14 4 6
-1 3 -9 -7 -12 -15 -16 -16 -16 -5 0 8 -3 10 -8 4 -9 -13 -62 -14 -62 -1 0 6
-5 5 -12 -2 -8 -8 -15 -9 -25 -1 -10 9 -13 8 -13 -2 0 -11 -2 -11 -10 1 -5 8
-10 10 -10 4 0 -8 -11 -9 -35 -4 -24 5 -35 4 -35 -4 0 -6 -5 -4 -10 4 -5 8
-10 10 -10 4 0 -7 -17 -8 -50 -4 -29 4 -50 2 -50 -3 0 -5 -7 -4 -15 3 -12 10
-15 10 -15 -1 0 -11 -2 -11 -10 1 -9 13 -10 13 -10 0 0 -13 -1 -13 -10 0 -9
13 -10 13 -10 0 0 -11 -2 -12 -8 -3 -5 7 -13 9 -21 3 -8 -4 -20 -6 -26 -3 -24
9 -115 8 -115 -1 0 -6 -7 -1 -15 10 -11 13 -13 14 -9 3 4 -14 0 -16 -35 -9
-25 4 -41 4 -41 -3 0 -5 -7 -4 -15 3 -11 9 -15 9 -15 1 0 -9 -5 -9 -22 0 -16
9 -23 9 -26 1 -3 -9 -9 -9 -24 -1 -16 8 -19 8 -13 -1 6 -9 2 -9 -16 0 -17 10
-24 10 -27 2 -3 -9 -9 -9 -23 -2 -14 8 -19 7 -19 -1 0 -8 -5 -7 -17 2 -13 11
-17 11 -21 1 -3 -10 -7 -10 -18 -1 -11 9 -14 9 -14 0 0 -7 -5 -9 -11 -6 -15
10 -119 11 -119 2 0 -5 -5 -5 -12 -1 -7 4 -34 6 -60 5 -34 -2 -48 1 -48 11 0
9 -3 10 -8 2 -8 -13 -72 -24 -72 -13 0 5 -7 5 -17 2 -12 -5 -14 -3 -8 8 8 12
6 12 -8 1 -9 -8 -21 -11 -27 -7 -5 3 -10 0 -11 -7 0 -7 -2 -8 -5 -3 -2 6 -34
9 -71 8 -43 -1 -70 3 -75 10 -6 9 -8 8 -8 -2 0 -7 -6 -11 -15 -7 -8 3 -15 0
-15 -7 0 -7 -7 -3 -15 7 -9 12 -15 15 -15 7 0 -10 -12 -12 -45 -8 -31 4 -43 3
-39 -4 4 -8 0 -8 -12 -2 -11 5 -39 8 -64 7 -25 -1 -48 4 -52 10 -5 7 -8 8 -8
0 0 -13 -149 -13 -169 0 -10 7 -12 6 -6 -4 6 -9 2 -10 -15 -5 -16 5 -20 4 -15
-5 7 -11 -2 -8 -36 12 -3 1 -14 -4 -24 -12 -14 -11 -17 -11 -11 -1 7 10 3 12
-14 6 -15 -5 -20 -4 -16 4 5 7 1 9 -8 5 -9 -3 -13 -10 -10 -15 3 -5 -2 -6 -10
-3 -9 3 -13 11 -9 17 4 6 1 7 -8 1 -23 -14 -62 -17 -53 -3 5 8 3 9 -7 3 -19
-11 -102 -17 -95 -6 3 5 -2 9 -10 9 -9 0 -13 -6 -9 -15 5 -13 3 -13 -11 -2
-13 12 -17 11 -25 -1 -6 -10 -9 -10 -9 -1 0 8 -9 11 -24 8 -21 -4 -24 -1 -20
17 3 12 6 27 7 32 2 6 7 16 11 24 7 11 6 12 -5 6 -12 -8 -12 -6 0 8 8 10 11
20 7 24 -3 3 1 17 9 30 9 13 13 28 10 32 -3 5 2 17 11 25 10 11 11 16 3 16 -8
0 -6 7 5 19 12 13 14 21 6 26 -8 5 -7 11 2 22 7 9 13 26 13 38 1 13 7 30 14
39 7 9 11 22 8 30 -3 8 -1 16 4 18 6 2 12 19 15 38 4 19 9 37 12 40 4 3 9 14
10 25 2 11 8 21 12 23 5 2 6 10 3 18 -3 8 -1 14 4 14 5 0 10 9 11 20 4 44 6
50 14 50 5 0 7 4 3 9 -3 5 -1 12 5 16 6 4 8 11 5 16 -4 5 -1 9 4 9 6 0 10 3 9
8 -4 16 26 92 36 92 6 0 4 5 -4 10 -10 6 -11 10 -2 10 6 0 12 7 12 16 0 9 5
12 13 8 9 -5 9 -4 0 6 -9 10 -8 16 3 27 8 8 12 19 9 24 -4 5 -1 9 5 9 6 0 9 4
6 8 -3 5 4 23 15 40 10 18 19 41 19 52 0 10 5 22 10 25 6 4 8 11 5 16 -4 5 0
12 9 15 8 3 12 12 9 20 -3 8 0 14 7 14 6 0 9 4 5 9 -3 5 -1 12 5 16 6 4 8 11
5 16 -4 5 -1 9 6 9 7 0 9 3 6 7 -4 3 1 12 11 20 9 8 12 12 6 9 -5 -2 -1 15 10
39 11 24 25 41 30 38 5 -3 6 -1 2 5 -4 6 -1 22 6 34 12 23 14 29 17 49 0 5 5
8 10 5 5 -4 7 4 3 16 -4 17 -2 20 11 15 11 -4 14 -2 11 7 -3 8 0 17 5 21 6 3
9 11 6 16 -4 5 -2 9 4 9 6 0 7 7 4 17 -4 11 -3 14 5 9 8 -5 12 0 12 13 0 12 5
21 10 21 6 0 9 6 8 13 -2 6 2 11 9 10 7 -2 10 6 8 17 -2 11 0 20 6 20 5 0 9 6
9 14 0 7 7 19 15 26 8 7 12 16 9 21 -3 5 0 9 5 9 6 0 10 3 9 8 -3 14 14 42 23
36 5 -3 6 2 3 10 -3 9 -1 16 6 16 6 0 8 5 4 11 -4 7 4 20 17 31 13 11 18 17
11 13 -11 -6 -11 -3 0 14 7 12 16 21 21 21 4 0 5 5 2 10 -3 6 -1 10 5 10 6 0
9 4 5 9 -3 5 4 16 16 25 13 9 19 21 16 30 -4 10 -1 16 8 16 9 0 12 6 9 15 -4
11 -2 13 9 9 12 -4 15 1 13 20 -2 14 0 24 3 23 3 -1 6 1 6 5 0 4 9 13 19 21
12 9 16 19 11 27 -5 8 -4 11 3 6 6 -3 13 3 17 14 3 11 11 20 16 20 6 0 7 5 4
10 -3 6 -1 10 4 10 6 0 11 7 11 15 0 8 5 15 11 15 5 0 7 5 4 10 -3 6 1 13 9
16 9 3 16 12 16 20 0 8 8 14 18 14 14 0 15 2 2 10 -10 6 -11 10 -2 10 6 0 12
6 12 14 0 8 10 22 22 30 12 9 18 16 13 16 -6 0 -2 5 8 11 9 6 15 14 12 19 -3
4 2 11 11 14 9 4 14 13 10 21 -3 8 -2 14 2 12 4 -1 8 1 10 6 1 4 10 15 20 25
9 10 24 29 32 42 8 13 22 31 32 41 9 9 14 20 11 23 -4 3 -1 6 5 6 7 0 12 7 12
15 0 8 4 15 10 15 5 0 22 18 36 40 15 22 31 37 37 33 5 -3 7 -1 3 5 -3 6 -2
13 4 17 6 4 7 11 4 17 -4 7 -2 8 5 4 6 -4 14 0 18 11 10 25 29 43 38 35 5 -4
6 3 3 15 -4 16 -2 20 10 16 9 -4 13 -2 9 4 -4 6 7 21 23 33 17 13 30 32 30 42
0 11 5 16 10 13 6 -3 10 -1 10 5 0 6 5 8 12 4 6 -4 8 -3 5 3 -3 5 5 21 18 35
13 14 21 29 17 33 -4 4 -2 5 3 3 6 -2 20 7 33 20 12 12 19 22 15 22 -3 0 5 9
18 21 13 12 23 25 22 30 -2 5 4 9 12 9 8 0 15 4 15 8 0 13 68 81 74 74 6 -5
10 15 6 33 -1 6 1 7 5 3 10 -10 45 24 38 36 -3 6 -3 8 2 4 4 -4 42 28 85 72
42 44 82 80 88 80 6 0 14 5 18 12 5 7 3 8 -7 3 -8 -5 -5 1 5 13 11 12 24 22
29 22 6 0 36 27 68 60 31 33 62 60 68 60 7 0 9 5 6 10 -3 6 -1 10 5 10 16 0
40 26 32 35 -4 4 -2 6 3 4 16 -4 45 12 40 21 -3 5 4 11 15 15 11 3 20 11 20
17 0 6 3 9 6 6 3 -4 18 7 33 23 15 16 31 26 34 22 4 -3 7 1 7 11 0 9 4 15 9
12 5 -3 11 1 15 9 3 8 13 15 21 15 9 0 14 4 11 9 -5 8 18 23 29 18 2 -1 12 8
20 21 9 12 23 22 31 22 8 0 12 5 9 10 -3 6 -2 10 4 10 6 0 22 11 36 25 14 14
25 21 25 16 0 -6 14 4 31 22 17 17 35 32 39 32 5 0 21 11 37 25 15 14 32 27
38 30 40 21 85 54 85 62 0 6 7 7 16 4 8 -3 12 -2 9 4 -3 6 1 10 9 10 9 0 16 4
16 9 0 5 9 13 20 16 11 4 17 11 14 17 -4 7 -2 8 4 4 6 -4 20 2 32 14 11 11 20
16 20 10 0 -5 9 -2 19 7 11 9 17 21 14 26 -3 6 -1 7 5 3 6 -3 13 -2 17 4 4 6
11 8 16 5 5 -4 9 -1 9 5 0 7 7 10 15 6 8 -3 14 -1 12 5 -1 6 17 21 40 33 23
13 40 26 36 30 -3 3 3 6 15 6 11 0 27 7 36 15 8 8 20 15 26 15 6 0 8 4 5 10
-3 5 0 7 7 5 8 -3 24 4 36 15 12 11 23 20 24 19 9 -4 56 25 52 32 -3 5 2 6 10
3 10 -4 16 -1 16 7 0 7 3 9 7 6 3 -4 13 -1 22 7 9 8 23 16 31 18 8 2 21 10 28
18 8 9 11 10 7 2 -6 -11 -3 -11 13 -1 12 7 19 16 16 20 -2 5 5 6 16 4 11 -2
20 0 20 6 0 5 7 9 15 9 8 0 15 5 15 11 0 5 5 7 10 4 6 -3 10 -2 10 3 0 10 48
27 64 23 5 -1 6 5 3 13 -4 10 -1 13 9 9 8 -3 22 1 32 9 9 9 29 18 45 22 15 3
27 11 27 17 0 6 4 8 9 5 5 -3 20 4 35 15 14 11 30 18 35 15 5 -4 16 1 24 9 12
11 17 12 20 2 3 -7 6 -6 6 5 1 10 8 15 19 13 23 -3 37 6 22 15 -7 4 -1 8 15 8
15 0 31 6 36 13 7 11 9 11 9 1 0 -10 4 -10 16 2 8 9 24 16 34 16 10 0 20 5 22
10 2 6 13 12 26 13 12 0 22 5 22 10 0 4 5 5 11 1 6 -3 15 -1 19 5 4 7 17 13
28 14 12 1 22 5 22 9 0 4 9 8 19 8 11 0 27 7 35 16 12 12 16 12 16 2 0 -11 2
-11 9 0 4 8 11 13 15 12 4 -1 19 2 34 8 37 14 55 19 66 20 5 0 13 6 17 14 7
11 9 10 9 -1 0 -11 4 -9 15 5 8 10 15 16 15 11 0 -4 16 -1 35 7 19 8 35 12 35
9 0 -3 7 0 15 7 8 7 15 9 15 5 0 -4 7 -2 15 5 8 7 15 9 15 4 0 -4 5 -3 11 3 6
6 18 9 25 6 8 -3 14 0 14 7 0 7 7 10 15 6 8 -3 15 -1 15 4 0 5 6 7 14 4 8 -3
17 0 21 5 3 6 11 9 16 6 5 -4 9 0 9 7 0 9 3 9 10 -2 6 -9 10 -10 10 -3 0 6 9
10 20 8 11 -2 18 0 15 6 -4 5 5 9 19 9 14 0 27 4 31 10 3 5 12 7 20 3 9 -3 15
1 15 8 0 11 3 11 10 -1 7 -12 10 -12 10 -1 0 7 6 11 15 8 8 -4 17 -2 20 4 4 5
11 7 16 4 5 -4 9 -2 9 3 0 5 12 7 26 4 19 -3 25 -1 20 6 -5 8 -2 10 8 6 9 -3
16 -1 16 5 0 6 6 8 14 5 8 -3 24 0 36 6 17 9 21 9 15 0 -5 -8 -2 -9 11 -1 30
16 105 29 152 27 23 -1 42 2 42 7 0 4 5 5 10 2 6 -4 18 -1 27 7 12 9 15 9 9 1
-4 -7 -2 -13 3 -13 6 0 11 4 11 8 0 4 16 9 37 10 20 2 41 6 47 10 6 3 25 7 41
7 17 0 36 4 43 9 7 4 16 5 19 2 3 -3 15 -1 26 5 15 9 18 8 11 -3 -5 -8 1 -7
18 4 24 16 28 16 42 2 15 -14 16 -14 16 3 0 15 2 16 10 3 7 -10 10 -11 10 -2
0 8 9 11 25 8 14 -3 25 -1 25 3 0 4 19 8 42 10 23 1 48 7 54 12 8 7 14 6 19
-1 3 -6 11 -8 16 -4 6 3 29 7 52 9 23 2 42 4 42 5 0 1 32 3 70 4 39 1 76 5 83
9 7 5 12 4 12 -3 0 -7 6 -8 18 -2 21 10 32 10 51 -2 10 -6 12 -5 7 2 -5 8 1
12 18 12 13 0 27 -6 29 -12 3 -8 6 -6 6 4 1 10 7 15 14 13 18 -7 107 -12 107
-5 0 3 43 5 95 4 63 -1 95 3 95 10 0 8 2 8 8 0 4 -6 34 -11 67 -11z m-4535
-1748 c-7 -8 -17 -15 -23 -15 -6 0 -2 7 9 15 25 19 30 19 14 0z m5765 -2255
c3 -5 1 -10 -4 -10 -6 0 -11 5 -11 10 0 6 2 10 4 10 3 0 8 -4 11 -10z"/>
<path d="M32045 11700 c3 -5 8 -10 11 -10 2 0 4 5 4 10 0 6 -5 10 -11 10 -5 0
-7 -4 -4 -10z"/>
</g>
</svg>
